<?xml version="1.0" encoding="UTF-8" standalone="no"?>
<!DOCTYPE svg PUBLIC "-//W3C//DTD SVG 1.1//EN"
 "http://www.w3.org/Graphics/SVG/1.1/DTD/svg11.dtd">
<!-- Generated by graphviz version 12.2.0 (20241103.1931)
 -->
<!-- Title: /Users/xuechengyun/code/cpp/learning_more_cpp_idioms/build_g++/output/bin/expression_template_array_profile; 1012 samples Pages: 1 -->
<svg width="100%" height="100%"
  xmlns="http://www.w3.org/2000/svg" xmlns:xlink="http://www.w3.org/1999/xlink">
<script type="text/ecmascript"><![CDATA[
// SVGPan
// http://www.cyberz.org/blog/2009/12/08/svgpan-a-javascript-svg-panzoomdrag-library/
// Local modification: if(true || ...) below to force panning, never moving.

/**
 *  SVGPan library 1.2
 * ====================
 *
 * Given an unique existing element with id "viewport", including the
 * the library into any SVG adds the following capabilities:
 *
 *  - Mouse panning
 *  - Mouse zooming (using the wheel)
 *  - Object dargging
 *
 * Known issues:
 *
 *  - Zooming (while panning) on Safari has still some issues
 *
 * Releases:
 *
 * 1.2, Sat Mar 20 08:42:50 GMT 2010, Zeng Xiaohui
 *	Fixed a bug with browser mouse handler interaction
 *
 * 1.1, Wed Feb  3 17:39:33 GMT 2010, Zeng Xiaohui
 *	Updated the zoom code to support the mouse wheel on Safari/Chrome
 *
 * 1.0, Andrea Leofreddi
 *	First release
 *
 * This code is licensed under the following BSD license:
 *
 * Copyright 2009-2010 Andrea Leofreddi <a.leofreddi@itcharm.com>. All rights reserved.
 *
 * Redistribution and use in source and binary forms, with or without modification, are
 * permitted provided that the following conditions are met:
 *
 *    1. Redistributions of source code must retain the above copyright notice, this list of
 *       conditions and the following disclaimer.
 *
 *    2. Redistributions in binary form must reproduce the above copyright notice, this list
 *       of conditions and the following disclaimer in the documentation and/or other materials
 *       provided with the distribution.
 *
 * THIS SOFTWARE IS PROVIDED BY Andrea Leofreddi ``AS IS'' AND ANY EXPRESS OR IMPLIED
 * WARRANTIES, INCLUDING, BUT NOT LIMITED TO, THE IMPLIED WARRANTIES OF MERCHANTABILITY AND
 * FITNESS FOR A PARTICULAR PURPOSE ARE DISCLAIMED. IN NO EVENT SHALL Andrea Leofreddi OR
 * CONTRIBUTORS BE LIABLE FOR ANY DIRECT, INDIRECT, INCIDENTAL, SPECIAL, EXEMPLARY, OR
 * CONSEQUENTIAL DAMAGES (INCLUDING, BUT NOT LIMITED TO, PROCUREMENT OF SUBSTITUTE GOODS OR
 * SERVICES; LOSS OF USE, DATA, OR PROFITS; OR BUSINESS INTERRUPTION) HOWEVER CAUSED AND ON
 * ANY THEORY OF LIABILITY, WHETHER IN CONTRACT, STRICT LIABILITY, OR TORT (INCLUDING
 * NEGLIGENCE OR OTHERWISE) ARISING IN ANY WAY OUT OF THE USE OF THIS SOFTWARE, EVEN IF
 * ADVISED OF THE POSSIBILITY OF SUCH DAMAGE.
 *
 * The views and conclusions contained in the software and documentation are those of the
 * authors and should not be interpreted as representing official policies, either expressed
 * or implied, of Andrea Leofreddi.
 */

var root = document.documentElement;

var state = 'none', stateTarget, stateOrigin, stateTf;

setupHandlers(root);

/**
 * Register handlers
 */
function setupHandlers(root){
	setAttributes(root, {
		"onmouseup" : "add(evt)",
		"onmousedown" : "handleMouseDown(evt)",
		"onmousemove" : "handleMouseMove(evt)",
		"onmouseup" : "handleMouseUp(evt)",
		//"onmouseout" : "handleMouseUp(evt)", // Decomment this to stop the pan functionality when dragging out of the SVG element
	});

	if(navigator.userAgent.toLowerCase().indexOf('webkit') >= 0)
		window.addEventListener('mousewheel', handleMouseWheel, false); // Chrome/Safari
	else
		window.addEventListener('DOMMouseScroll', handleMouseWheel, false); // Others

	var g = svgDoc.getElementById("svg");
	g.width = "100%";
	g.height = "100%";
}

/**
 * Instance an SVGPoint object with given event coordinates.
 */
function getEventPoint(evt) {
	var p = root.createSVGPoint();

	p.x = evt.clientX;
	p.y = evt.clientY;

	return p;
}

/**
 * Sets the current transform matrix of an element.
 */
function setCTM(element, matrix) {
	var s = "matrix(" + matrix.a + "," + matrix.b + "," + matrix.c + "," + matrix.d + "," + matrix.e + "," + matrix.f + ")";

	element.setAttribute("transform", s);
}

/**
 * Dumps a matrix to a string (useful for debug).
 */
function dumpMatrix(matrix) {
	var s = "[ " + matrix.a + ", " + matrix.c + ", " + matrix.e + "\n  " + matrix.b + ", " + matrix.d + ", " + matrix.f + "\n  0, 0, 1 ]";

	return s;
}

/**
 * Sets attributes of an element.
 */
function setAttributes(element, attributes){
	for (i in attributes)
		element.setAttributeNS(null, i, attributes[i]);
}

/**
 * Handle mouse move event.
 */
function handleMouseWheel(evt) {
	if(evt.preventDefault)
		evt.preventDefault();

	evt.returnValue = false;

	var svgDoc = evt.target.ownerDocument;

	var delta;

	if(evt.wheelDelta)
		delta = evt.wheelDelta / 3600; // Chrome/Safari
	else
		delta = evt.detail / -90; // Mozilla

	var z = 1 + delta; // Zoom factor: 0.9/1.1

	var g = svgDoc.getElementById("viewport");

	var p = getEventPoint(evt);

	p = p.matrixTransform(g.getCTM().inverse());

	// Compute new scale matrix in current mouse position
	var k = root.createSVGMatrix().translate(p.x, p.y).scale(z).translate(-p.x, -p.y);

        setCTM(g, g.getCTM().multiply(k));

	stateTf = stateTf.multiply(k.inverse());
}

/**
 * Handle mouse move event.
 */
function handleMouseMove(evt) {
	if(evt.preventDefault)
		evt.preventDefault();

	evt.returnValue = false;

	var svgDoc = evt.target.ownerDocument;

	var g = svgDoc.getElementById("viewport");

	if(state == 'pan') {
		// Pan mode
		var p = getEventPoint(evt).matrixTransform(stateTf);

		setCTM(g, stateTf.inverse().translate(p.x - stateOrigin.x, p.y - stateOrigin.y));
	} else if(state == 'move') {
		// Move mode
		var p = getEventPoint(evt).matrixTransform(g.getCTM().inverse());

		setCTM(stateTarget, root.createSVGMatrix().translate(p.x - stateOrigin.x, p.y - stateOrigin.y).multiply(g.getCTM().inverse()).multiply(stateTarget.getCTM()));

		stateOrigin = p;
	}
}

/**
 * Handle click event.
 */
function handleMouseDown(evt) {
	if(evt.preventDefault)
		evt.preventDefault();

	evt.returnValue = false;

	var svgDoc = evt.target.ownerDocument;

	var g = svgDoc.getElementById("viewport");

	if(true || evt.target.tagName == "svg") {
		// Pan mode
		state = 'pan';

		stateTf = g.getCTM().inverse();

		stateOrigin = getEventPoint(evt).matrixTransform(stateTf);
	} else {
		// Move mode
		state = 'move';

		stateTarget = evt.target;

		stateTf = g.getCTM().inverse();

		stateOrigin = getEventPoint(evt).matrixTransform(stateTf);
	}
}

/**
 * Handle mouse button release event.
 */
function handleMouseUp(evt) {
	if(evt.preventDefault)
		evt.preventDefault();

	evt.returnValue = false;

	var svgDoc = evt.target.ownerDocument;

	if(state == 'pan' || state == 'move') {
		// Quit pan mode
		state = '';
	}
}

]]></script>
<g id="viewport" transform="translate(0,0)">
<g id="viewport" class="graph" transform="scale(1 1) rotate(0) translate(4 1191)">
<title>/Users/xuechengyun/code/cpp/learning_more_cpp_idioms/build_g++/output/bin/expression_template_array_profile; 1012 samples</title>
<polygon fill="white" stroke="none" points="-4,4 -4,-1191 2058.38,-1191 2058.38,4 -4,4"/>
<!-- Legend -->
<g id="node1" class="node">
<title>Legend</title>
<text text-anchor="start" x="8" y="-1160.2" font-family="Times,serif" font-size="24.00">/Users/xuechengyun/code/cpp/learning_more_cpp_idioms/build_g++/output/bin/expression_template_array_profile</text>
<text text-anchor="start" x="8" y="-1133.2" font-family="Times,serif" font-size="24.00">Total samples: 1012</text>
<text text-anchor="start" x="8" y="-1106.2" font-family="Times,serif" font-size="24.00">Focusing on: 1012</text>
<text text-anchor="start" x="8" y="-1079.2" font-family="Times,serif" font-size="24.00">Dropped nodes with &lt;= 5 abs(samples)</text>
<text text-anchor="start" x="8" y="-1052.2" font-family="Times,serif" font-size="24.00">Dropped edges with &lt;= 1 samples</text>
</g>
<!-- N1 -->
<g id="node2" class="node">
<title>N1</title>
<polygon fill="none" stroke="black" points="1230.25,-1134.12 1146.75,-1134.12 1146.75,-1096.88 1230.25,-1096.88 1230.25,-1134.12"/>
<text text-anchor="middle" x="1188.5" y="-1122.53" font-family="Times,serif" font-size="8.00">0x000000019d654273</text>
<text text-anchor="end" x="1222.25" y="-1112.78" font-family="Times,serif" font-size="8.00">0 (0.0%)</text>
<text text-anchor="end" x="1222.25" y="-1103.03" font-family="Times,serif" font-size="8.00">of 1012 (100.0%)</text>
</g>
<!-- N2 -->
<g id="node3" class="node">
<title>N2</title>
<polygon fill="none" stroke="black" points="1224.62,-991.5 1152.38,-991.5 1152.38,-954.25 1224.62,-954.25 1224.62,-991.5"/>
<text text-anchor="middle" x="1188.5" y="-979.9" font-family="Times,serif" font-size="8.00">_main</text>
<text text-anchor="end" x="1216.62" y="-970.15" font-family="Times,serif" font-size="8.00">0 (0.0%)</text>
<text text-anchor="end" x="1216.62" y="-960.4" font-family="Times,serif" font-size="8.00">of 1012 (100.0%)</text>
</g>
<!-- N1&#45;&gt;N2 -->
<g id="edge1" class="edge">
<title>N1&#45;&gt;N2</title>
<path fill="none" stroke="black" stroke-width="2" d="M1188.5,-1096.4C1188.5,-1072.88 1188.5,-1031.5 1188.5,-1003.4"/>
<polygon fill="black" stroke="black" stroke-width="2" points="1192,-1004.93 1188.5,-994.93 1185,-1004.93 1192,-1004.93"/>
<text text-anchor="middle" x="1202" y="-1012.7" font-family="Times,serif" font-size="14.00">1012</text>
</g>
<!-- N3 -->
<g id="node4" class="node">
<title>N3</title>
<polygon fill="none" stroke="black" points="1224.62,-901.75 1152.38,-901.75 1152.38,-864.5 1224.62,-864.5 1224.62,-901.75"/>
<text text-anchor="middle" x="1188.5" y="-890.15" font-family="Times,serif" font-size="8.00">run</text>
<text text-anchor="end" x="1216.62" y="-880.4" font-family="Times,serif" font-size="8.00">0 (0.0%)</text>
<text text-anchor="end" x="1216.62" y="-870.65" font-family="Times,serif" font-size="8.00">of 1012 (100.0%)</text>
</g>
<!-- N2&#45;&gt;N3 -->
<g id="edge2" class="edge">
<title>N2&#45;&gt;N3</title>
<path fill="none" stroke="black" stroke-width="2" d="M1188.5,-954.12C1188.5,-942.42 1188.5,-926.83 1188.5,-913.33"/>
<polygon fill="black" stroke="black" stroke-width="2" points="1192,-915.18 1188.5,-905.18 1185,-915.18 1192,-915.18"/>
<text text-anchor="middle" x="1202" y="-922.95" font-family="Times,serif" font-size="14.00">1012</text>
</g>
<!-- N5 -->
<g id="node6" class="node">
<title>N5</title>
<polygon fill="none" stroke="black" points="1439.88,-812 1321.12,-812 1321.12,-765 1439.88,-765 1439.88,-812"/>
<text text-anchor="middle" x="1380.5" y="-800.4" font-family="Times,serif" font-size="8.00">void</text>
<text text-anchor="middle" x="1380.5" y="-790.65" font-family="Times,serif" font-size="8.00">calculate_by_operator_overload</text>
<text text-anchor="end" x="1431.88" y="-780.9" font-family="Times,serif" font-size="8.00">0 (0.0%)</text>
<text text-anchor="end" x="1431.88" y="-771.15" font-family="Times,serif" font-size="8.00">of 507 (50.1%)</text>
</g>
<!-- N3&#45;&gt;N5 -->
<g id="edge4" class="edge">
<title>N3&#45;&gt;N5</title>
<path fill="none" stroke="black" stroke-width="2" d="M1225.07,-864.48C1252.75,-851.13 1291.31,-832.53 1323.1,-817.19"/>
<polygon fill="black" stroke="black" stroke-width="2" points="1322.94,-821.15 1330.43,-813.65 1319.9,-814.85 1322.94,-821.15"/>
<text text-anchor="middle" x="1306.12" y="-833.2" font-family="Times,serif" font-size="14.00">507</text>
</g>
<!-- N6 -->
<g id="node7" class="node">
<title>N6</title>
<polygon fill="none" stroke="black" points="1221.62,-812 1155.38,-812 1155.38,-765 1221.62,-765 1221.62,-812"/>
<text text-anchor="middle" x="1188.5" y="-800.4" font-family="Times,serif" font-size="8.00">void</text>
<text text-anchor="middle" x="1188.5" y="-790.65" font-family="Times,serif" font-size="8.00">calculate_by_et</text>
<text text-anchor="end" x="1213.62" y="-780.9" font-family="Times,serif" font-size="8.00">0 (0.0%)</text>
<text text-anchor="end" x="1213.62" y="-771.15" font-family="Times,serif" font-size="8.00">of 375 (37.1%)</text>
</g>
<!-- N3&#45;&gt;N6 -->
<g id="edge5" class="edge">
<title>N3&#45;&gt;N6</title>
<path fill="none" stroke="black" stroke-width="2" d="M1188.5,-864.27C1188.5,-852.68 1188.5,-837.23 1188.5,-823.37"/>
<polygon fill="black" stroke="black" stroke-width="2" points="1192,-825.26 1188.5,-815.26 1185,-825.26 1192,-825.26"/>
<text text-anchor="middle" x="1198.62" y="-833.2" font-family="Times,serif" font-size="14.00">375</text>
</g>
<!-- N13 -->
<g id="node14" class="node">
<title>N13</title>
<polygon fill="none" stroke="black" points="1034.5,-747 940.5,-747 940.5,-700 1034.5,-700 1034.5,-747"/>
<text text-anchor="middle" x="987.5" y="-735.4" font-family="Times,serif" font-size="8.00">void</text>
<text text-anchor="middle" x="987.5" y="-725.65" font-family="Times,serif" font-size="8.00">calculate_by_expression</text>
<text text-anchor="end" x="1026.5" y="-715.9" font-family="Times,serif" font-size="8.00">0 (0.0%)</text>
<text text-anchor="end" x="1026.5" y="-706.15" font-family="Times,serif" font-size="8.00">of 129 (12.7%)</text>
</g>
<!-- N3&#45;&gt;N13 -->
<g id="edge11" class="edge">
<title>N3&#45;&gt;N13</title>
<path fill="none" stroke="black" d="M1165.44,-864.04C1131.31,-837.28 1066.95,-786.81 1025.71,-754.46"/>
<polygon fill="black" stroke="black" points="1027.99,-751.8 1017.96,-748.39 1023.67,-757.31 1027.99,-751.8"/>
<text text-anchor="middle" x="1151.54" y="-833.2" font-family="Times,serif" font-size="14.00">129</text>
</g>
<!-- N4 -->
<g id="node5" class="node">
<title>N4</title>
<polygon fill="none" stroke="black" points="1509.25,-634 1413.75,-634 1413.75,-587 1509.25,-587 1509.25,-634"/>
<text text-anchor="middle" x="1461.5" y="-622.4" font-family="Times,serif" font-size="8.00">array_operator_overload</text>
<text text-anchor="middle" x="1461.5" y="-612.65" font-family="Times,serif" font-size="8.00">calculate</text>
<text text-anchor="end" x="1501.25" y="-602.9" font-family="Times,serif" font-size="8.00">0 (0.0%)</text>
<text text-anchor="end" x="1501.25" y="-593.15" font-family="Times,serif" font-size="8.00">of 507 (50.1%)</text>
</g>
<!-- N10 -->
<g id="node11" class="node">
<title>N10</title>
<polygon fill="none" stroke="black" points="1594.88,-387 1416.12,-387 1416.12,-304 1594.88,-304 1594.88,-387"/>
<text text-anchor="middle" x="1505.5" y="-367.32" font-family="Times,serif" font-size="16.50">array_operator_overload</text>
<text text-anchor="middle" x="1505.5" y="-348.57" font-family="Times,serif" font-size="16.50">operator*@100010500</text>
<text text-anchor="end" x="1586.88" y="-329.82" font-family="Times,serif" font-size="16.50">29 (2.9%)</text>
<text text-anchor="end" x="1586.88" y="-311.07" font-family="Times,serif" font-size="16.50">of 206 (20.4%)</text>
</g>
<!-- N4&#45;&gt;N10 -->
<g id="edge7" class="edge">
<title>N4&#45;&gt;N10</title>
<path fill="none" stroke="black" stroke-width="1.22" d="M1465.33,-586.62C1472.29,-545 1487.19,-455.92 1496.76,-398.74"/>
<polygon fill="black" stroke="black" stroke-width="1.22" points="1500.15,-399.66 1498.35,-389.22 1493.25,-398.51 1500.15,-399.66"/>
<text text-anchor="middle" x="1499.43" y="-457.95" font-family="Times,serif" font-size="14.00">206</text>
</g>
<!-- N11 -->
<g id="node12" class="node">
<title>N11</title>
<polygon fill="none" stroke="black" points="2022.88,-387 1844.12,-387 1844.12,-304 2022.88,-304 2022.88,-387"/>
<text text-anchor="middle" x="1933.5" y="-367.04" font-family="Times,serif" font-size="16.80">array_operator_overload</text>
<text text-anchor="middle" x="1933.5" y="-348.29" font-family="Times,serif" font-size="16.80">operator+@1000105b4</text>
<text text-anchor="end" x="2014.88" y="-329.54" font-family="Times,serif" font-size="16.80">31 (3.1%)</text>
<text text-anchor="end" x="2014.88" y="-310.79" font-family="Times,serif" font-size="16.80">of 177 (17.5%)</text>
</g>
<!-- N4&#45;&gt;N11 -->
<g id="edge9" class="edge">
<title>N4&#45;&gt;N11</title>
<path fill="none" stroke="black" stroke-width="1.05" d="M1509.48,-587.89C1560.59,-564.43 1643.47,-525.13 1712.5,-486.5 1764.27,-457.53 1820.75,-421.67 1863.65,-393.5"/>
<polygon fill="black" stroke="black" stroke-width="1.05" points="1865.39,-396.55 1871.82,-388.12 1861.54,-390.7 1865.39,-396.55"/>
<text text-anchor="middle" x="1801.66" y="-457.95" font-family="Times,serif" font-size="14.00">177</text>
</g>
<!-- N15 -->
<g id="node16" class="node">
<title>N15</title>
<polygon fill="none" stroke="black" points="1366.25,-382.5 1216.75,-382.5 1216.75,-308.5 1366.25,-308.5 1366.25,-382.5"/>
<text text-anchor="middle" x="1291.5" y="-365.3" font-family="Times,serif" font-size="13.90">array_operator_overload</text>
<text text-anchor="middle" x="1291.5" y="-348.8" font-family="Times,serif" font-size="13.90">operator*@100010698</text>
<text text-anchor="end" x="1358.25" y="-332.3" font-family="Times,serif" font-size="13.90">14 (1.4%)</text>
<text text-anchor="end" x="1358.25" y="-315.8" font-family="Times,serif" font-size="13.90">of 68 (6.7%)</text>
</g>
<!-- N4&#45;&gt;N15 -->
<g id="edge23" class="edge">
<title>N4&#45;&gt;N15</title>
<path fill="none" stroke="black" d="M1446.2,-586.72C1435.74,-572.12 1421.02,-553.3 1405.5,-539 1374.63,-510.56 1351.21,-520.79 1327,-486.5 1307.85,-459.38 1299.01,-422.85 1294.94,-393.91"/>
<polygon fill="black" stroke="black" points="1298.46,-393.82 1293.75,-384.33 1291.51,-394.69 1298.46,-393.82"/>
<text text-anchor="middle" x="1333.75" y="-457.95" font-family="Times,serif" font-size="14.00">37</text>
</g>
<!-- N16 -->
<g id="node17" class="node">
<title>N16</title>
<polygon fill="none" stroke="black" points="1703.25,-486.5 1607.75,-486.5 1607.75,-439.5 1703.25,-439.5 1703.25,-486.5"/>
<text text-anchor="middle" x="1655.5" y="-474.9" font-family="Times,serif" font-size="8.00">array_operator_overload</text>
<text text-anchor="middle" x="1655.5" y="-465.15" font-family="Times,serif" font-size="8.00">operator+@100010668</text>
<text text-anchor="end" x="1695.25" y="-455.4" font-family="Times,serif" font-size="8.00">0 (0.0%)</text>
<text text-anchor="end" x="1695.25" y="-445.65" font-family="Times,serif" font-size="8.00">of 56 (5.5%)</text>
</g>
<!-- N4&#45;&gt;N16 -->
<g id="edge18" class="edge">
<title>N4&#45;&gt;N16</title>
<path fill="none" stroke="black" d="M1491.81,-586.77C1525.31,-561.64 1579.38,-521.09 1616.13,-493.52"/>
<polygon fill="black" stroke="black" points="1617.97,-496.52 1623.87,-487.72 1613.77,-490.92 1617.97,-496.52"/>
<text text-anchor="middle" x="1604.93" y="-507.7" font-family="Times,serif" font-size="14.00">56</text>
</g>
<!-- N18 -->
<g id="node19" class="node">
<title>N18</title>
<polygon fill="none" stroke="black" points="1445.25,-486.5 1349.75,-486.5 1349.75,-439.5 1445.25,-439.5 1445.25,-486.5"/>
<text text-anchor="middle" x="1397.5" y="-474.9" font-family="Times,serif" font-size="8.00">array_operator_overload</text>
<text text-anchor="middle" x="1397.5" y="-465.15" font-family="Times,serif" font-size="8.00">operator*@100010740</text>
<text text-anchor="end" x="1437.25" y="-455.4" font-family="Times,serif" font-size="8.00">0 (0.0%)</text>
<text text-anchor="end" x="1437.25" y="-445.65" font-family="Times,serif" font-size="8.00">of 31 (3.1%)</text>
</g>
<!-- N4&#45;&gt;N18 -->
<g id="edge25" class="edge">
<title>N4&#45;&gt;N18</title>
<path fill="none" stroke="black" d="M1451.5,-586.77C1440.89,-562.63 1424.01,-524.27 1411.95,-496.86"/>
<polygon fill="black" stroke="black" points="1415.27,-495.7 1408.04,-487.96 1408.86,-498.52 1415.27,-495.7"/>
<text text-anchor="middle" x="1428.64" y="-507.7" font-family="Times,serif" font-size="14.00">31</text>
</g>
<!-- N5&#45;&gt;N4 -->
<g id="edge3" class="edge">
<title>N5&#45;&gt;N4</title>
<path fill="none" stroke="black" stroke-width="2" d="M1390.92,-764.85C1404.98,-734.31 1430.11,-679.71 1446.28,-644.57"/>
<polygon fill="black" stroke="black" stroke-width="2" points="1448.72,-647.64 1449.72,-637.09 1442.36,-644.71 1448.72,-647.64"/>
<text text-anchor="middle" x="1428.7" y="-718.45" font-family="Times,serif" font-size="14.00">507</text>
</g>
<!-- N7 -->
<g id="node8" class="node">
<title>N7</title>
<polygon fill="none" stroke="black" points="1357.75,-682 1019.25,-682 1019.25,-539 1357.75,-539 1357.75,-682"/>
<text text-anchor="middle" x="1188.5" y="-649.88" font-family="Times,serif" font-size="29.60">array_expression_template</text>
<text text-anchor="middle" x="1188.5" y="-616.13" font-family="Times,serif" font-size="29.60">collect_result</text>
<text text-anchor="end" x="1349.75" y="-582.38" font-family="Times,serif" font-size="29.60">188 (18.6%)</text>
<text text-anchor="end" x="1349.75" y="-548.63" font-family="Times,serif" font-size="29.60">of 373 (36.9%)</text>
</g>
<!-- N6&#45;&gt;N7 -->
<g id="edge6" class="edge">
<title>N6&#45;&gt;N7</title>
<path fill="none" stroke="black" stroke-width="2" d="M1188.5,-764.85C1188.5,-746.65 1188.5,-719.92 1188.5,-693.85"/>
<polygon fill="black" stroke="black" stroke-width="2" points="1192,-695.37 1188.5,-685.37 1185,-695.37 1192,-695.37"/>
<text text-anchor="middle" x="1198.62" y="-718.45" font-family="Times,serif" font-size="14.00">373</text>
</g>
<!-- N7&#45;&gt;N7 -->
<g id="edge8" class="edge">
<title>N7&#45;&gt;N7</title>
<path fill="none" stroke="black" stroke-width="1.1" d="M1358.15,-623.5C1369.12,-620.47 1375.75,-616.13 1375.75,-610.5 1375.75,-607.07 1373.29,-604.12 1368.88,-601.65"/>
<polygon fill="black" stroke="black" stroke-width="1.1" points="1370.3,-598.44 1359.71,-598.1 1367.77,-604.97 1370.3,-598.44"/>
<text text-anchor="middle" x="1385.88" y="-605.45" font-family="Times,serif" font-size="14.00">186</text>
</g>
<!-- N8 -->
<g id="node9" class="node">
<title>N8</title>
<polygon fill="none" stroke="black" points="1359.88,-217.75 1163.12,-217.75 1163.12,-127.25 1359.88,-127.25 1359.88,-217.75"/>
<text text-anchor="middle" x="1261.5" y="-178.89" font-family="Times,serif" font-size="36.70">___umodti3</text>
<text text-anchor="end" x="1351.88" y="-137.64" font-family="Times,serif" font-size="36.70">334 (33.0%)</text>
</g>
<!-- N7&#45;&gt;N8 -->
<g id="edge13" class="edge">
<title>N7&#45;&gt;N8</title>
<path fill="none" stroke="black" d="M1167.29,-538.54C1150,-466.91 1134.47,-354.97 1175.5,-269.5 1182.89,-254.11 1193.51,-239.37 1204.78,-226.25"/>
<polygon fill="black" stroke="black" points="1207.2,-228.8 1211.25,-219.01 1201.98,-224.14 1207.2,-228.8"/>
<text text-anchor="middle" x="1156.63" y="-408.2" font-family="Times,serif" font-size="14.00">85</text>
</g>
<!-- N9 -->
<g id="node10" class="node">
<title>N9</title>
<polygon fill="none" stroke="black" points="1705.12,-251.5 1377.88,-251.5 1377.88,-93.5 1705.12,-93.5 1705.12,-251.5"/>
<text text-anchor="middle" x="1541.5" y="-215.86" font-family="Times,serif" font-size="33.30">std</text>
<text text-anchor="middle" x="1541.5" y="-178.36" font-family="Times,serif" font-size="33.30">array</text>
<text text-anchor="middle" x="1541.5" y="-140.86" font-family="Times,serif" font-size="33.30">operator[]@1000107a0</text>
<text text-anchor="end" x="1697.12" y="-103.36" font-family="Times,serif" font-size="33.30">259 (25.6%)</text>
</g>
<!-- N7&#45;&gt;N9 -->
<g id="edge12" class="edge">
<title>N7&#45;&gt;N9</title>
<path fill="none" stroke="black" d="M1182.94,-538.64C1178.37,-459.06 1176.87,-336.74 1207.5,-304 1228.78,-281.25 1317.04,-296.11 1346.5,-286 1360.16,-281.31 1362.02,-276.77 1374.5,-269.5 1381.26,-265.57 1388.17,-261.55 1395.16,-257.5"/>
<polygon fill="black" stroke="black" points="1396.51,-260.76 1403.41,-252.72 1393.01,-254.71 1396.51,-260.76"/>
<text text-anchor="middle" x="1188.54" y="-408.2" font-family="Times,serif" font-size="14.00">90</text>
</g>
<!-- N14 -->
<g id="node15" class="node">
<title>N14</title>
<polygon fill="none" stroke="black" points="1145,-233.5 892,-233.5 892,-111.5 1145,-111.5 1145,-233.5"/>
<text text-anchor="middle" x="1018.5" y="-205.66" font-family="Times,serif" font-size="25.10">std</text>
<text text-anchor="middle" x="1018.5" y="-177.16" font-family="Times,serif" font-size="25.10">array</text>
<text text-anchor="middle" x="1018.5" y="-148.66" font-family="Times,serif" font-size="25.10">operator[]@10000d23c</text>
<text text-anchor="end" x="1137" y="-120.16" font-family="Times,serif" font-size="25.10">119 (11.8%)</text>
</g>
<!-- N7&#45;&gt;N14 -->
<g id="edge36" class="edge">
<title>N7&#45;&gt;N14</title>
<path fill="none" stroke="black" d="M1019.05,-549.33C853.58,-489.77 624.81,-404.96 612.5,-387 536.89,-276.74 735.04,-219.28 880.42,-192.78"/>
<polygon fill="black" stroke="black" points="880.95,-196.24 890.17,-191.04 879.71,-189.35 880.95,-196.24"/>
<text text-anchor="middle" x="686.6" y="-408.2" font-family="Times,serif" font-size="14.00">10</text>
</g>
<!-- N10&#45;&gt;N8 -->
<g id="edge14" class="edge">
<title>N10&#45;&gt;N8</title>
<path fill="none" stroke="black" d="M1423.48,-303.62C1413.69,-298 1404,-292.07 1395,-286 1368.38,-268.04 1340.92,-245.67 1317.88,-225.62"/>
<polygon fill="black" stroke="black" points="1320.24,-223.03 1310.42,-219.06 1315.62,-228.29 1320.24,-223.03"/>
<text text-anchor="middle" x="1401.75" y="-272.7" font-family="Times,serif" font-size="14.00">73</text>
</g>
<!-- N10&#45;&gt;N9 -->
<g id="edge19" class="edge">
<title>N10&#45;&gt;N9</title>
<path fill="none" stroke="black" d="M1515.51,-303.64C1516.89,-297.73 1518.26,-291.71 1519.5,-286 1521.12,-278.53 1522.75,-270.77 1524.35,-262.98"/>
<polygon fill="black" stroke="black" points="1527.73,-263.94 1526.29,-253.44 1520.87,-262.55 1527.73,-263.94"/>
<text text-anchor="middle" x="1529.5" y="-272.7" font-family="Times,serif" font-size="14.00">54</text>
</g>
<!-- N10&#45;&gt;N10 -->
<g id="edge29" class="edge">
<title>N10&#45;&gt;N10</title>
<path fill="none" stroke="black" d="M1595.18,-356.42C1605.88,-354.43 1612.88,-350.79 1612.88,-345.5 1612.88,-342.36 1610.41,-339.8 1606.17,-337.82"/>
<polygon fill="black" stroke="black" points="1607.21,-334.48 1596.63,-335.01 1605.23,-341.2 1607.21,-334.48"/>
<text text-anchor="middle" x="1619.62" y="-340.45" font-family="Times,serif" font-size="14.00">29</text>
</g>
<!-- N10&#45;&gt;N14 -->
<g id="edge22" class="edge">
<title>N10&#45;&gt;N14</title>
<path fill="none" stroke="black" d="M1415.74,-306.59C1412.64,-305.66 1409.55,-304.8 1406.5,-304 1342.59,-287.35 1320.65,-309.68 1259,-286 1247.09,-281.42 1247.18,-274.65 1235.5,-269.5 1201.76,-254.62 1188.89,-264.83 1154.5,-251.5 1145.09,-247.85 1135.55,-243.62 1126.12,-239.06"/>
<polygon fill="black" stroke="black" points="1127.8,-235.99 1117.29,-234.67 1124.68,-242.26 1127.8,-235.99"/>
<text text-anchor="middle" x="1265.75" y="-272.7" font-family="Times,serif" font-size="14.00">42</text>
</g>
<!-- N19 -->
<g id="node20" class="node">
<title>N19</title>
<polygon fill="none" stroke="black" points="1780.12,-200.88 1722.88,-200.88 1722.88,-144.12 1780.12,-144.12 1780.12,-200.88"/>
<text text-anchor="middle" x="1751.5" y="-189.28" font-family="Times,serif" font-size="8.00">std</text>
<text text-anchor="middle" x="1751.5" y="-179.53" font-family="Times,serif" font-size="8.00">array</text>
<text text-anchor="middle" x="1751.5" y="-169.78" font-family="Times,serif" font-size="8.00">get_array</text>
<text text-anchor="end" x="1772.12" y="-160.03" font-family="Times,serif" font-size="8.00">0 (0.0%)</text>
<text text-anchor="end" x="1772.12" y="-150.28" font-family="Times,serif" font-size="8.00">of 15 (1.5%)</text>
</g>
<!-- N10&#45;&gt;N19 -->
<g id="edge40" class="edge">
<title>N10&#45;&gt;N19</title>
<path fill="none" stroke="black" d="M1595.14,-318.64C1620.24,-309.83 1647.06,-298.89 1670.5,-286 1692.27,-274.02 1698.98,-270.91 1714.5,-251.5 1723.95,-239.68 1731.71,-225.04 1737.63,-211.65"/>
<polygon fill="black" stroke="black" points="1740.76,-213.23 1741.4,-202.66 1734.31,-210.53 1740.76,-213.23"/>
<text text-anchor="middle" x="1700.47" y="-272.7" font-family="Times,serif" font-size="14.00">8</text>
</g>
<!-- N11&#45;&gt;N8 -->
<g id="edge15" class="edge">
<title>N11&#45;&gt;N8</title>
<path fill="none" stroke="black" d="M1843.76,-306.5C1840.66,-305.6 1837.56,-304.76 1834.5,-304 1755.83,-284.45 1728.7,-315 1653,-286 1641.42,-281.56 1642.15,-273.76 1630.5,-269.5 1520.88,-229.4 1478.17,-291.44 1368.5,-251.5 1351.42,-245.28 1334.68,-235.46 1319.7,-224.85"/>
<polygon fill="black" stroke="black" points="1321.96,-222.17 1311.83,-219.07 1317.82,-227.81 1321.96,-222.17"/>
<text text-anchor="middle" x="1659.75" y="-272.7" font-family="Times,serif" font-size="14.00">66</text>
</g>
<!-- N11&#45;&gt;N9 -->
<g id="edge20" class="edge">
<title>N11&#45;&gt;N9</title>
<path fill="none" stroke="black" d="M1843.63,-307.13C1806.41,-291.5 1762.6,-272.92 1715.7,-252.45"/>
<polygon fill="black" stroke="black" points="1717.28,-249.32 1706.72,-248.52 1714.47,-255.73 1717.28,-249.32"/>
<text text-anchor="middle" x="1798.66" y="-272.7" font-family="Times,serif" font-size="14.00">48</text>
</g>
<!-- N11&#45;&gt;N11 -->
<g id="edge26" class="edge">
<title>N11&#45;&gt;N11</title>
<path fill="none" stroke="black" d="M2023.18,-356.42C2033.88,-354.43 2040.88,-350.79 2040.88,-345.5 2040.88,-342.36 2038.41,-339.8 2034.17,-337.82"/>
<polygon fill="black" stroke="black" points="2035.21,-334.48 2024.63,-335.01 2033.23,-341.2 2035.21,-334.48"/>
<text text-anchor="middle" x="2047.62" y="-340.45" font-family="Times,serif" font-size="14.00">31</text>
</g>
<!-- N11&#45;&gt;N14 -->
<g id="edge28" class="edge">
<title>N11&#45;&gt;N14</title>
<path fill="none" stroke="black" d="M1843.81,-306.32C1840.69,-305.47 1837.58,-304.69 1834.5,-304 1762.31,-287.76 1570.77,-313.32 1502,-286 1491.45,-281.81 1493.05,-273.7 1482.5,-269.5 1414.67,-242.52 1224.5,-272.22 1154.5,-251.5 1143.21,-248.16 1131.85,-243.72 1120.77,-238.65"/>
<polygon fill="black" stroke="black" points="1122.58,-235.63 1112.05,-234.48 1119.56,-241.95 1122.58,-235.63"/>
<text text-anchor="middle" x="1508.75" y="-272.7" font-family="Times,serif" font-size="14.00">29</text>
</g>
<!-- N11&#45;&gt;N19 -->
<g id="edge42" class="edge">
<title>N11&#45;&gt;N19</title>
<path fill="none" stroke="black" d="M1892.17,-303.78C1880.69,-292.59 1868.17,-280.51 1856.5,-269.5 1834.18,-248.44 1808.79,-225.21 1788.57,-206.87"/>
<polygon fill="black" stroke="black" points="1791.13,-204.47 1781.37,-200.35 1786.43,-209.66 1791.13,-204.47"/>
<text text-anchor="middle" x="1876.93" y="-272.7" font-family="Times,serif" font-size="14.00">3</text>
</g>
<!-- N12 -->
<g id="node13" class="node">
<title>N12</title>
<polygon fill="none" stroke="black" points="1091,-372 622,-372 622,-319 1091,-319 1091,-372"/>
<text text-anchor="middle" x="856.5" y="-355.65" font-family="Times,serif" font-size="13.00">__Z23calculate_by_expressionITk9ArrayLikeSt5arrayIdLm2000EEET_RKS2_S4_</text>
<text text-anchor="end" x="1083" y="-340.65" font-family="Times,serif" font-size="13.00">10 (1.0%)</text>
<text text-anchor="end" x="1083" y="-325.65" font-family="Times,serif" font-size="13.00">of 129 (12.7%)</text>
</g>
<!-- N12&#45;&gt;N8 -->
<g id="edge16" class="edge">
<title>N12&#45;&gt;N8</title>
<path fill="none" stroke="black" d="M969.55,-318.59C1026.72,-303.18 1096.16,-280.86 1154.5,-251.5 1169.41,-244 1184.47,-234.48 1198.39,-224.69"/>
<polygon fill="black" stroke="black" points="1200.06,-227.8 1206.13,-219.12 1195.97,-222.12 1200.06,-227.8"/>
<text text-anchor="middle" x="1114.85" y="-272.7" font-family="Times,serif" font-size="14.00">64</text>
</g>
<!-- N12&#45;&gt;N9 -->
<g id="edge21" class="edge">
<title>N12&#45;&gt;N9</title>
<path fill="none" stroke="black" d="M1059.77,-318.52C1179.47,-303.17 1307.92,-286.61 1309.5,-286 1321.4,-281.38 1321.94,-275.86 1333,-269.5 1337.84,-266.72 1350.54,-260.56 1367.43,-252.63"/>
<polygon fill="black" stroke="black" points="1368.88,-255.82 1376.46,-248.41 1365.92,-249.48 1368.88,-255.82"/>
<text text-anchor="middle" x="1339.75" y="-272.7" font-family="Times,serif" font-size="14.00">48</text>
</g>
<!-- N12&#45;&gt;N12 -->
<g id="edge38" class="edge">
<title>N12&#45;&gt;N12</title>
<path fill="none" stroke="black" d="M1091.29,-353.55C1102.45,-351.52 1109,-348.84 1109,-345.5 1109,-343.46 1106.57,-341.67 1102.14,-340.13"/>
<polygon fill="black" stroke="black" points="1103.3,-336.81 1092.76,-337.82 1101.63,-343.6 1103.3,-336.81"/>
<text text-anchor="middle" x="1115.75" y="-340.45" font-family="Times,serif" font-size="14.00">10</text>
</g>
<!-- N12&#45;&gt;N14 -->
<g id="edge41" class="edge">
<title>N12&#45;&gt;N14</title>
<path fill="none" stroke="black" d="M881.1,-318.53C900.36,-298.21 928.05,-268.98 953.53,-242.08"/>
<polygon fill="black" stroke="black" points="955.98,-244.58 960.32,-234.92 950.9,-239.77 955.98,-244.58"/>
<text text-anchor="middle" x="926.36" y="-272.7" font-family="Times,serif" font-size="14.00">7</text>
</g>
<!-- N13&#45;&gt;N12 -->
<g id="edge10" class="edge">
<title>N13&#45;&gt;N12</title>
<path fill="none" stroke="black" d="M979.5,-699.55C957.5,-636.4 895.95,-459.72 869.19,-382.92"/>
<polygon fill="black" stroke="black" points="872.59,-382.06 866,-373.77 865.98,-384.36 872.59,-382.06"/>
<text text-anchor="middle" x="926.77" y="-507.7" font-family="Times,serif" font-size="14.00">129</text>
</g>
<!-- N15&#45;&gt;N8 -->
<g id="edge27" class="edge">
<title>N15&#45;&gt;N8</title>
<path fill="none" stroke="black" d="M1237.68,-308.18C1231.34,-301.57 1225.79,-294.15 1222,-286 1213.49,-267.72 1217.18,-247.06 1225.01,-228.48"/>
<polygon fill="black" stroke="black" points="1228.16,-230.01 1229.25,-219.47 1221.82,-227.03 1228.16,-230.01"/>
<text text-anchor="middle" x="1228.75" y="-272.7" font-family="Times,serif" font-size="14.00">29</text>
</g>
<!-- N15&#45;&gt;N9 -->
<g id="edge37" class="edge">
<title>N15&#45;&gt;N9</title>
<path fill="none" stroke="black" d="M1366.64,-310.27C1380.89,-302.85 1395.42,-294.63 1408.5,-286 1421,-277.76 1433.63,-268.5 1445.88,-258.93"/>
<polygon fill="black" stroke="black" points="1447.88,-261.81 1453.54,-252.85 1443.53,-256.33 1447.88,-261.81"/>
<text text-anchor="middle" x="1438.56" y="-272.7" font-family="Times,serif" font-size="14.00">10</text>
</g>
<!-- N15&#45;&gt;N14 -->
<g id="edge34" class="edge">
<title>N15&#45;&gt;N14</title>
<path fill="none" stroke="black" d="M1233.27,-308.03C1201.58,-288.18 1161.4,-263.01 1124.38,-239.82"/>
<polygon fill="black" stroke="black" points="1126.66,-237.12 1116.32,-234.77 1122.94,-243.05 1126.66,-237.12"/>
<text text-anchor="middle" x="1202.15" y="-272.7" font-family="Times,serif" font-size="14.00">14</text>
</g>
<!-- N15&#45;&gt;N15 -->
<g id="edge32" class="edge">
<title>N15&#45;&gt;N15</title>
<path fill="none" stroke="black" d="M1366.47,-356.9C1377.11,-355.06 1384.25,-351.26 1384.25,-345.5 1384.25,-342.08 1381.73,-339.35 1377.46,-337.32"/>
<polygon fill="black" stroke="black" points="1378.5,-333.97 1367.92,-334.53 1376.53,-340.69 1378.5,-333.97"/>
<text text-anchor="middle" x="1391" y="-340.45" font-family="Times,serif" font-size="14.00">14</text>
</g>
<!-- N17 -->
<g id="node18" class="node">
<title>N17</title>
<polygon fill="none" stroke="black" points="1794.25,-379.5 1644.75,-379.5 1644.75,-311.5 1794.25,-311.5 1794.25,-379.5"/>
<text text-anchor="middle" x="1719.5" y="-362.96" font-family="Times,serif" font-size="13.20">array_operator_overload</text>
<text text-anchor="middle" x="1719.5" y="-347.96" font-family="Times,serif" font-size="13.20">operator+@1000119f4</text>
<text text-anchor="end" x="1786.25" y="-332.96" font-family="Times,serif" font-size="13.20">11 (1.1%)</text>
<text text-anchor="end" x="1786.25" y="-317.96" font-family="Times,serif" font-size="13.20">of 56 (5.5%)</text>
</g>
<!-- N16&#45;&gt;N17 -->
<g id="edge17" class="edge">
<title>N16&#45;&gt;N17</title>
<path fill="none" stroke="black" d="M1668.14,-439.18C1676,-425 1686.35,-406.32 1695.7,-389.45"/>
<polygon fill="black" stroke="black" points="1698.54,-391.54 1700.33,-381.1 1692.42,-388.15 1698.54,-391.54"/>
<text text-anchor="middle" x="1692.33" y="-408.2" font-family="Times,serif" font-size="14.00">56</text>
</g>
<!-- N17&#45;&gt;N8 -->
<g id="edge31" class="edge">
<title>N17&#45;&gt;N8</title>
<path fill="none" stroke="black" d="M1655.71,-311.02C1649.01,-308.33 1642.19,-305.91 1635.5,-304 1563.94,-283.54 1538.66,-312.21 1469,-286 1457.06,-281.51 1457.15,-274.71 1445.5,-269.5 1413.42,-255.14 1400.45,-266.14 1368.5,-251.5 1352.9,-244.35 1337.3,-234.74 1323.03,-224.71"/>
<polygon fill="black" stroke="black" points="1325.23,-221.98 1315.08,-218.96 1321.13,-227.66 1325.23,-221.98"/>
<text text-anchor="middle" x="1475.75" y="-272.7" font-family="Times,serif" font-size="14.00">16</text>
</g>
<!-- N17&#45;&gt;N9 -->
<g id="edge39" class="edge">
<title>N17&#45;&gt;N9</title>
<path fill="none" stroke="black" d="M1656.7,-311.03C1645.15,-303.55 1633.64,-295.1 1623.75,-286 1615.39,-278.3 1607.32,-269.64 1599.73,-260.63"/>
<polygon fill="black" stroke="black" points="1602.59,-258.6 1593.56,-253.07 1597.17,-263.03 1602.59,-258.6"/>
<text text-anchor="middle" x="1627.12" y="-272.7" font-family="Times,serif" font-size="14.00">9</text>
</g>
<!-- N17&#45;&gt;N14 -->
<g id="edge30" class="edge">
<title>N17&#45;&gt;N14</title>
<path fill="none" stroke="black" d="M1657.23,-311.18C1650.05,-308.34 1642.71,-305.85 1635.5,-304 1561.45,-285.03 1363.06,-314.16 1292,-286 1281.45,-281.82 1282.83,-274.2 1272.5,-269.5 1224.21,-247.54 1204.58,-268.99 1154.5,-251.5 1144.29,-247.93 1133.96,-243.59 1123.82,-238.8"/>
<polygon fill="black" stroke="black" points="1125.62,-235.79 1115.1,-234.55 1122.54,-242.08 1125.62,-235.79"/>
<text text-anchor="middle" x="1298.75" y="-272.7" font-family="Times,serif" font-size="14.00">17</text>
</g>
<!-- N17&#45;&gt;N17 -->
<g id="edge35" class="edge">
<title>N17&#45;&gt;N17</title>
<path fill="none" stroke="black" d="M1794.47,-356.9C1805.11,-355.06 1812.25,-351.26 1812.25,-345.5 1812.25,-342.08 1809.73,-339.35 1805.46,-337.32"/>
<polygon fill="black" stroke="black" points="1806.5,-333.97 1795.92,-334.53 1804.53,-340.69 1806.5,-333.97"/>
<text text-anchor="middle" x="1819" y="-340.45" font-family="Times,serif" font-size="14.00">11</text>
</g>
<!-- N17&#45;&gt;N19 -->
<g id="edge43" class="edge">
<title>N17&#45;&gt;N19</title>
<path fill="none" stroke="black" d="M1725.75,-311.12C1731.04,-282.81 1738.65,-242.16 1744.22,-212.38"/>
<polygon fill="black" stroke="black" points="1747.65,-213.11 1746.05,-202.64 1740.77,-211.82 1747.65,-213.11"/>
<text text-anchor="middle" x="1736.01" y="-272.7" font-family="Times,serif" font-size="14.00">3</text>
</g>
<!-- N18&#45;&gt;N15 -->
<g id="edge24" class="edge">
<title>N18&#45;&gt;N15</title>
<path fill="none" stroke="black" d="M1376.56,-439.18C1364.02,-425.52 1347.65,-407.68 1332.62,-391.31"/>
<polygon fill="black" stroke="black" points="1335.28,-389.03 1325.94,-384.03 1330.12,-393.76 1335.28,-389.03"/>
<text text-anchor="middle" x="1366.94" y="-408.2" font-family="Times,serif" font-size="14.00">31</text>
</g>
<!-- N20 -->
<g id="node21" class="node">
<title>N20</title>
<polygon fill="none" stroke="black" points="1819.5,-41 1683.5,-41 1683.5,0 1819.5,0 1819.5,-41"/>
<text text-anchor="middle" x="1751.5" y="-23.8" font-family="Times,serif" font-size="13.90">0x000000019da0b80c</text>
<text text-anchor="end" x="1811.5" y="-7.3" font-family="Times,serif" font-size="13.90">14 (1.4%)</text>
</g>
<!-- N19&#45;&gt;N20 -->
<g id="edge33" class="edge">
<title>N19&#45;&gt;N20</title>
<path fill="none" stroke="black" d="M1751.5,-143.64C1751.5,-117.78 1751.5,-79.34 1751.5,-52.51"/>
<polygon fill="black" stroke="black" points="1755,-52.6 1751.5,-42.6 1748,-52.6 1755,-52.6"/>
<text text-anchor="middle" x="1758.25" y="-62.2" font-family="Times,serif" font-size="14.00">14</text>
</g>
</g>
</g></svg>
