<?xml version="1.0" encoding="UTF-8" standalone="no"?>
<!DOCTYPE svg PUBLIC "-//W3C//DTD SVG 1.1//EN"
 "http://www.w3.org/Graphics/SVG/1.1/DTD/svg11.dtd">
<!-- Generated by graphviz version 12.2.0 (20241103.1931)
 -->
<!-- Title: /Users/xuechengyun/code/cpp/learning_more_cpp_idioms/build/output/bin/expression_template_array_profile; 1246 samples Pages: 1 -->
<svg width="100%" height="100%"
  xmlns="http://www.w3.org/2000/svg" xmlns:xlink="http://www.w3.org/1999/xlink">
<script type="text/ecmascript"><![CDATA[
// SVGPan
// http://www.cyberz.org/blog/2009/12/08/svgpan-a-javascript-svg-panzoomdrag-library/
// Local modification: if(true || ...) below to force panning, never moving.

/**
 *  SVGPan library 1.2
 * ====================
 *
 * Given an unique existing element with id "viewport", including the
 * the library into any SVG adds the following capabilities:
 *
 *  - Mouse panning
 *  - Mouse zooming (using the wheel)
 *  - Object dargging
 *
 * Known issues:
 *
 *  - Zooming (while panning) on Safari has still some issues
 *
 * Releases:
 *
 * 1.2, Sat Mar 20 08:42:50 GMT 2010, Zeng Xiaohui
 *	Fixed a bug with browser mouse handler interaction
 *
 * 1.1, Wed Feb  3 17:39:33 GMT 2010, Zeng Xiaohui
 *	Updated the zoom code to support the mouse wheel on Safari/Chrome
 *
 * 1.0, Andrea Leofreddi
 *	First release
 *
 * This code is licensed under the following BSD license:
 *
 * Copyright 2009-2010 Andrea Leofreddi <a.leofreddi@itcharm.com>. All rights reserved.
 *
 * Redistribution and use in source and binary forms, with or without modification, are
 * permitted provided that the following conditions are met:
 *
 *    1. Redistributions of source code must retain the above copyright notice, this list of
 *       conditions and the following disclaimer.
 *
 *    2. Redistributions in binary form must reproduce the above copyright notice, this list
 *       of conditions and the following disclaimer in the documentation and/or other materials
 *       provided with the distribution.
 *
 * THIS SOFTWARE IS PROVIDED BY Andrea Leofreddi ``AS IS'' AND ANY EXPRESS OR IMPLIED
 * WARRANTIES, INCLUDING, BUT NOT LIMITED TO, THE IMPLIED WARRANTIES OF MERCHANTABILITY AND
 * FITNESS FOR A PARTICULAR PURPOSE ARE DISCLAIMED. IN NO EVENT SHALL Andrea Leofreddi OR
 * CONTRIBUTORS BE LIABLE FOR ANY DIRECT, INDIRECT, INCIDENTAL, SPECIAL, EXEMPLARY, OR
 * CONSEQUENTIAL DAMAGES (INCLUDING, BUT NOT LIMITED TO, PROCUREMENT OF SUBSTITUTE GOODS OR
 * SERVICES; LOSS OF USE, DATA, OR PROFITS; OR BUSINESS INTERRUPTION) HOWEVER CAUSED AND ON
 * ANY THEORY OF LIABILITY, WHETHER IN CONTRACT, STRICT LIABILITY, OR TORT (INCLUDING
 * NEGLIGENCE OR OTHERWISE) ARISING IN ANY WAY OUT OF THE USE OF THIS SOFTWARE, EVEN IF
 * ADVISED OF THE POSSIBILITY OF SUCH DAMAGE.
 *
 * The views and conclusions contained in the software and documentation are those of the
 * authors and should not be interpreted as representing official policies, either expressed
 * or implied, of Andrea Leofreddi.
 */

var root = document.documentElement;

var state = 'none', stateTarget, stateOrigin, stateTf;

setupHandlers(root);

/**
 * Register handlers
 */
function setupHandlers(root){
	setAttributes(root, {
		"onmouseup" : "add(evt)",
		"onmousedown" : "handleMouseDown(evt)",
		"onmousemove" : "handleMouseMove(evt)",
		"onmouseup" : "handleMouseUp(evt)",
		//"onmouseout" : "handleMouseUp(evt)", // Decomment this to stop the pan functionality when dragging out of the SVG element
	});

	if(navigator.userAgent.toLowerCase().indexOf('webkit') >= 0)
		window.addEventListener('mousewheel', handleMouseWheel, false); // Chrome/Safari
	else
		window.addEventListener('DOMMouseScroll', handleMouseWheel, false); // Others

	var g = svgDoc.getElementById("svg");
	g.width = "100%";
	g.height = "100%";
}

/**
 * Instance an SVGPoint object with given event coordinates.
 */
function getEventPoint(evt) {
	var p = root.createSVGPoint();

	p.x = evt.clientX;
	p.y = evt.clientY;

	return p;
}

/**
 * Sets the current transform matrix of an element.
 */
function setCTM(element, matrix) {
	var s = "matrix(" + matrix.a + "," + matrix.b + "," + matrix.c + "," + matrix.d + "," + matrix.e + "," + matrix.f + ")";

	element.setAttribute("transform", s);
}

/**
 * Dumps a matrix to a string (useful for debug).
 */
function dumpMatrix(matrix) {
	var s = "[ " + matrix.a + ", " + matrix.c + ", " + matrix.e + "\n  " + matrix.b + ", " + matrix.d + ", " + matrix.f + "\n  0, 0, 1 ]";

	return s;
}

/**
 * Sets attributes of an element.
 */
function setAttributes(element, attributes){
	for (i in attributes)
		element.setAttributeNS(null, i, attributes[i]);
}

/**
 * Handle mouse move event.
 */
function handleMouseWheel(evt) {
	if(evt.preventDefault)
		evt.preventDefault();

	evt.returnValue = false;

	var svgDoc = evt.target.ownerDocument;

	var delta;

	if(evt.wheelDelta)
		delta = evt.wheelDelta / 3600; // Chrome/Safari
	else
		delta = evt.detail / -90; // Mozilla

	var z = 1 + delta; // Zoom factor: 0.9/1.1

	var g = svgDoc.getElementById("viewport");

	var p = getEventPoint(evt);

	p = p.matrixTransform(g.getCTM().inverse());

	// Compute new scale matrix in current mouse position
	var k = root.createSVGMatrix().translate(p.x, p.y).scale(z).translate(-p.x, -p.y);

        setCTM(g, g.getCTM().multiply(k));

	stateTf = stateTf.multiply(k.inverse());
}

/**
 * Handle mouse move event.
 */
function handleMouseMove(evt) {
	if(evt.preventDefault)
		evt.preventDefault();

	evt.returnValue = false;

	var svgDoc = evt.target.ownerDocument;

	var g = svgDoc.getElementById("viewport");

	if(state == 'pan') {
		// Pan mode
		var p = getEventPoint(evt).matrixTransform(stateTf);

		setCTM(g, stateTf.inverse().translate(p.x - stateOrigin.x, p.y - stateOrigin.y));
	} else if(state == 'move') {
		// Move mode
		var p = getEventPoint(evt).matrixTransform(g.getCTM().inverse());

		setCTM(stateTarget, root.createSVGMatrix().translate(p.x - stateOrigin.x, p.y - stateOrigin.y).multiply(g.getCTM().inverse()).multiply(stateTarget.getCTM()));

		stateOrigin = p;
	}
}

/**
 * Handle click event.
 */
function handleMouseDown(evt) {
	if(evt.preventDefault)
		evt.preventDefault();

	evt.returnValue = false;

	var svgDoc = evt.target.ownerDocument;

	var g = svgDoc.getElementById("viewport");

	if(true || evt.target.tagName == "svg") {
		// Pan mode
		state = 'pan';

		stateTf = g.getCTM().inverse();

		stateOrigin = getEventPoint(evt).matrixTransform(stateTf);
	} else {
		// Move mode
		state = 'move';

		stateTarget = evt.target;

		stateTf = g.getCTM().inverse();

		stateOrigin = getEventPoint(evt).matrixTransform(stateTf);
	}
}

/**
 * Handle mouse button release event.
 */
function handleMouseUp(evt) {
	if(evt.preventDefault)
		evt.preventDefault();

	evt.returnValue = false;

	var svgDoc = evt.target.ownerDocument;

	if(state == 'pan' || state == 'move') {
		// Quit pan mode
		state = '';
	}
}

]]></script>
<g id="viewport" transform="translate(0,0)">
<g id="viewport" class="graph" transform="scale(1 1) rotate(0) translate(4 1209.75)">
<title>/Users/xuechengyun/code/cpp/learning_more_cpp_idioms/build/output/bin/expression_template_array_profile; 1246 samples</title>
<polygon fill="white" stroke="none" points="-4,4 -4,-1209.75 6939.5,-1209.75 6939.5,4 -4,4"/>
<!-- Legend -->
<g id="node1" class="node">
<title>Legend</title>
<text text-anchor="start" x="769.38" y="-1178.95" font-family="Times,serif" font-size="24.00">/Users/xuechengyun/code/cpp/learning_more_cpp_idioms/build/output/bin/expression_template_array_profile</text>
<text text-anchor="start" x="769.38" y="-1151.95" font-family="Times,serif" font-size="24.00">Total samples: 1246</text>
<text text-anchor="start" x="769.38" y="-1124.95" font-family="Times,serif" font-size="24.00">Focusing on: 1246</text>
<text text-anchor="start" x="769.38" y="-1097.95" font-family="Times,serif" font-size="24.00">Dropped nodes with &lt;= 6 abs(samples)</text>
<text text-anchor="start" x="769.38" y="-1070.95" font-family="Times,serif" font-size="24.00">Dropped edges with &lt;= 1 samples</text>
</g>
<!-- N1 -->
<g id="node2" class="node">
<title>N1</title>
<polygon fill="none" stroke="black" points="1941.12,-1152.88 1857.62,-1152.88 1857.62,-1115.62 1941.12,-1115.62 1941.12,-1152.88"/>
<text text-anchor="middle" x="1899.38" y="-1141.28" font-family="Times,serif" font-size="8.00">0x000000019d654273</text>
<text text-anchor="end" x="1933.12" y="-1131.53" font-family="Times,serif" font-size="8.00">0 (0.0%)</text>
<text text-anchor="end" x="1933.12" y="-1121.78" font-family="Times,serif" font-size="8.00">of 1246 (100.0%)</text>
</g>
<!-- N2 -->
<g id="node3" class="node">
<title>N2</title>
<polygon fill="none" stroke="black" points="1935.5,-1010.25 1863.25,-1010.25 1863.25,-973 1935.5,-973 1935.5,-1010.25"/>
<text text-anchor="middle" x="1899.38" y="-998.65" font-family="Times,serif" font-size="8.00">_main</text>
<text text-anchor="end" x="1927.5" y="-988.9" font-family="Times,serif" font-size="8.00">0 (0.0%)</text>
<text text-anchor="end" x="1927.5" y="-979.15" font-family="Times,serif" font-size="8.00">of 1246 (100.0%)</text>
</g>
<!-- N1&#45;&gt;N2 -->
<g id="edge2" class="edge">
<title>N1&#45;&gt;N2</title>
<path fill="none" stroke="black" stroke-width="2" d="M1899.38,-1115.15C1899.38,-1091.63 1899.38,-1050.25 1899.38,-1022.15"/>
<polygon fill="black" stroke="black" stroke-width="2" points="1902.88,-1023.68 1899.38,-1013.68 1895.88,-1023.68 1902.88,-1023.68"/>
<text text-anchor="middle" x="1912.88" y="-1031.45" font-family="Times,serif" font-size="14.00">1246</text>
</g>
<!-- N3 -->
<g id="node4" class="node">
<title>N3</title>
<polygon fill="none" stroke="black" points="1935.5,-920.5 1863.25,-920.5 1863.25,-883.25 1935.5,-883.25 1935.5,-920.5"/>
<text text-anchor="middle" x="1899.38" y="-908.9" font-family="Times,serif" font-size="8.00">run</text>
<text text-anchor="end" x="1927.5" y="-899.15" font-family="Times,serif" font-size="8.00">0 (0.0%)</text>
<text text-anchor="end" x="1927.5" y="-889.4" font-family="Times,serif" font-size="8.00">of 1246 (100.0%)</text>
</g>
<!-- N2&#45;&gt;N3 -->
<g id="edge1" class="edge">
<title>N2&#45;&gt;N3</title>
<path fill="none" stroke="black" stroke-width="2" d="M1899.38,-972.87C1899.38,-961.17 1899.38,-945.58 1899.38,-932.08"/>
<polygon fill="black" stroke="black" stroke-width="2" points="1902.88,-933.93 1899.38,-923.93 1895.88,-933.93 1902.88,-933.93"/>
<text text-anchor="middle" x="1912.88" y="-941.7" font-family="Times,serif" font-size="14.00">1246</text>
</g>
<!-- N5 -->
<g id="node6" class="node">
<title>N5</title>
<polygon fill="none" stroke="black" points="1841.75,-830.75 1723,-830.75 1723,-783.75 1841.75,-783.75 1841.75,-830.75"/>
<text text-anchor="middle" x="1782.38" y="-819.15" font-family="Times,serif" font-size="8.00">void</text>
<text text-anchor="middle" x="1782.38" y="-809.4" font-family="Times,serif" font-size="8.00">calculate_by_operator_overload</text>
<text text-anchor="end" x="1833.75" y="-799.65" font-family="Times,serif" font-size="8.00">0 (0.0%)</text>
<text text-anchor="end" x="1833.75" y="-789.9" font-family="Times,serif" font-size="8.00">of 614 (49.3%)</text>
</g>
<!-- N3&#45;&gt;N5 -->
<g id="edge3" class="edge">
<title>N3&#45;&gt;N5</title>
<path fill="none" stroke="black" stroke-width="2" d="M1876.54,-882.8C1860.54,-870.13 1838.78,-852.9 1820.21,-838.2"/>
<polygon fill="black" stroke="black" stroke-width="2" points="1823.77,-836.56 1813.76,-833.1 1819.43,-842.05 1823.77,-836.56"/>
<text text-anchor="middle" x="1861.48" y="-851.95" font-family="Times,serif" font-size="14.00">614</text>
</g>
<!-- N7 -->
<g id="node8" class="node">
<title>N7</title>
<polygon fill="none" stroke="black" points="2608.5,-830.75 2542.25,-830.75 2542.25,-783.75 2608.5,-783.75 2608.5,-830.75"/>
<text text-anchor="middle" x="2575.38" y="-819.15" font-family="Times,serif" font-size="8.00">void</text>
<text text-anchor="middle" x="2575.38" y="-809.4" font-family="Times,serif" font-size="8.00">calculate_by_et</text>
<text text-anchor="end" x="2600.5" y="-799.65" font-family="Times,serif" font-size="8.00">0 (0.0%)</text>
<text text-anchor="end" x="2600.5" y="-789.9" font-family="Times,serif" font-size="8.00">of 497 (39.9%)</text>
</g>
<!-- N3&#45;&gt;N7 -->
<g id="edge5" class="edge">
<title>N3&#45;&gt;N7</title>
<path fill="none" stroke="black" stroke-width="2" d="M1935.72,-895.9C2050.61,-880.15 2405.72,-831.5 2531.03,-814.33"/>
<polygon fill="black" stroke="black" stroke-width="2" points="2529.65,-818.05 2539.08,-813.22 2528.7,-811.11 2529.65,-818.05"/>
<text text-anchor="middle" x="2287.97" y="-851.95" font-family="Times,serif" font-size="14.00">497</text>
</g>
<!-- N14 -->
<g id="node15" class="node">
<title>N14</title>
<polygon fill="none" stroke="black" points="1946.38,-765.75 1852.38,-765.75 1852.38,-718.75 1946.38,-718.75 1946.38,-765.75"/>
<text text-anchor="middle" x="1899.38" y="-754.15" font-family="Times,serif" font-size="8.00">void</text>
<text text-anchor="middle" x="1899.38" y="-744.4" font-family="Times,serif" font-size="8.00">calculate_by_expression</text>
<text text-anchor="end" x="1938.38" y="-734.65" font-family="Times,serif" font-size="8.00">0 (0.0%)</text>
<text text-anchor="end" x="1938.38" y="-724.9" font-family="Times,serif" font-size="8.00">of 134 (10.8%)</text>
</g>
<!-- N3&#45;&gt;N14 -->
<g id="edge11" class="edge">
<title>N3&#45;&gt;N14</title>
<path fill="none" stroke="black" d="M1899.38,-882.79C1899.38,-857.15 1899.38,-809.76 1899.38,-777.38"/>
<polygon fill="black" stroke="black" points="1902.88,-777.72 1899.38,-767.72 1895.88,-777.72 1902.88,-777.72"/>
<text text-anchor="middle" x="1909.5" y="-851.95" font-family="Times,serif" font-size="14.00">134</text>
</g>
<!-- N4 -->
<g id="node5" class="node">
<title>N4</title>
<polygon fill="none" stroke="black" points="1871,-660.25 1513.75,-660.25 1513.75,-623 1871,-623 1871,-660.25"/>
<text text-anchor="middle" x="1692.38" y="-648.65" font-family="Times,serif" font-size="8.00">__ZN23array_operator_overload9calculateITk9ArrayLikeNSt3__15arrayIdLm2000EEEEET_RKS4_S6_</text>
<text text-anchor="end" x="1863" y="-638.9" font-family="Times,serif" font-size="8.00">0 (0.0%)</text>
<text text-anchor="end" x="1863" y="-629.15" font-family="Times,serif" font-size="8.00">of 614 (49.3%)</text>
</g>
<!-- N9 -->
<g id="node10" class="node">
<title>N9</title>
<polygon fill="none" stroke="black" points="1789.25,-439.12 1241.5,-439.12 1241.5,-383.88 1789.25,-383.88 1789.25,-439.12"/>
<text text-anchor="middle" x="1515.38" y="-422.01" font-family="Times,serif" font-size="13.80">__ZN23array_operator_overloadmlITk9ArrayLikeNSt3__15arrayIdLm2000EEEEET_RKS4_S6_</text>
<text text-anchor="end" x="1781.25" y="-406.26" font-family="Times,serif" font-size="13.80">17 (1.4%)</text>
<text text-anchor="end" x="1781.25" y="-390.51" font-family="Times,serif" font-size="13.80">of 204 (16.4%)</text>
</g>
<!-- N4&#45;&gt;N9 -->
<g id="edge8" class="edge">
<title>N4&#45;&gt;N9</title>
<path fill="none" stroke="black" d="M1599.38,-622.54C1547.68,-607.22 1487.6,-579.49 1456.12,-530 1439.31,-503.56 1457.52,-471.72 1478.05,-447.86"/>
<polygon fill="black" stroke="black" points="1480.53,-450.34 1484.64,-440.58 1475.34,-445.64 1480.53,-450.34"/>
<text text-anchor="middle" x="1466.25" y="-506.32" font-family="Times,serif" font-size="14.00">204</text>
</g>
<!-- N10 -->
<g id="node11" class="node">
<title>N10</title>
<polygon fill="none" stroke="black" points="544.75,-440.25 0,-440.25 0,-382.75 544.75,-382.75 544.75,-440.25"/>
<text text-anchor="middle" x="272.38" y="-422.95" font-family="Times,serif" font-size="14.00">__ZN23array_operator_overloadplITk9ArrayLikeNSt3__15arrayIdLm2000EEEEET_RKS4_S6_</text>
<text text-anchor="end" x="536.75" y="-406.45" font-family="Times,serif" font-size="14.00">18 (1.4%)</text>
<text text-anchor="end" x="536.75" y="-389.95" font-family="Times,serif" font-size="14.00">of 201 (16.1%)</text>
</g>
<!-- N4&#45;&gt;N10 -->
<g id="edge9" class="edge">
<title>N4&#45;&gt;N10</title>
<path fill="none" stroke="black" d="M1521.22,-622.54C1347.58,-603.27 1071.33,-570.03 834.12,-530 686.39,-505.07 518.4,-468.89 404.92,-443.27"/>
<polygon fill="black" stroke="black" points="405.77,-439.88 395.24,-441.08 404.22,-446.7 405.77,-439.88"/>
<text text-anchor="middle" x="844.25" y="-506.32" font-family="Times,serif" font-size="14.00">201</text>
</g>
<!-- N15 -->
<g id="node16" class="node">
<title>N15</title>
<polygon fill="none" stroke="black" points="2446.25,-436.88 1838.5,-436.88 1838.5,-386.12 2446.25,-386.12 2446.25,-436.88"/>
<text text-anchor="middle" x="2142.38" y="-421.48" font-family="Times,serif" font-size="12.00">__ZN23array_operator_overloadmlIdTk9ArrayLikeNSt3__15arrayIdLm2000EEEQ6ItemOfIT_T0_EEES5_RKS4_RKS5_</text>
<text text-anchor="end" x="2438.25" y="-407.23" font-family="Times,serif" font-size="12.00">8 (0.6%)</text>
<text text-anchor="end" x="2438.25" y="-392.98" font-family="Times,serif" font-size="12.00">of 125 (10.0%)</text>
</g>
<!-- N4&#45;&gt;N15 -->
<g id="edge18" class="edge">
<title>N4&#45;&gt;N15</title>
<path fill="none" stroke="black" d="M1741.95,-622.62C1788.29,-604.17 1857.73,-572.23 1908.38,-530 1939.23,-504.27 1929.84,-480.39 1963.38,-458.25 1973.11,-451.82 1983.7,-446.3 1994.69,-441.55"/>
<polygon fill="black" stroke="black" points="1995.99,-444.8 2003.94,-437.8 1993.36,-438.31 1995.99,-444.8"/>
<text text-anchor="middle" x="1941.62" y="-506.32" font-family="Times,serif" font-size="14.00">70</text>
</g>
<!-- N16 -->
<g id="node17" class="node">
<title>N16</title>
<polygon fill="none" stroke="black" points="1275.38,-530 863.38,-530 863.38,-492.75 1275.38,-492.75 1275.38,-530"/>
<text text-anchor="middle" x="1069.38" y="-518.4" font-family="Times,serif" font-size="8.00">__ZN23array_operator_overloadplITk9ArrayLikeNSt3__15arrayIdLm2000EEEdQ6ItemOfIT0_T_EEES5_RKS5_RKS4_</text>
<text text-anchor="end" x="1267.38" y="-508.65" font-family="Times,serif" font-size="8.00">0 (0.0%)</text>
<text text-anchor="end" x="1267.38" y="-498.9" font-family="Times,serif" font-size="8.00">of 84 (6.7%)</text>
</g>
<!-- N4&#45;&gt;N16 -->
<g id="edge16" class="edge">
<title>N4&#45;&gt;N16</title>
<path fill="none" stroke="black" d="M1604.44,-622.52C1489.46,-598.85 1288.59,-557.5 1168.39,-532.76"/>
<polygon fill="black" stroke="black" points="1169.35,-529.38 1158.85,-530.79 1167.94,-536.24 1169.35,-529.38"/>
<text text-anchor="middle" x="1313.5" y="-551.2" font-family="Times,serif" font-size="14.00">84</text>
</g>
<!-- N18 -->
<g id="node19" class="node">
<title>N18</title>
<polygon fill="none" stroke="black" points="1899.5,-530 1485.25,-530 1485.25,-492.75 1899.5,-492.75 1899.5,-530"/>
<text text-anchor="middle" x="1692.38" y="-518.4" font-family="Times,serif" font-size="8.00">__ZN23array_operator_overloadmlITk9ArrayLikeNSt3__15arrayIdLm2000EEEdQ6ItemOfIT0_T_EEES5_RKS5_RKS4_</text>
<text text-anchor="end" x="1891.5" y="-508.65" font-family="Times,serif" font-size="8.00">0 (0.0%)</text>
<text text-anchor="end" x="1891.5" y="-498.9" font-family="Times,serif" font-size="8.00">of 55 (4.4%)</text>
</g>
<!-- N4&#45;&gt;N18 -->
<g id="edge22" class="edge">
<title>N4&#45;&gt;N18</title>
<path fill="none" stroke="black" d="M1692.38,-622.52C1692.38,-601.52 1692.38,-566.59 1692.38,-541.69"/>
<polygon fill="black" stroke="black" points="1695.88,-541.9 1692.38,-531.9 1688.88,-541.9 1695.88,-541.9"/>
<text text-anchor="middle" x="1699.12" y="-551.2" font-family="Times,serif" font-size="14.00">55</text>
</g>
<!-- N5&#45;&gt;N4 -->
<g id="edge4" class="edge">
<title>N5&#45;&gt;N4</title>
<path fill="none" stroke="black" stroke-width="2" d="M1769.86,-783.5C1753.63,-753.99 1725.33,-702.54 1707.79,-670.66"/>
<polygon fill="black" stroke="black" stroke-width="2" points="1711.64,-670.38 1703.75,-663.31 1705.5,-673.75 1711.64,-670.38"/>
<text text-anchor="middle" x="1768.36" y="-737.2" font-family="Times,serif" font-size="14.00">614</text>
</g>
<!-- N6 -->
<g id="node7" class="node">
<title>N6</title>
<polygon fill="none" stroke="black" points="3038.88,-330.25 2395.88,-330.25 2395.88,-93.5 3038.88,-93.5 3038.88,-330.25"/>
<text text-anchor="middle" x="2717.38" y="-287.77" font-family="Times,serif" font-size="40.50">std</text>
<text text-anchor="middle" x="2717.38" y="-242.03" font-family="Times,serif" font-size="40.50">__1</text>
<text text-anchor="middle" x="2717.38" y="-196.28" font-family="Times,serif" font-size="40.50">array</text>
<text text-anchor="middle" x="2717.38" y="-150.53" font-family="Times,serif" font-size="40.50">operator[][abi:ne190104]@10001cb54</text>
<text text-anchor="end" x="3030.88" y="-104.78" font-family="Times,serif" font-size="40.50">527 (42.3%)</text>
</g>
<!-- N8 -->
<g id="node9" class="node">
<title>N8</title>
<polygon fill="none" stroke="black" points="6897.25,-700.75 1927.5,-700.75 1927.5,-582.5 6897.25,-582.5 6897.25,-700.75"/>
<text text-anchor="middle" x="4412.38" y="-665.97" font-family="Times,serif" font-size="32.40">__ZN25array_expression_template14collect_resultITkNS_6IsExprENS_3AddINS1_INS1_INS1_INS1_INS1_INS1_INS1_INS1_INS_5ArrayINSt3__15arrayIdLm2000EEEEENS_8MultiplyIS6_S6_EEEENS_8VariableIdEEEESB_EES8_EESB_EENS7_INS7_INS7_INS7_ISB_S6_EESB_EESB_EES6_EEEENS7_IS8_S6_EEEES8_EESG_EETk9ArrayLikeS5_EEvRKT_PT0_</text>
<text text-anchor="end" x="6889.25" y="-629.22" font-family="Times,serif" font-size="32.40">297 (23.8%)</text>
<text text-anchor="end" x="6889.25" y="-592.47" font-family="Times,serif" font-size="32.40">of 496 (39.8%)</text>
</g>
<!-- N7&#45;&gt;N8 -->
<g id="edge6" class="edge">
<title>N7&#45;&gt;N8</title>
<path fill="none" stroke="black" stroke-width="2" d="M2608.83,-803.27C2747.23,-790.94 3289.09,-742.68 3743.07,-702.24"/>
<polygon fill="black" stroke="black" stroke-width="2" points="3741.79,-705.87 3751.44,-701.5 3741.17,-698.9 3741.79,-705.87"/>
<text text-anchor="middle" x="3559.08" y="-737.2" font-family="Times,serif" font-size="14.00">496</text>
</g>
<!-- N8&#45;&gt;N6 -->
<g id="edge10" class="edge">
<title>N8&#45;&gt;N6</title>
<path fill="none" stroke="black" d="M4302.74,-582.13C4171.43,-514.74 3943.02,-405.94 3734.38,-348.25 3510.7,-286.41 3251.28,-252.45 3050.43,-234.01"/>
<polygon fill="black" stroke="black" points="3050.89,-230.54 3040.61,-233.12 3050.25,-237.51 3050.89,-230.54"/>
<text text-anchor="middle" x="4086.12" y="-461.45" font-family="Times,serif" font-size="14.00">189</text>
</g>
<!-- N8&#45;&gt;N8 -->
<g id="edge7" class="edge">
<title>N8&#45;&gt;N8</title>
<path fill="none" stroke="black" stroke-width="1.39" d="M6897.74,-645.24C6909.23,-644.11 6915.25,-642.91 6915.25,-641.62 6915.25,-640.86 6913.13,-640.13 6909,-639.42"/>
<polygon fill="black" stroke="black" stroke-width="1.39" points="6910.18,-636.04 6899.82,-638.27 6909.31,-642.99 6910.18,-636.04"/>
<text text-anchor="middle" x="6925.38" y="-636.58" font-family="Times,serif" font-size="14.00">288</text>
</g>
<!-- N11 -->
<g id="node12" class="node">
<title>N11</title>
<polygon fill="none" stroke="black" points="1741.62,-296.5 1289.12,-296.5 1289.12,-127.25 1741.62,-127.25 1741.62,-296.5"/>
<text text-anchor="middle" x="1515.38" y="-265.9" font-family="Times,serif" font-size="28.00">std</text>
<text text-anchor="middle" x="1515.38" y="-233.65" font-family="Times,serif" font-size="28.00">__1</text>
<text text-anchor="middle" x="1515.38" y="-201.4" font-family="Times,serif" font-size="28.00">array</text>
<text text-anchor="middle" x="1515.38" y="-169.15" font-family="Times,serif" font-size="28.00">operator[][abi:ne190104]@10001c314</text>
<text text-anchor="end" x="1733.62" y="-136.9" font-family="Times,serif" font-size="28.00">199 (16.0%)</text>
</g>
<!-- N8&#45;&gt;N11 -->
<g id="edge34" class="edge">
<title>N8&#45;&gt;N11</title>
<path fill="none" stroke="black" d="M4150.34,-582.06C3822.75,-511.8 3243.89,-397.34 2741.38,-348.25 2584.58,-332.93 2544.24,-344.77 2387.38,-330.25 2172.01,-310.32 1928.13,-276.53 1753.16,-250.31"/>
<polygon fill="black" stroke="black" points="1753.9,-246.88 1743.5,-248.86 1752.86,-253.8 1753.9,-246.88"/>
<text text-anchor="middle" x="3610.77" y="-461.45" font-family="Times,serif" font-size="14.00">10</text>
</g>
<!-- N9&#45;&gt;N6 -->
<g id="edge14" class="edge">
<title>N9&#45;&gt;N6</title>
<path fill="none" stroke="black" d="M1789.36,-386.05C1802.89,-384.91 1816.28,-383.81 1829.38,-382.75 1938.2,-373.94 1966.46,-381.35 2074.38,-364.75 2176,-349.12 2285.29,-325.81 2384.42,-302.12"/>
<polygon fill="black" stroke="black" points="2385.15,-305.55 2394.06,-299.81 2383.52,-298.74 2385.15,-305.55"/>
<text text-anchor="middle" x="2169.65" y="-351.45" font-family="Times,serif" font-size="14.00">91</text>
</g>
<!-- N9&#45;&gt;N9 -->
<g id="edge33" class="edge">
<title>N9&#45;&gt;N9</title>
<path fill="none" stroke="black" d="M1789.74,-417.63C1800.83,-416.04 1807.25,-414 1807.25,-411.5 1807.25,-410.02 1804.99,-408.69 1800.83,-407.53"/>
<polygon fill="black" stroke="black" points="1801.71,-404.14 1791.22,-405.66 1800.37,-411.01 1801.71,-404.14"/>
<text text-anchor="middle" x="1814" y="-406.45" font-family="Times,serif" font-size="14.00">14</text>
</g>
<!-- N9&#45;&gt;N11 -->
<g id="edge20" class="edge">
<title>N9&#45;&gt;N11</title>
<path fill="none" stroke="black" d="M1515.38,-383.44C1515.38,-363.74 1515.38,-335.79 1515.38,-308.2"/>
<polygon fill="black" stroke="black" points="1518.88,-308.36 1515.38,-298.36 1511.88,-308.36 1518.88,-308.36"/>
<text text-anchor="middle" x="1522.12" y="-351.45" font-family="Times,serif" font-size="14.00">56</text>
</g>
<!-- N12 -->
<g id="node13" class="node">
<title>N12</title>
<polygon fill="none" stroke="black" points="1271.12,-287.12 1067.62,-287.12 1067.62,-136.62 1271.12,-136.62 1271.12,-287.12"/>
<text text-anchor="middle" x="1169.38" y="-259.75" font-family="Times,serif" font-size="24.60">std</text>
<text text-anchor="middle" x="1169.38" y="-231.25" font-family="Times,serif" font-size="24.60">__1</text>
<text text-anchor="middle" x="1169.38" y="-202.75" font-family="Times,serif" font-size="24.60">array</text>
<text text-anchor="middle" x="1169.38" y="-174.25" font-family="Times,serif" font-size="24.60">size[abi:ne190104]</text>
<text text-anchor="end" x="1263.12" y="-145.75" font-family="Times,serif" font-size="24.60">138 (11.1%)</text>
</g>
<!-- N9&#45;&gt;N12 -->
<g id="edge25" class="edge">
<title>N9&#45;&gt;N12</title>
<path fill="none" stroke="black" d="M1335.98,-383.41C1322.31,-378.22 1309.1,-372.07 1296.88,-364.75 1268.34,-347.67 1243.18,-321.85 1222.92,-296.32"/>
<polygon fill="black" stroke="black" points="1225.77,-294.28 1216.88,-288.51 1220.23,-298.57 1225.77,-294.28"/>
<text text-anchor="middle" x="1303.62" y="-351.45" font-family="Times,serif" font-size="14.00">35</text>
</g>
<!-- N19 -->
<g id="node20" class="node">
<title>N19</title>
<polygon fill="none" stroke="black" points="925,-245.12 867.75,-245.12 867.75,-178.62 925,-178.62 925,-245.12"/>
<text text-anchor="middle" x="896.38" y="-233.53" font-family="Times,serif" font-size="8.00">std</text>
<text text-anchor="middle" x="896.38" y="-223.78" font-family="Times,serif" font-size="8.00">__1</text>
<text text-anchor="middle" x="896.38" y="-214.03" font-family="Times,serif" font-size="8.00">array</text>
<text text-anchor="middle" x="896.38" y="-204.28" font-family="Times,serif" font-size="8.00">get_array</text>
<text text-anchor="end" x="917" y="-194.53" font-family="Times,serif" font-size="8.00">0 (0.0%)</text>
<text text-anchor="end" x="917" y="-184.78" font-family="Times,serif" font-size="8.00">of 24 (1.9%)</text>
</g>
<!-- N9&#45;&gt;N19 -->
<g id="edge42" class="edge">
<title>N9&#45;&gt;N19</title>
<path fill="none" stroke="black" d="M1241.29,-383.41C1145.38,-373.86 1060.87,-365.31 1059.62,-364.75 1005.32,-340.19 957.29,-290.25 927.63,-254.33"/>
<polygon fill="black" stroke="black" points="930.46,-252.26 921.44,-246.7 925.02,-256.67 930.46,-252.26"/>
<text text-anchor="middle" x="1063" y="-351.45" font-family="Times,serif" font-size="14.00">5</text>
</g>
<!-- N10&#45;&gt;N6 -->
<g id="edge17" class="edge">
<title>N10&#45;&gt;N6</title>
<path fill="none" stroke="black" d="M545,-385.1C558.65,-384.21 572.16,-383.42 585.38,-382.75 663.06,-378.81 1911.61,-389.43 1985.38,-364.75 1997.14,-360.82 1996.51,-353.2 2007.88,-348.25 2125.62,-296.98 2262.7,-265.07 2384.8,-245.23"/>
<polygon fill="black" stroke="black" points="2385,-248.74 2394.32,-243.71 2383.9,-241.83 2385,-248.74"/>
<text text-anchor="middle" x="2014.62" y="-351.45" font-family="Times,serif" font-size="14.00">84</text>
</g>
<!-- N10&#45;&gt;N10 -->
<g id="edge32" class="edge">
<title>N10&#45;&gt;N10</title>
<path fill="none" stroke="black" d="M544.97,-417.68C556.22,-416.09 562.75,-414.02 562.75,-411.5 562.75,-410 560.45,-408.67 556.23,-407.49"/>
<polygon fill="black" stroke="black" points="556.94,-404.07 546.46,-405.6 555.61,-410.94 556.94,-404.07"/>
<text text-anchor="middle" x="569.5" y="-406.45" font-family="Times,serif" font-size="14.00">17</text>
</g>
<!-- N10&#45;&gt;N11 -->
<g id="edge19" class="edge">
<title>N10&#45;&gt;N11</title>
<path fill="none" stroke="black" d="M545.01,-385.24C558.65,-384.32 572.17,-383.48 585.38,-382.75 631.04,-380.23 1368.01,-386.25 1408.38,-364.75 1422.44,-357.26 1441.59,-332.91 1459.81,-305.85"/>
<polygon fill="black" stroke="black" points="1462.5,-308.12 1465.11,-297.85 1456.67,-304.25 1462.5,-308.12"/>
<text text-anchor="middle" x="1432.15" y="-351.45" font-family="Times,serif" font-size="14.00">58</text>
</g>
<!-- N10&#45;&gt;N12 -->
<g id="edge27" class="edge">
<title>N10&#45;&gt;N12</title>
<path fill="none" stroke="black" d="M545.02,-385.49C558.66,-384.5 572.17,-383.58 585.38,-382.75 638.75,-379.39 1019.6,-390.68 1066.38,-364.75 1081.65,-356.28 1102.74,-327.2 1121.86,-296.72"/>
<polygon fill="black" stroke="black" points="1124.64,-298.87 1126.92,-288.53 1118.69,-295.19 1124.64,-298.87"/>
<text text-anchor="middle" x="1089.7" y="-351.45" font-family="Times,serif" font-size="14.00">33</text>
</g>
<!-- N10&#45;&gt;N19 -->
<g id="edge37" class="edge">
<title>N10&#45;&gt;N19</title>
<path fill="none" stroke="black" d="M361.45,-382.29C499.09,-338.7 757.89,-256.73 856.68,-225.45"/>
<polygon fill="black" stroke="black" points="857.45,-228.87 865.93,-222.52 855.34,-222.2 857.45,-228.87"/>
<text text-anchor="middle" x="460.13" y="-351.45" font-family="Times,serif" font-size="14.00">8</text>
</g>
<!-- N13 -->
<g id="node14" class="node">
<title>N13</title>
<polygon fill="none" stroke="black" points="2945.88,-436.88 2488.88,-436.88 2488.88,-386.12 2945.88,-386.12 2945.88,-436.88"/>
<text text-anchor="middle" x="2717.38" y="-421.48" font-family="Times,serif" font-size="12.00">__Z23calculate_by_expressionITk9ArrayLikeNSt3__15arrayIdLm2000EEEET_RKS3_S5_</text>
<text text-anchor="end" x="2937.88" y="-407.23" font-family="Times,serif" font-size="12.00">8 (0.6%)</text>
<text text-anchor="end" x="2937.88" y="-392.98" font-family="Times,serif" font-size="12.00">of 134 (10.8%)</text>
</g>
<!-- N13&#45;&gt;N6 -->
<g id="edge13" class="edge">
<title>N13&#45;&gt;N6</title>
<path fill="none" stroke="black" d="M2717.38,-385.87C2717.38,-373.82 2717.38,-358.29 2717.38,-341.5"/>
<polygon fill="black" stroke="black" points="2720.88,-341.83 2717.38,-331.83 2713.88,-341.83 2720.88,-341.83"/>
<text text-anchor="middle" x="2727.5" y="-351.45" font-family="Times,serif" font-size="14.00">108</text>
</g>
<!-- N13&#45;&gt;N11 -->
<g id="edge36" class="edge">
<title>N13&#45;&gt;N11</title>
<path fill="none" stroke="black" d="M2514.18,-385.63C2502.75,-384.56 2491.42,-383.59 2480.38,-382.75 2369.13,-374.26 2088.47,-384.32 1978.62,-364.75 1899.24,-350.61 1814.79,-325.96 1740.03,-300.58"/>
<polygon fill="black" stroke="black" points="1741.57,-297.41 1730.98,-297.48 1739.31,-304.03 1741.57,-297.41"/>
<text text-anchor="middle" x="1982" y="-351.45" font-family="Times,serif" font-size="14.00">9</text>
</g>
<!-- N13&#45;&gt;N12 -->
<g id="edge35" class="edge">
<title>N13&#45;&gt;N12</title>
<path fill="none" stroke="black" d="M2515.15,-385.65C2503.39,-384.57 2491.74,-383.59 2480.38,-382.75 2352.27,-373.27 2029.06,-387.39 1902.62,-364.75 1879.9,-360.68 1876.1,-352.32 1853.38,-348.25 1790.68,-337.01 1338.48,-356.36 1280.38,-330.25 1262.24,-322.1 1245.64,-309.47 1231.12,-295.46"/>
<polygon fill="black" stroke="black" points="1233.86,-293.25 1224.33,-288.63 1228.9,-298.19 1233.86,-293.25"/>
<text text-anchor="middle" x="1906" y="-351.45" font-family="Times,serif" font-size="14.00">9</text>
</g>
<!-- N13&#45;&gt;N13 -->
<g id="edge38" class="edge">
<title>N13&#45;&gt;N13</title>
<path fill="none" stroke="black" d="M2946.26,-418.08C2957.35,-416.43 2963.88,-414.24 2963.88,-411.5 2963.88,-409.87 2961.58,-408.44 2957.39,-407.2"/>
<polygon fill="black" stroke="black" points="2958.24,-403.8 2947.74,-405.22 2956.84,-410.66 2958.24,-403.8"/>
<text text-anchor="middle" x="2967.25" y="-406.45" font-family="Times,serif" font-size="14.00">7</text>
</g>
<!-- N14&#45;&gt;N13 -->
<g id="edge12" class="edge">
<title>N14&#45;&gt;N13</title>
<path fill="none" stroke="black" d="M1894.68,-718.48C1889.08,-684.3 1884.31,-619.8 1918.38,-582.5 1960.2,-536.71 2317.91,-474.12 2540.29,-439.07"/>
<polygon fill="black" stroke="black" points="2540.61,-442.57 2549.94,-437.56 2539.52,-435.65 2540.61,-442.57"/>
<text text-anchor="middle" x="2000.14" y="-551.2" font-family="Times,serif" font-size="14.00">134</text>
</g>
<!-- N15&#45;&gt;N6 -->
<g id="edge24" class="edge">
<title>N15&#45;&gt;N6</title>
<path fill="none" stroke="black" d="M2214.62,-385.67C2259.4,-370.28 2320.5,-349.28 2384.67,-327.22"/>
<polygon fill="black" stroke="black" points="2385.67,-330.58 2393.99,-324.02 2383.39,-323.96 2385.67,-330.58"/>
<text text-anchor="middle" x="2319.03" y="-351.45" font-family="Times,serif" font-size="14.00">37</text>
</g>
<!-- N15&#45;&gt;N11 -->
<g id="edge26" class="edge">
<title>N15&#45;&gt;N11</title>
<path fill="none" stroke="black" d="M1926.66,-385.67C1897.2,-380.03 1867.58,-373.14 1839.88,-364.75 1786.68,-348.65 1731.1,-325.29 1681.26,-301.7"/>
<polygon fill="black" stroke="black" points="1682.95,-298.62 1672.41,-297.47 1679.93,-304.94 1682.95,-298.62"/>
<text text-anchor="middle" x="1846.62" y="-351.45" font-family="Times,serif" font-size="14.00">35</text>
</g>
<!-- N15&#45;&gt;N12 -->
<g id="edge23" class="edge">
<title>N15&#45;&gt;N12</title>
<path fill="none" stroke="black" d="M1870.99,-385.65C1856.92,-384.61 1842.98,-383.63 1829.38,-382.75 1636.51,-370.21 1585.18,-398.54 1394.88,-364.75 1371.21,-360.55 1366.38,-355.22 1343.38,-348.25 1315.51,-339.81 1305.26,-345.37 1280.38,-330.25 1264.64,-320.7 1249.69,-308.33 1236.13,-295.22"/>
<polygon fill="black" stroke="black" points="1238.95,-293.08 1229.4,-288.49 1234,-298.03 1238.95,-293.08"/>
<text text-anchor="middle" x="1401.62" y="-351.45" font-family="Times,serif" font-size="14.00">39</text>
</g>
<!-- N15&#45;&gt;N15 -->
<g id="edge39" class="edge">
<title>N15&#45;&gt;N15</title>
<path fill="none" stroke="black" d="M2446.49,-417.42C2457.77,-415.86 2464.25,-413.89 2464.25,-411.5 2464.25,-410.08 2461.96,-408.81 2457.75,-407.68"/>
<polygon fill="black" stroke="black" points="2458.45,-404.25 2447.98,-405.85 2457.16,-411.13 2458.45,-404.25"/>
<text text-anchor="middle" x="2467.62" y="-406.45" font-family="Times,serif" font-size="14.00">6</text>
</g>
<!-- N15&#45;&gt;N19 -->
<g id="edge40" class="edge">
<title>N15&#45;&gt;N19</title>
<path fill="none" stroke="black" d="M1871.84,-385.63C1857.48,-384.59 1843.26,-383.62 1829.38,-382.75 1774.58,-379.32 1387.95,-381.37 1335.62,-364.75 1322.85,-360.69 1323.08,-352.53 1310.38,-348.25 1203.97,-312.39 1163.89,-368.66 1058.38,-330.25 1010.5,-312.82 964.29,-276.82 933.56,-249.26"/>
<polygon fill="black" stroke="black" points="936.18,-246.91 926.44,-242.75 931.46,-252.08 936.18,-246.91"/>
<text text-anchor="middle" x="1339" y="-351.45" font-family="Times,serif" font-size="14.00">6</text>
</g>
<!-- N17 -->
<g id="node18" class="node">
<title>N17</title>
<polygon fill="none" stroke="black" points="1198.75,-436.88 594,-436.88 594,-386.12 1198.75,-386.12 1198.75,-436.88"/>
<text text-anchor="middle" x="896.38" y="-421.48" font-family="Times,serif" font-size="12.00">__ZN23array_operator_overloadplIdTk9ArrayLikeNSt3__15arrayIdLm2000EEEQ6ItemOfIT_T0_EEES5_RKS4_RKS5_</text>
<text text-anchor="end" x="1190.75" y="-407.23" font-family="Times,serif" font-size="12.00">8 (0.6%)</text>
<text text-anchor="end" x="1190.75" y="-392.98" font-family="Times,serif" font-size="12.00">of 84 (6.7%)</text>
</g>
<!-- N16&#45;&gt;N17 -->
<g id="edge15" class="edge">
<title>N16&#45;&gt;N17</title>
<path fill="none" stroke="black" d="M1037.64,-492.42C1013.21,-478.6 978.88,-459.18 950.17,-442.94"/>
<polygon fill="black" stroke="black" points="952.03,-439.96 941.6,-438.09 948.58,-446.06 952.03,-439.96"/>
<text text-anchor="middle" x="1010.21" y="-461.45" font-family="Times,serif" font-size="14.00">84</text>
</g>
<!-- N17&#45;&gt;N6 -->
<g id="edge31" class="edge">
<title>N17&#45;&gt;N6</title>
<path fill="none" stroke="black" d="M1183.61,-385.63C1200.1,-384.56 1216.45,-383.59 1232.38,-382.75 1320.39,-378.12 1940.04,-386.78 2025.38,-364.75 2040.68,-360.8 2041.99,-353.56 2056.88,-348.25 2160.97,-311.15 2278.12,-283.01 2384.53,-262.25"/>
<polygon fill="black" stroke="black" points="2385.15,-265.7 2394.31,-260.37 2383.82,-258.83 2385.15,-265.7"/>
<text text-anchor="middle" x="2063.62" y="-351.45" font-family="Times,serif" font-size="14.00">18</text>
</g>
<!-- N17&#45;&gt;N11 -->
<g id="edge28" class="edge">
<title>N17&#45;&gt;N11</title>
<path fill="none" stroke="black" d="M1197.11,-385.63C1325.86,-374.96 1447.19,-364.88 1447.38,-364.75 1467.22,-350.69 1481.36,-329.46 1491.41,-307.29"/>
<polygon fill="black" stroke="black" points="1494.62,-308.68 1495.3,-298.11 1488.18,-305.96 1494.62,-308.68"/>
<text text-anchor="middle" x="1470.69" y="-351.45" font-family="Times,serif" font-size="14.00">31</text>
</g>
<!-- N17&#45;&gt;N12 -->
<g id="edge29" class="edge">
<title>N17&#45;&gt;N12</title>
<path fill="none" stroke="black" d="M1053.77,-385.65C1076.65,-379.74 1095.74,-372.77 1105.38,-364.75 1125.97,-347.62 1140.06,-322.71 1149.65,-297.99"/>
<polygon fill="black" stroke="black" points="1152.85,-299.45 1152.98,-288.86 1146.27,-297.06 1152.85,-299.45"/>
<text text-anchor="middle" x="1127.6" y="-351.45" font-family="Times,serif" font-size="14.00">22</text>
</g>
<!-- N17&#45;&gt;N17 -->
<g id="edge41" class="edge">
<title>N17&#45;&gt;N17</title>
<path fill="none" stroke="black" d="M1199.07,-417.42C1210.3,-415.86 1216.75,-413.89 1216.75,-411.5 1216.75,-410.08 1214.47,-408.81 1210.28,-407.68"/>
<polygon fill="black" stroke="black" points="1211.03,-404.26 1200.56,-405.86 1209.74,-411.14 1211.03,-404.26"/>
<text text-anchor="middle" x="1220.12" y="-406.45" font-family="Times,serif" font-size="14.00">5</text>
</g>
<!-- N17&#45;&gt;N19 -->
<g id="edge43" class="edge">
<title>N17&#45;&gt;N19</title>
<path fill="none" stroke="black" d="M896.38,-385.87C896.38,-353.64 896.38,-296.59 896.38,-256.85"/>
<polygon fill="black" stroke="black" points="899.88,-256.89 896.38,-246.89 892.88,-256.89 899.88,-256.89"/>
<text text-anchor="middle" x="899.75" y="-351.45" font-family="Times,serif" font-size="14.00">5</text>
</g>
<!-- N18&#45;&gt;N15 -->
<g id="edge21" class="edge">
<title>N18&#45;&gt;N15</title>
<path fill="none" stroke="black" d="M1763.53,-492.32C1805.44,-481.89 1859.55,-468.8 1907.88,-458.25 1937.11,-451.87 1968.49,-445.45 1998.48,-439.52"/>
<polygon fill="black" stroke="black" points="1998.84,-443.02 2007.98,-437.65 1997.49,-436.15 1998.84,-443.02"/>
<text text-anchor="middle" x="1914.62" y="-461.45" font-family="Times,serif" font-size="14.00">55</text>
</g>
<!-- N20 -->
<g id="node21" class="node">
<title>N20</title>
<polygon fill="none" stroke="black" points="970.38,-41 822.38,-41 822.38,0 970.38,0 970.38,-41"/>
<text text-anchor="middle" x="896.38" y="-23.41" font-family="Times,serif" font-size="14.30">0x000000019da0b80c</text>
<text text-anchor="end" x="962.38" y="-6.91" font-family="Times,serif" font-size="14.30">20 (1.6%)</text>
</g>
<!-- N19&#45;&gt;N20 -->
<g id="edge30" class="edge">
<title>N19&#45;&gt;N20</title>
<path fill="none" stroke="black" d="M896.38,-178.32C896.38,-143.13 896.38,-87.44 896.38,-52.76"/>
<polygon fill="black" stroke="black" points="899.88,-52.95 896.38,-42.95 892.88,-52.95 899.88,-52.95"/>
<text text-anchor="middle" x="903.12" y="-62.2" font-family="Times,serif" font-size="14.00">20</text>
</g>
</g>
</g></svg>
