<?xml version="1.0" encoding="UTF-8" standalone="no"?>
<!DOCTYPE svg PUBLIC "-//W3C//DTD SVG 1.1//EN"
 "http://www.w3.org/Graphics/SVG/1.1/DTD/svg11.dtd">
<!-- Generated by graphviz version 12.2.0 (20241103.1931)
 -->
<!-- Title: /Users/xuechengyun/code/cpp/learning_more_cpp_idioms/build/output/test/expression_template_array_profile_clang++; 1209 samples Pages: 1 -->
<svg width="100%" height="100%"
  xmlns="http://www.w3.org/2000/svg" xmlns:xlink="http://www.w3.org/1999/xlink">
<script type="text/ecmascript"><![CDATA[
// SVGPan
// http://www.cyberz.org/blog/2009/12/08/svgpan-a-javascript-svg-panzoomdrag-library/
// Local modification: if(true || ...) below to force panning, never moving.

/**
 *  SVGPan library 1.2
 * ====================
 *
 * Given an unique existing element with id "viewport", including the
 * the library into any SVG adds the following capabilities:
 *
 *  - Mouse panning
 *  - Mouse zooming (using the wheel)
 *  - Object dargging
 *
 * Known issues:
 *
 *  - Zooming (while panning) on Safari has still some issues
 *
 * Releases:
 *
 * 1.2, Sat Mar 20 08:42:50 GMT 2010, Zeng Xiaohui
 *	Fixed a bug with browser mouse handler interaction
 *
 * 1.1, Wed Feb  3 17:39:33 GMT 2010, Zeng Xiaohui
 *	Updated the zoom code to support the mouse wheel on Safari/Chrome
 *
 * 1.0, Andrea Leofreddi
 *	First release
 *
 * This code is licensed under the following BSD license:
 *
 * Copyright 2009-2010 Andrea Leofreddi <a.leofreddi@itcharm.com>. All rights reserved.
 *
 * Redistribution and use in source and binary forms, with or without modification, are
 * permitted provided that the following conditions are met:
 *
 *    1. Redistributions of source code must retain the above copyright notice, this list of
 *       conditions and the following disclaimer.
 *
 *    2. Redistributions in binary form must reproduce the above copyright notice, this list
 *       of conditions and the following disclaimer in the documentation and/or other materials
 *       provided with the distribution.
 *
 * THIS SOFTWARE IS PROVIDED BY Andrea Leofreddi ``AS IS'' AND ANY EXPRESS OR IMPLIED
 * WARRANTIES, INCLUDING, BUT NOT LIMITED TO, THE IMPLIED WARRANTIES OF MERCHANTABILITY AND
 * FITNESS FOR A PARTICULAR PURPOSE ARE DISCLAIMED. IN NO EVENT SHALL Andrea Leofreddi OR
 * CONTRIBUTORS BE LIABLE FOR ANY DIRECT, INDIRECT, INCIDENTAL, SPECIAL, EXEMPLARY, OR
 * CONSEQUENTIAL DAMAGES (INCLUDING, BUT NOT LIMITED TO, PROCUREMENT OF SUBSTITUTE GOODS OR
 * SERVICES; LOSS OF USE, DATA, OR PROFITS; OR BUSINESS INTERRUPTION) HOWEVER CAUSED AND ON
 * ANY THEORY OF LIABILITY, WHETHER IN CONTRACT, STRICT LIABILITY, OR TORT (INCLUDING
 * NEGLIGENCE OR OTHERWISE) ARISING IN ANY WAY OUT OF THE USE OF THIS SOFTWARE, EVEN IF
 * ADVISED OF THE POSSIBILITY OF SUCH DAMAGE.
 *
 * The views and conclusions contained in the software and documentation are those of the
 * authors and should not be interpreted as representing official policies, either expressed
 * or implied, of Andrea Leofreddi.
 */

var root = document.documentElement;

var state = 'none', stateTarget, stateOrigin, stateTf;

setupHandlers(root);

/**
 * Register handlers
 */
function setupHandlers(root){
	setAttributes(root, {
		"onmouseup" : "add(evt)",
		"onmousedown" : "handleMouseDown(evt)",
		"onmousemove" : "handleMouseMove(evt)",
		"onmouseup" : "handleMouseUp(evt)",
		//"onmouseout" : "handleMouseUp(evt)", // Decomment this to stop the pan functionality when dragging out of the SVG element
	});

	if(navigator.userAgent.toLowerCase().indexOf('webkit') >= 0)
		window.addEventListener('mousewheel', handleMouseWheel, false); // Chrome/Safari
	else
		window.addEventListener('DOMMouseScroll', handleMouseWheel, false); // Others

	var g = svgDoc.getElementById("svg");
	g.width = "100%";
	g.height = "100%";
}

/**
 * Instance an SVGPoint object with given event coordinates.
 */
function getEventPoint(evt) {
	var p = root.createSVGPoint();

	p.x = evt.clientX;
	p.y = evt.clientY;

	return p;
}

/**
 * Sets the current transform matrix of an element.
 */
function setCTM(element, matrix) {
	var s = "matrix(" + matrix.a + "," + matrix.b + "," + matrix.c + "," + matrix.d + "," + matrix.e + "," + matrix.f + ")";

	element.setAttribute("transform", s);
}

/**
 * Dumps a matrix to a string (useful for debug).
 */
function dumpMatrix(matrix) {
	var s = "[ " + matrix.a + ", " + matrix.c + ", " + matrix.e + "\n  " + matrix.b + ", " + matrix.d + ", " + matrix.f + "\n  0, 0, 1 ]";

	return s;
}

/**
 * Sets attributes of an element.
 */
function setAttributes(element, attributes){
	for (i in attributes)
		element.setAttributeNS(null, i, attributes[i]);
}

/**
 * Handle mouse move event.
 */
function handleMouseWheel(evt) {
	if(evt.preventDefault)
		evt.preventDefault();

	evt.returnValue = false;

	var svgDoc = evt.target.ownerDocument;

	var delta;

	if(evt.wheelDelta)
		delta = evt.wheelDelta / 3600; // Chrome/Safari
	else
		delta = evt.detail / -90; // Mozilla

	var z = 1 + delta; // Zoom factor: 0.9/1.1

	var g = svgDoc.getElementById("viewport");

	var p = getEventPoint(evt);

	p = p.matrixTransform(g.getCTM().inverse());

	// Compute new scale matrix in current mouse position
	var k = root.createSVGMatrix().translate(p.x, p.y).scale(z).translate(-p.x, -p.y);

        setCTM(g, g.getCTM().multiply(k));

	stateTf = stateTf.multiply(k.inverse());
}

/**
 * Handle mouse move event.
 */
function handleMouseMove(evt) {
	if(evt.preventDefault)
		evt.preventDefault();

	evt.returnValue = false;

	var svgDoc = evt.target.ownerDocument;

	var g = svgDoc.getElementById("viewport");

	if(state == 'pan') {
		// Pan mode
		var p = getEventPoint(evt).matrixTransform(stateTf);

		setCTM(g, stateTf.inverse().translate(p.x - stateOrigin.x, p.y - stateOrigin.y));
	} else if(state == 'move') {
		// Move mode
		var p = getEventPoint(evt).matrixTransform(g.getCTM().inverse());

		setCTM(stateTarget, root.createSVGMatrix().translate(p.x - stateOrigin.x, p.y - stateOrigin.y).multiply(g.getCTM().inverse()).multiply(stateTarget.getCTM()));

		stateOrigin = p;
	}
}

/**
 * Handle click event.
 */
function handleMouseDown(evt) {
	if(evt.preventDefault)
		evt.preventDefault();

	evt.returnValue = false;

	var svgDoc = evt.target.ownerDocument;

	var g = svgDoc.getElementById("viewport");

	if(true || evt.target.tagName == "svg") {
		// Pan mode
		state = 'pan';

		stateTf = g.getCTM().inverse();

		stateOrigin = getEventPoint(evt).matrixTransform(stateTf);
	} else {
		// Move mode
		state = 'move';

		stateTarget = evt.target;

		stateTf = g.getCTM().inverse();

		stateOrigin = getEventPoint(evt).matrixTransform(stateTf);
	}
}

/**
 * Handle mouse button release event.
 */
function handleMouseUp(evt) {
	if(evt.preventDefault)
		evt.preventDefault();

	evt.returnValue = false;

	var svgDoc = evt.target.ownerDocument;

	if(state == 'pan' || state == 'move') {
		// Quit pan mode
		state = '';
	}
}

]]></script>
<g id="viewport" transform="translate(0,0)">
<g id="viewport" class="graph" transform="scale(1 1) rotate(0) translate(4 1183.75)">
<title>/Users/xuechengyun/code/cpp/learning_more_cpp_idioms/build/output/test/expression_template_array_profile_clang++; 1209 samples</title>
<polygon fill="white" stroke="none" points="-4,4 -4,-1183.75 6063.75,-1183.75 6063.75,4 -4,4"/>
<!-- Legend -->
<g id="node1" class="node">
<title>Legend</title>
<text text-anchor="start" x="1820.62" y="-1152.95" font-family="Times,serif" font-size="24.00">/Users/xuechengyun/code/cpp/learning_more_cpp_idioms/build/output/test/expression_template_array_profile_clang++</text>
<text text-anchor="start" x="1820.62" y="-1125.95" font-family="Times,serif" font-size="24.00">Total samples: 1209</text>
<text text-anchor="start" x="1820.62" y="-1098.95" font-family="Times,serif" font-size="24.00">Focusing on: 1209</text>
<text text-anchor="start" x="1820.62" y="-1071.95" font-family="Times,serif" font-size="24.00">Dropped nodes with &lt;= 6 abs(samples)</text>
<text text-anchor="start" x="1820.62" y="-1044.95" font-family="Times,serif" font-size="24.00">Dropped edges with &lt;= 1 samples</text>
</g>
<!-- N1 -->
<g id="node2" class="node">
<title>N1</title>
<polygon fill="none" stroke="black" points="3084.88,-1126.88 3001.38,-1126.88 3001.38,-1089.62 3084.88,-1089.62 3084.88,-1126.88"/>
<text text-anchor="middle" x="3043.12" y="-1115.28" font-family="Times,serif" font-size="8.00">0x0000000187538273</text>
<text text-anchor="end" x="3076.88" y="-1105.53" font-family="Times,serif" font-size="8.00">0 (0.0%)</text>
<text text-anchor="end" x="3076.88" y="-1095.78" font-family="Times,serif" font-size="8.00">of 1209 (100.0%)</text>
</g>
<!-- N2 -->
<g id="node3" class="node">
<title>N2</title>
<polygon fill="none" stroke="black" points="3079.25,-984.25 3007,-984.25 3007,-947 3079.25,-947 3079.25,-984.25"/>
<text text-anchor="middle" x="3043.12" y="-972.65" font-family="Times,serif" font-size="8.00">_main</text>
<text text-anchor="end" x="3071.25" y="-962.9" font-family="Times,serif" font-size="8.00">0 (0.0%)</text>
<text text-anchor="end" x="3071.25" y="-953.15" font-family="Times,serif" font-size="8.00">of 1209 (100.0%)</text>
</g>
<!-- N1&#45;&gt;N2 -->
<g id="edge1" class="edge">
<title>N1&#45;&gt;N2</title>
<path fill="none" stroke="black" stroke-width="2" d="M3043.12,-1089.15C3043.12,-1065.63 3043.12,-1024.25 3043.12,-996.15"/>
<polygon fill="black" stroke="black" stroke-width="2" points="3046.63,-997.68 3043.13,-987.68 3039.63,-997.68 3046.63,-997.68"/>
<text text-anchor="middle" x="3056.62" y="-1005.45" font-family="Times,serif" font-size="14.00">1209</text>
</g>
<!-- N3 -->
<g id="node4" class="node">
<title>N3</title>
<polygon fill="none" stroke="black" points="3079.25,-894.5 3007,-894.5 3007,-857.25 3079.25,-857.25 3079.25,-894.5"/>
<text text-anchor="middle" x="3043.12" y="-882.9" font-family="Times,serif" font-size="8.00">run</text>
<text text-anchor="end" x="3071.25" y="-873.15" font-family="Times,serif" font-size="8.00">0 (0.0%)</text>
<text text-anchor="end" x="3071.25" y="-863.4" font-family="Times,serif" font-size="8.00">of 1209 (100.0%)</text>
</g>
<!-- N2&#45;&gt;N3 -->
<g id="edge2" class="edge">
<title>N2&#45;&gt;N3</title>
<path fill="none" stroke="black" stroke-width="2" d="M3043.12,-946.87C3043.12,-935.17 3043.12,-919.58 3043.12,-906.08"/>
<polygon fill="black" stroke="black" stroke-width="2" points="3046.63,-907.93 3043.13,-897.93 3039.63,-907.93 3046.63,-907.93"/>
<text text-anchor="middle" x="3056.62" y="-915.7" font-family="Times,serif" font-size="14.00">1209</text>
</g>
<!-- N5 -->
<g id="node6" class="node">
<title>N5</title>
<polygon fill="none" stroke="black" points="4495.5,-804.75 4376.75,-804.75 4376.75,-757.75 4495.5,-757.75 4495.5,-804.75"/>
<text text-anchor="middle" x="4436.12" y="-793.15" font-family="Times,serif" font-size="8.00">void</text>
<text text-anchor="middle" x="4436.12" y="-783.4" font-family="Times,serif" font-size="8.00">calculate_by_operator_overload</text>
<text text-anchor="end" x="4487.5" y="-773.65" font-family="Times,serif" font-size="8.00">0 (0.0%)</text>
<text text-anchor="end" x="4487.5" y="-763.9" font-family="Times,serif" font-size="8.00">of 590 (48.8%)</text>
</g>
<!-- N3&#45;&gt;N5 -->
<g id="edge4" class="edge">
<title>N3&#45;&gt;N5</title>
<path fill="none" stroke="black" stroke-width="2" d="M3079.67,-872.45C3266.22,-860.04 4113.3,-803.72 4365.24,-786.96"/>
<polygon fill="black" stroke="black" stroke-width="2" points="4363.66,-790.58 4373.41,-786.42 4363.2,-783.59 4363.66,-790.58"/>
<text text-anchor="middle" x="3833.15" y="-825.95" font-family="Times,serif" font-size="14.00">590</text>
</g>
<!-- N8 -->
<g id="node9" class="node">
<title>N8</title>
<polygon fill="none" stroke="black" points="3076.25,-804.75 3010,-804.75 3010,-757.75 3076.25,-757.75 3076.25,-804.75"/>
<text text-anchor="middle" x="3043.12" y="-793.15" font-family="Times,serif" font-size="8.00">void</text>
<text text-anchor="middle" x="3043.12" y="-783.4" font-family="Times,serif" font-size="8.00">calculate_by_et</text>
<text text-anchor="end" x="3068.25" y="-773.65" font-family="Times,serif" font-size="8.00">0 (0.0%)</text>
<text text-anchor="end" x="3068.25" y="-763.9" font-family="Times,serif" font-size="8.00">of 491 (40.6%)</text>
</g>
<!-- N3&#45;&gt;N8 -->
<g id="edge6" class="edge">
<title>N3&#45;&gt;N8</title>
<path fill="none" stroke="black" stroke-width="2" d="M3043.12,-857.02C3043.12,-845.43 3043.12,-829.98 3043.12,-816.12"/>
<polygon fill="black" stroke="black" stroke-width="2" points="3046.63,-818.01 3043.13,-808.01 3039.63,-818.01 3046.63,-818.01"/>
<text text-anchor="middle" x="3053.25" y="-825.95" font-family="Times,serif" font-size="14.00">491</text>
</g>
<!-- N13 -->
<g id="node14" class="node">
<title>N13</title>
<polygon fill="none" stroke="black" points="1344.12,-804.75 1250.12,-804.75 1250.12,-757.75 1344.12,-757.75 1344.12,-804.75"/>
<text text-anchor="middle" x="1297.12" y="-793.15" font-family="Times,serif" font-size="8.00">void</text>
<text text-anchor="middle" x="1297.12" y="-783.4" font-family="Times,serif" font-size="8.00">calculate_by_expression</text>
<text text-anchor="end" x="1336.12" y="-773.65" font-family="Times,serif" font-size="8.00">0 (0.0%)</text>
<text text-anchor="end" x="1336.12" y="-763.9" font-family="Times,serif" font-size="8.00">of 126 (10.4%)</text>
</g>
<!-- N3&#45;&gt;N13 -->
<g id="edge11" class="edge">
<title>N3&#45;&gt;N13</title>
<path fill="none" stroke="black" d="M3006.66,-872.94C2786.03,-861.24 1630,-799.91 1355.59,-785.35"/>
<polygon fill="black" stroke="black" points="1356,-781.87 1345.83,-784.83 1355.63,-788.86 1356,-781.87"/>
<text text-anchor="middle" x="2336.64" y="-825.95" font-family="Times,serif" font-size="14.00">126</text>
</g>
<!-- N4 -->
<g id="node5" class="node">
<title>N4</title>
<polygon fill="none" stroke="black" points="5897.75,-665.88 5540.5,-665.88 5540.5,-628.62 5897.75,-628.62 5897.75,-665.88"/>
<text text-anchor="middle" x="5719.12" y="-654.27" font-family="Times,serif" font-size="8.00">__ZN23array_operator_overload9calculateITk9ArrayLikeNSt3__15arrayIdLm2000EEEEET_RKS4_S6_</text>
<text text-anchor="end" x="5889.75" y="-644.52" font-family="Times,serif" font-size="8.00">0 (0.0%)</text>
<text text-anchor="end" x="5889.75" y="-634.77" font-family="Times,serif" font-size="8.00">of 590 (48.8%)</text>
</g>
<!-- N9 -->
<g id="node10" class="node">
<title>N9</title>
<polygon fill="none" stroke="black" points="5360.25,-447 4700,-447 4700,-382.75 5360.25,-382.75 5360.25,-447"/>
<text text-anchor="middle" x="5030.12" y="-427.7" font-family="Times,serif" font-size="16.10">__ZN23array_operator_overloadmlITk9ArrayLikeNSt3__15arrayIdLm2000EEEEET_RKS4_S6_</text>
<text text-anchor="end" x="5352.25" y="-408.95" font-family="Times,serif" font-size="16.10">32 (2.6%)</text>
<text text-anchor="end" x="5352.25" y="-390.2" font-family="Times,serif" font-size="16.10">of 211 (17.5%)</text>
</g>
<!-- N4&#45;&gt;N9 -->
<g id="edge8" class="edge">
<title>N4&#45;&gt;N9</title>
<path fill="none" stroke="black" stroke-width="1.05" d="M5665.06,-628.17C5550.98,-590.03 5283.91,-500.73 5135.05,-450.96"/>
<polygon fill="black" stroke="black" stroke-width="1.05" points="5136.64,-447.8 5126.05,-447.95 5134.42,-454.44 5136.64,-447.8"/>
<text text-anchor="middle" x="5396.23" y="-513.08" font-family="Times,serif" font-size="14.00">211</text>
</g>
<!-- N11 -->
<g id="node12" class="node">
<title>N11</title>
<polygon fill="none" stroke="black" points="6028.25,-445.88 5410,-445.88 5410,-383.88 6028.25,-383.88 6028.25,-445.88"/>
<text text-anchor="middle" x="5719.12" y="-426.96" font-family="Times,serif" font-size="15.70">__ZN23array_operator_overloadplITk9ArrayLikeNSt3__15arrayIdLm2000EEEEET_RKS4_S6_</text>
<text text-anchor="end" x="6020.25" y="-408.96" font-family="Times,serif" font-size="15.70">29 (2.4%)</text>
<text text-anchor="end" x="6020.25" y="-390.96" font-family="Times,serif" font-size="15.70">of 207 (17.1%)</text>
</g>
<!-- N4&#45;&gt;N11 -->
<g id="edge9" class="edge">
<title>N4&#45;&gt;N11</title>
<path fill="none" stroke="black" stroke-width="1.03" d="M5719.12,-628.17C5719.12,-591.66 5719.12,-508.3 5719.12,-457.58"/>
<polygon fill="black" stroke="black" stroke-width="1.03" points="5722.63,-457.91 5719.13,-447.91 5715.63,-457.91 5722.63,-457.91"/>
<text text-anchor="middle" x="5729.25" y="-513.08" font-family="Times,serif" font-size="14.00">207</text>
</g>
<!-- N14 -->
<g id="node15" class="node">
<title>N14</title>
<polygon fill="none" stroke="black" points="3947.75,-443.62 3212.5,-443.62 3212.5,-386.12 3947.75,-386.12 3947.75,-443.62"/>
<text text-anchor="middle" x="3580.12" y="-426.04" font-family="Times,serif" font-size="14.30">__ZN23array_operator_overloadmlIdTk9ArrayLikeNSt3__15arrayIdLm2000EEEQ6ItemOfIT_T0_EEES5_RKS4_RKS5_</text>
<text text-anchor="end" x="3939.75" y="-409.54" font-family="Times,serif" font-size="14.30">19 (1.6%)</text>
<text text-anchor="end" x="3939.75" y="-393.04" font-family="Times,serif" font-size="14.30">of 106 (8.8%)</text>
</g>
<!-- N4&#45;&gt;N14 -->
<g id="edge20" class="edge">
<title>N4&#45;&gt;N14</title>
<path fill="none" stroke="black" d="M5672.31,-628.13C5634.98,-614.63 5581.03,-597.21 5532.12,-589.25 5385.56,-565.39 5012.53,-576.55 4864.12,-571.25 4519.34,-558.94 4430.31,-584.52 4088.62,-536.75 3947.29,-516.99 3787.7,-475.89 3685.62,-447.13"/>
<polygon fill="black" stroke="black" points="3686.73,-443.8 3676.15,-444.44 3684.82,-450.54 3686.73,-443.8"/>
<text text-anchor="middle" x="4095.38" y="-513.08" font-family="Times,serif" font-size="14.00">53</text>
</g>
<!-- N16 -->
<g id="node17" class="node">
<title>N16</title>
<polygon fill="none" stroke="black" points="5032.12,-536.75 4620.12,-536.75 4620.12,-499.5 5032.12,-499.5 5032.12,-536.75"/>
<text text-anchor="middle" x="4826.12" y="-525.15" font-family="Times,serif" font-size="8.00">__ZN23array_operator_overloadplITk9ArrayLikeNSt3__15arrayIdLm2000EEEdQ6ItemOfIT0_T_EEES5_RKS5_RKS4_</text>
<text text-anchor="end" x="5024.12" y="-515.4" font-family="Times,serif" font-size="8.00">0 (0.0%)</text>
<text text-anchor="end" x="5024.12" y="-505.65" font-family="Times,serif" font-size="8.00">of 66 (5.5%)</text>
</g>
<!-- N4&#45;&gt;N16 -->
<g id="edge17" class="edge">
<title>N4&#45;&gt;N16</title>
<path fill="none" stroke="black" d="M5670.23,-628.23C5632.92,-615.24 5579.95,-598.45 5532.12,-589.25 5438.61,-571.27 5413.42,-580.26 5318.62,-571.25 5212.83,-561.19 5094.39,-548.7 5000.17,-538.46"/>
<polygon fill="black" stroke="black" points="5000.63,-534.99 4990.31,-537.39 4999.87,-541.95 5000.63,-534.99"/>
<text text-anchor="middle" x="5325.38" y="-557.95" font-family="Times,serif" font-size="14.00">66</text>
</g>
<!-- N18 -->
<g id="node19" class="node">
<title>N18</title>
<polygon fill="none" stroke="black" points="4525.25,-536.75 4111,-536.75 4111,-499.5 4525.25,-499.5 4525.25,-536.75"/>
<text text-anchor="middle" x="4318.12" y="-525.15" font-family="Times,serif" font-size="8.00">__ZN23array_operator_overloadmlITk9ArrayLikeNSt3__15arrayIdLm2000EEEdQ6ItemOfIT0_T_EEES5_RKS5_RKS4_</text>
<text text-anchor="end" x="4517.25" y="-515.4" font-family="Times,serif" font-size="8.00">0 (0.0%)</text>
<text text-anchor="end" x="4517.25" y="-505.65" font-family="Times,serif" font-size="8.00">of 53 (4.4%)</text>
</g>
<!-- N4&#45;&gt;N18 -->
<g id="edge21" class="edge">
<title>N4&#45;&gt;N18</title>
<path fill="none" stroke="black" d="M5671.88,-628.25C5634.54,-614.91 5580.79,-597.64 5532.12,-589.25 5359.6,-559.49 5313.44,-580.8 5138.62,-571.25 4934.52,-560.1 4702,-545.11 4536.74,-534.07"/>
<polygon fill="black" stroke="black" points="4537.17,-530.59 4526.96,-533.42 4536.71,-537.58 4537.17,-530.59"/>
<text text-anchor="middle" x="5145.38" y="-557.95" font-family="Times,serif" font-size="14.00">53</text>
</g>
<!-- N5&#45;&gt;N4 -->
<g id="edge3" class="edge">
<title>N5&#45;&gt;N4</title>
<path fill="none" stroke="black" stroke-width="2" d="M4495.82,-780.9C4661.71,-781.71 5141.75,-777.13 5532.12,-705.25 5575.87,-697.19 5623.84,-682.45 5660.24,-669.97"/>
<polygon fill="black" stroke="black" stroke-width="2" points="5659.51,-673.93 5667.81,-667.34 5657.21,-667.32 5659.51,-673.93"/>
<text text-anchor="middle" x="5424.79" y="-726.45" font-family="Times,serif" font-size="14.00">590</text>
</g>
<!-- N6 -->
<g id="node7" class="node">
<title>N6</title>
<polygon fill="none" stroke="black" points="3901.62,-330.25 3258.62,-330.25 3258.62,-93.5 3901.62,-93.5 3901.62,-330.25"/>
<text text-anchor="middle" x="3580.12" y="-287.77" font-family="Times,serif" font-size="40.50">std</text>
<text text-anchor="middle" x="3580.12" y="-242.03" font-family="Times,serif" font-size="40.50">__1</text>
<text text-anchor="middle" x="3580.12" y="-196.28" font-family="Times,serif" font-size="40.50">array</text>
<text text-anchor="middle" x="3580.12" y="-150.53" font-family="Times,serif" font-size="40.50">operator[][abi:ne190104]@10001cb54</text>
<text text-anchor="end" x="3893.62" y="-104.78" font-family="Times,serif" font-size="40.50">511 (42.3%)</text>
</g>
<!-- N7 -->
<g id="node8" class="node">
<title>N7</title>
<polygon fill="none" stroke="black" points="5484.5,-705.25 601.75,-705.25 601.75,-589.25 5484.5,-589.25 5484.5,-705.25"/>
<text text-anchor="middle" x="3043.12" y="-670.95" font-family="Times,serif" font-size="31.90">__ZN25array_expression_template14collect_resultITkNS_6IsExprENS_3AddINS1_INS1_INS1_INS1_INS1_INS1_INS1_INS1_INS_5ArrayINSt3__15arrayIdLm2000EEEEENS_8MultiplyIS6_S6_EEEENS_8VariableIdEEEESB_EES8_EESB_EENS7_INS7_INS7_INS7_ISB_S6_EESB_EESB_EES6_EEEENS7_IS8_S6_EEEES8_EESG_EETk9ArrayLikeS5_EEvRKT_PT0_</text>
<text text-anchor="end" x="5476.5" y="-634.95" font-family="Times,serif" font-size="31.90">276 (22.8%)</text>
<text text-anchor="end" x="5476.5" y="-598.95" font-family="Times,serif" font-size="31.90">of 491 (40.6%)</text>
</g>
<!-- N7&#45;&gt;N6 -->
<g id="edge10" class="edge">
<title>N7&#45;&gt;N6</title>
<path fill="none" stroke="black" d="M3124.15,-589C3129.61,-583.38 3134.69,-577.44 3139.12,-571.25 3190.62,-499.3 3143.69,-448.29 3203.12,-382.75 3218.25,-366.07 3235.33,-350.92 3253.66,-337.19"/>
<polygon fill="black" stroke="black" points="3255.51,-340.17 3261.53,-331.45 3251.39,-334.52 3255.51,-340.17"/>
<text text-anchor="middle" x="3178.91" y="-468.2" font-family="Times,serif" font-size="14.00">194</text>
</g>
<!-- N7&#45;&gt;N7 -->
<g id="edge7" class="edge">
<title>N7&#45;&gt;N7</title>
<path fill="none" stroke="black" stroke-width="1.33" d="M5484.74,-650.87C5496.39,-649.74 5502.5,-648.54 5502.5,-647.25 5502.5,-646.49 5500.35,-645.75 5496.16,-645.04"/>
<polygon fill="black" stroke="black" stroke-width="1.33" points="5497.09,-641.63 5486.73,-643.88 5496.23,-648.58 5497.09,-641.63"/>
<text text-anchor="middle" x="5512.62" y="-642.2" font-family="Times,serif" font-size="14.00">268</text>
</g>
<!-- N10 -->
<g id="node11" class="node">
<title>N10</title>
<polygon fill="none" stroke="black" points="3240.12,-298.38 2780.12,-298.38 2780.12,-125.38 3240.12,-125.38 3240.12,-298.38"/>
<text text-anchor="middle" x="3010.12" y="-267.11" font-family="Times,serif" font-size="28.70">std</text>
<text text-anchor="middle" x="3010.12" y="-234.11" font-family="Times,serif" font-size="28.70">__1</text>
<text text-anchor="middle" x="3010.12" y="-201.11" font-family="Times,serif" font-size="28.70">array</text>
<text text-anchor="middle" x="3010.12" y="-168.11" font-family="Times,serif" font-size="28.70">operator[][abi:ne190104]@10001c314</text>
<text text-anchor="end" x="3232.12" y="-135.11" font-family="Times,serif" font-size="28.70">208 (17.2%)</text>
</g>
<!-- N7&#45;&gt;N10 -->
<g id="edge27" class="edge">
<title>N7&#45;&gt;N10</title>
<path fill="none" stroke="black" d="M3111.77,-589.07C3115.83,-583.43 3119.37,-577.48 3122.12,-571.25 3141.25,-528.06 3145.12,-507.31 3124.12,-465 3091.38,-399.01 3024.87,-430.74 2992.12,-364.75 2983.78,-347.93 2981.42,-328.81 2982.37,-309.95"/>
<polygon fill="black" stroke="black" points="2985.85,-310.34 2983.2,-300.09 2978.87,-309.76 2985.85,-310.34"/>
<text text-anchor="middle" x="3138.19" y="-468.2" font-family="Times,serif" font-size="14.00">21</text>
</g>
<!-- N8&#45;&gt;N7 -->
<g id="edge5" class="edge">
<title>N8&#45;&gt;N7</title>
<path fill="none" stroke="black" stroke-width="2" d="M3043.12,-757.26C3043.12,-745.84 3043.12,-731.38 3043.12,-716.75"/>
<polygon fill="black" stroke="black" stroke-width="2" points="3046.63,-718.61 3043.13,-708.61 3039.63,-718.61 3046.63,-718.61"/>
<text text-anchor="middle" x="3053.25" y="-726.45" font-family="Times,serif" font-size="14.00">491</text>
</g>
<!-- N9&#45;&gt;N6 -->
<g id="edge15" class="edge">
<title>N9&#45;&gt;N6</title>
<path fill="none" stroke="black" d="M4725.94,-382.28C4677.62,-376.76 4628.23,-370.83 4581.62,-364.75 4358.29,-335.6 4107.75,-297.6 3913.12,-266.91"/>
<polygon fill="black" stroke="black" points="3913.77,-263.46 3903.35,-265.36 3912.68,-270.38 3913.77,-263.46"/>
<text text-anchor="middle" x="4588.38" y="-351.45" font-family="Times,serif" font-size="14.00">91</text>
</g>
<!-- N9&#45;&gt;N9 -->
<g id="edge24" class="edge">
<title>N9&#45;&gt;N9</title>
<path fill="none" stroke="black" d="M5360.65,-420.94C5371.85,-419.32 5378.25,-417.3 5378.25,-414.88 5378.25,-413.44 5375.99,-412.14 5371.82,-410.98"/>
<polygon fill="black" stroke="black" points="5372.62,-407.58 5362.14,-409.1 5371.29,-414.45 5372.62,-407.58"/>
<text text-anchor="middle" x="5385" y="-409.82" font-family="Times,serif" font-size="14.00">28</text>
</g>
<!-- N9&#45;&gt;N10 -->
<g id="edge22" class="edge">
<title>N9&#45;&gt;N10</title>
<path fill="none" stroke="black" d="M4699.57,-383.22C4696.74,-383.06 4693.93,-382.9 4691.12,-382.75 4190.23,-355.8 4063.25,-396.31 3562.62,-364.75 3423.17,-355.96 3384.32,-369.19 3250.12,-330.25 3225.76,-323.18 3200.86,-313.78 3176.75,-303.36"/>
<polygon fill="black" stroke="black" points="3178.42,-300.27 3167.86,-299.44 3175.6,-306.67 3178.42,-300.27"/>
<text text-anchor="middle" x="3569.38" y="-351.45" font-family="Times,serif" font-size="14.00">52</text>
</g>
<!-- N15 -->
<g id="node16" class="node">
<title>N15</title>
<polygon fill="none" stroke="black" points="4983,-274 4807.25,-274 4807.25,-149.75 4983,-149.75 4983,-274"/>
<text text-anchor="middle" x="4895.12" y="-250.53" font-family="Times,serif" font-size="20.50">std</text>
<text text-anchor="middle" x="4895.12" y="-227.28" font-family="Times,serif" font-size="20.50">__1</text>
<text text-anchor="middle" x="4895.12" y="-204.03" font-family="Times,serif" font-size="20.50">array</text>
<text text-anchor="middle" x="4895.12" y="-180.78" font-family="Times,serif" font-size="20.50">size[abi:ne190104]</text>
<text text-anchor="end" x="4975" y="-157.53" font-family="Times,serif" font-size="20.50">75 (6.2%)</text>
</g>
<!-- N9&#45;&gt;N15 -->
<g id="edge25" class="edge">
<title>N9&#45;&gt;N15</title>
<path fill="none" stroke="black" d="M4914.6,-382.25C4908.15,-377.25 4902.37,-371.46 4897.62,-364.75 4881.69,-342.25 4878.36,-312.79 4879.99,-285.81"/>
<polygon fill="black" stroke="black" points="4883.47,-286.2 4880.84,-275.94 4876.49,-285.6 4883.47,-286.2"/>
<text text-anchor="middle" x="4904.38" y="-351.45" font-family="Times,serif" font-size="14.00">27</text>
</g>
<!-- N19 -->
<g id="node20" class="node">
<title>N19</title>
<polygon fill="none" stroke="black" points="5058.75,-245.12 5001.5,-245.12 5001.5,-178.62 5058.75,-178.62 5058.75,-245.12"/>
<text text-anchor="middle" x="5030.12" y="-233.53" font-family="Times,serif" font-size="8.00">std</text>
<text text-anchor="middle" x="5030.12" y="-223.78" font-family="Times,serif" font-size="8.00">__1</text>
<text text-anchor="middle" x="5030.12" y="-214.03" font-family="Times,serif" font-size="8.00">array</text>
<text text-anchor="middle" x="5030.12" y="-204.28" font-family="Times,serif" font-size="8.00">get_array</text>
<text text-anchor="end" x="5050.75" y="-194.53" font-family="Times,serif" font-size="8.00">0 (0.0%)</text>
<text text-anchor="end" x="5050.75" y="-184.78" font-family="Times,serif" font-size="8.00">of 27 (2.2%)</text>
</g>
<!-- N9&#45;&gt;N19 -->
<g id="edge37" class="edge">
<title>N9&#45;&gt;N19</title>
<path fill="none" stroke="black" d="M5030.12,-382.47C5030.12,-348.65 5030.12,-294.59 5030.12,-256.62"/>
<polygon fill="black" stroke="black" points="5033.63,-256.91 5030.13,-246.91 5026.63,-256.91 5033.63,-256.91"/>
<text text-anchor="middle" x="5033.5" y="-351.45" font-family="Times,serif" font-size="14.00">9</text>
</g>
<!-- N11&#45;&gt;N6 -->
<g id="edge14" class="edge">
<title>N11&#45;&gt;N6</title>
<path fill="none" stroke="black" d="M5410.3,-383.39C5407.23,-383.17 5404.17,-382.96 5401.12,-382.75 5348.93,-379.2 4979.4,-383.68 4930.62,-364.75 4920.04,-360.64 4921.57,-352.69 4911.12,-348.25 4888.24,-338.52 4299.95,-281.19 3913.23,-244.33"/>
<polygon fill="black" stroke="black" points="3913.64,-240.85 3903.35,-243.38 3912.98,-247.82 3913.64,-240.85"/>
<text text-anchor="middle" x="4937.38" y="-351.45" font-family="Times,serif" font-size="14.00">92</text>
</g>
<!-- N11&#45;&gt;N10 -->
<g id="edge18" class="edge">
<title>N11&#45;&gt;N10</title>
<path fill="none" stroke="black" d="M5411.57,-383.4C5408.07,-383.18 5404.59,-382.96 5401.12,-382.75 5314.2,-377.51 4700.07,-392.79 4617.62,-364.75 4605.88,-360.76 4606.88,-352.19 4595.12,-348.25 4524.26,-324.53 3322.82,-347.59 3250.12,-330.25 3223.64,-323.93 3196.68,-314.34 3170.85,-303.31"/>
<polygon fill="black" stroke="black" points="3172.59,-300.24 3162.02,-299.45 3169.78,-306.66 3172.59,-300.24"/>
<text text-anchor="middle" x="4624.38" y="-351.45" font-family="Times,serif" font-size="14.00">60</text>
</g>
<!-- N11&#45;&gt;N11 -->
<g id="edge28" class="edge">
<title>N11&#45;&gt;N11</title>
<path fill="none" stroke="black" d="M6028.58,-421.11C6039.81,-419.46 6046.25,-417.38 6046.25,-414.88 6046.25,-413.39 6043.98,-412.05 6039.78,-410.86"/>
<polygon fill="black" stroke="black" points="6040.56,-407.45 6030.07,-408.94 6039.2,-414.31 6040.56,-407.45"/>
<text text-anchor="middle" x="6053" y="-409.82" font-family="Times,serif" font-size="14.00">21</text>
</g>
<!-- N11&#45;&gt;N15 -->
<g id="edge31" class="edge">
<title>N11&#45;&gt;N15</title>
<path fill="none" stroke="black" d="M5409.64,-383.54C5220.57,-364.13 5011.36,-340.69 4992.12,-330.25 4971.46,-319.03 4953.45,-301.44 4938.73,-283.26"/>
<polygon fill="black" stroke="black" points="4941.61,-281.25 4932.71,-275.5 4936.08,-285.55 4941.61,-281.25"/>
<text text-anchor="middle" x="5229.5" y="-351.45" font-family="Times,serif" font-size="14.00">19</text>
</g>
<!-- N11&#45;&gt;N19 -->
<g id="edge40" class="edge">
<title>N11&#45;&gt;N19</title>
<path fill="none" stroke="black" d="M5614.85,-383.46C5459.66,-338.18 5174.95,-255.12 5070.18,-224.56"/>
<polygon fill="black" stroke="black" points="5071.21,-221.21 5060.63,-221.77 5069.25,-227.93 5071.21,-221.21"/>
<text text-anchor="middle" x="5537.72" y="-351.45" font-family="Times,serif" font-size="14.00">7</text>
</g>
<!-- N12 -->
<g id="node13" class="node">
<title>N12</title>
<polygon fill="none" stroke="black" points="552.25,-676 0,-676 0,-618.5 552.25,-618.5 552.25,-676"/>
<text text-anchor="middle" x="276.12" y="-658.42" font-family="Times,serif" font-size="14.30">__Z23calculate_by_expressionITk9ArrayLikeNSt3__15arrayIdLm2000EEEET_RKS3_S5_</text>
<text text-anchor="end" x="544.25" y="-641.92" font-family="Times,serif" font-size="14.30">19 (1.6%)</text>
<text text-anchor="end" x="544.25" y="-625.42" font-family="Times,serif" font-size="14.30">of 126 (10.4%)</text>
</g>
<!-- N12&#45;&gt;N6 -->
<g id="edge13" class="edge">
<title>N12&#45;&gt;N6</title>
<path fill="none" stroke="black" d="M417.73,-618.03C472.37,-607.86 535.49,-597 593.12,-589.25 731.38,-570.65 2956.28,-386.19 3094.12,-364.75 3144.38,-356.94 3196.59,-344.96 3247.34,-331.09"/>
<polygon fill="black" stroke="black" points="3247.99,-334.55 3256.69,-328.51 3246.12,-327.8 3247.99,-334.55"/>
<text text-anchor="middle" x="1986.61" y="-468.2" font-family="Times,serif" font-size="14.00">99</text>
</g>
<!-- N12&#45;&gt;N10 -->
<g id="edge41" class="edge">
<title>N12&#45;&gt;N10</title>
<path fill="none" stroke="black" d="M428.77,-618.06C480.86,-608.63 539.49,-598.25 593.12,-589.25 1388.32,-455.86 2333.47,-313.3 2768.75,-248.55"/>
<polygon fill="black" stroke="black" points="2769.01,-252.05 2778.39,-247.11 2767.98,-245.12 2769.01,-252.05"/>
<text text-anchor="middle" x="1336.79" y="-468.2" font-family="Times,serif" font-size="14.00">7</text>
</g>
<!-- N12&#45;&gt;N12 -->
<g id="edge30" class="edge">
<title>N12&#45;&gt;N12</title>
<path fill="none" stroke="black" d="M552.6,-656.64C563.78,-654.21 570.25,-651.08 570.25,-647.25 570.25,-644.92 567.85,-642.85 563.44,-641.03"/>
<polygon fill="black" stroke="black" points="564.64,-637.73 554.06,-638.28 562.67,-644.45 564.64,-637.73"/>
<text text-anchor="middle" x="577" y="-642.2" font-family="Times,serif" font-size="14.00">19</text>
</g>
<!-- N13&#45;&gt;N12 -->
<g id="edge12" class="edge">
<title>N13&#45;&gt;N12</title>
<path fill="none" stroke="black" d="M1250.02,-776.41C1136.61,-766.9 839.52,-740.48 593.12,-705.25 540.39,-697.71 483.01,-687.89 431.74,-678.53"/>
<polygon fill="black" stroke="black" points="432.52,-675.11 422.05,-676.75 431.25,-682 432.52,-675.11"/>
<text text-anchor="middle" x="873.56" y="-726.45" font-family="Times,serif" font-size="14.00">126</text>
</g>
<!-- N14&#45;&gt;N6 -->
<g id="edge29" class="edge">
<title>N14&#45;&gt;N6</title>
<path fill="none" stroke="black" d="M3580.12,-385.93C3580.12,-373.74 3580.12,-358.52 3580.12,-342.18"/>
<polygon fill="black" stroke="black" points="3583.63,-342.23 3580.13,-332.23 3576.63,-342.23 3583.63,-342.23"/>
<text text-anchor="middle" x="3586.88" y="-351.45" font-family="Times,serif" font-size="14.00">21</text>
</g>
<!-- N14&#45;&gt;N10 -->
<g id="edge23" class="edge">
<title>N14&#45;&gt;N10</title>
<path fill="none" stroke="black" d="M3212.29,-387.06C3103.08,-378.22 3010.94,-369.45 3006.62,-364.75 2992.93,-349.83 2987.77,-330.2 2987.25,-310.03"/>
<polygon fill="black" stroke="black" points="2990.74,-310.35 2987.39,-300.3 2983.74,-310.25 2990.74,-310.35"/>
<text text-anchor="middle" x="3013.38" y="-351.45" font-family="Times,serif" font-size="14.00">43</text>
</g>
<!-- N14&#45;&gt;N14 -->
<g id="edge34" class="edge">
<title>N14&#45;&gt;N14</title>
<path fill="none" stroke="black" d="M3947.97,-420.71C3959.32,-419.13 3965.75,-417.18 3965.75,-414.88 3965.75,-413.5 3963.48,-412.26 3959.26,-411.15"/>
<polygon fill="black" stroke="black" points="3959.93,-407.71 3949.46,-409.32 3958.65,-414.59 3959.93,-407.71"/>
<text text-anchor="middle" x="3972.5" y="-409.82" font-family="Times,serif" font-size="14.00">15</text>
</g>
<!-- N14&#45;&gt;N15 -->
<g id="edge33" class="edge">
<title>N14&#45;&gt;N15</title>
<path fill="none" stroke="black" d="M3937.19,-385.63C3954.4,-384.59 3971.45,-383.62 3988.12,-382.75 4059.94,-379.01 4565.97,-384.5 4635.12,-364.75 4695.8,-347.42 4757.06,-312.67 4804.86,-280.78"/>
<polygon fill="black" stroke="black" points="4806.66,-283.79 4812.98,-275.29 4802.74,-277.99 4806.66,-283.79"/>
<text text-anchor="middle" x="4688.08" y="-351.45" font-family="Times,serif" font-size="14.00">16</text>
</g>
<!-- N14&#45;&gt;N19 -->
<g id="edge42" class="edge">
<title>N14&#45;&gt;N19</title>
<path fill="none" stroke="black" d="M3933.88,-385.64C3952.22,-384.57 3970.39,-383.59 3988.12,-382.75 4041.41,-380.22 4897.87,-382.63 4948.12,-364.75 4953.98,-362.67 4988.57,-335.34 4992.12,-330.25 5007.4,-308.37 5016.81,-279.98 5022.44,-256.6"/>
<polygon fill="black" stroke="black" points="5025.81,-257.58 5024.58,-247.05 5018.98,-256.05 5025.81,-257.58"/>
<text text-anchor="middle" x="4974.36" y="-351.45" font-family="Times,serif" font-size="14.00">7</text>
</g>
<!-- N17 -->
<g id="node18" class="node">
<title>N17</title>
<polygon fill="none" stroke="black" points="4657.25,-441.38 3997,-441.38 3997,-388.38 4657.25,-388.38 4657.25,-441.38"/>
<text text-anchor="middle" x="4327.12" y="-425.21" font-family="Times,serif" font-size="12.80">__ZN23array_operator_overloadplIdTk9ArrayLikeNSt3__15arrayIdLm2000EEEQ6ItemOfIT_T0_EEES5_RKS4_RKS5_</text>
<text text-anchor="end" x="4649.25" y="-410.21" font-family="Times,serif" font-size="12.80">11 (0.9%)</text>
<text text-anchor="end" x="4649.25" y="-395.21" font-family="Times,serif" font-size="12.80">of 66 (5.5%)</text>
</g>
<!-- N16&#45;&gt;N17 -->
<g id="edge16" class="edge">
<title>N16&#45;&gt;N17</title>
<path fill="none" stroke="black" d="M4736.91,-499.02C4661.72,-483.77 4552.83,-461.67 4466.2,-444.09"/>
<polygon fill="black" stroke="black" points="4466.92,-440.67 4456.42,-442.11 4465.53,-447.53 4466.92,-440.67"/>
<text text-anchor="middle" x="4657.23" y="-468.2" font-family="Times,serif" font-size="14.00">66</text>
</g>
<!-- N17&#45;&gt;N6 -->
<g id="edge35" class="edge">
<title>N17&#45;&gt;N6</title>
<path fill="none" stroke="black" d="M4230.62,-387.91C4149.44,-366.06 4028.4,-333.5 3912.68,-302.36"/>
<polygon fill="black" stroke="black" points="3913.88,-299.06 3903.32,-299.84 3912.06,-305.82 3913.88,-299.06"/>
<text text-anchor="middle" x="4133.54" y="-351.45" font-family="Times,serif" font-size="14.00">14</text>
</g>
<!-- N17&#45;&gt;N10 -->
<g id="edge26" class="edge">
<title>N17&#45;&gt;N10</title>
<path fill="none" stroke="black" d="M4064.92,-387.9C4038.99,-385.9 4013.06,-384.13 3988.12,-382.75 3961.92,-381.3 3063.92,-381.38 3043.62,-364.75 3026.82,-350.98 3017.27,-330.86 3012.07,-309.74"/>
<polygon fill="black" stroke="black" points="3015.53,-309.18 3010.05,-300.12 3008.68,-310.62 3015.53,-309.18"/>
<text text-anchor="middle" x="3050.38" y="-351.45" font-family="Times,serif" font-size="14.00">25</text>
</g>
<!-- N17&#45;&gt;N15 -->
<g id="edge36" class="edge">
<title>N17&#45;&gt;N15</title>
<path fill="none" stroke="black" d="M4634.1,-387.89C4699.61,-380.6 4753.62,-372.54 4768.12,-364.75 4802.84,-346.11 4831.93,-313.71 4853.48,-283.61"/>
<polygon fill="black" stroke="black" points="4856.21,-285.81 4859.05,-275.6 4850.47,-281.81 4856.21,-285.81"/>
<text text-anchor="middle" x="4797.27" y="-351.45" font-family="Times,serif" font-size="14.00">13</text>
</g>
<!-- N17&#45;&gt;N17 -->
<g id="edge39" class="edge">
<title>N17&#45;&gt;N17</title>
<path fill="none" stroke="black" d="M4657.65,-420.94C4668.85,-419.32 4675.25,-417.3 4675.25,-414.88 4675.25,-413.44 4672.99,-412.14 4668.82,-410.98"/>
<polygon fill="black" stroke="black" points="4669.62,-407.58 4659.14,-409.1 4668.29,-414.45 4669.62,-407.58"/>
<text text-anchor="middle" x="4678.62" y="-409.82" font-family="Times,serif" font-size="14.00">8</text>
</g>
<!-- N17&#45;&gt;N19 -->
<g id="edge43" class="edge">
<title>N17&#45;&gt;N19</title>
<path fill="none" stroke="black" d="M4624.56,-387.89C4647.08,-386.09 4669.46,-384.36 4691.12,-382.75 4722.99,-380.39 4952.19,-383.42 4978.12,-364.75 5012.21,-340.21 5024.18,-291.94 5028.27,-256.37"/>
<polygon fill="black" stroke="black" points="5031.71,-257.12 5029.19,-246.83 5024.75,-256.44 5031.71,-257.12"/>
<text text-anchor="middle" x="4997.03" y="-351.45" font-family="Times,serif" font-size="14.00">3</text>
</g>
<!-- N18&#45;&gt;N14 -->
<g id="edge19" class="edge">
<title>N18&#45;&gt;N14</title>
<path fill="none" stroke="black" d="M4187.37,-499.05C4114.58,-489 4022.33,-476.28 3940.12,-465 3894.27,-458.71 3845.14,-451.99 3798.36,-445.6"/>
<polygon fill="black" stroke="black" points="3799.04,-442.16 3788.66,-444.28 3798.09,-449.1 3799.04,-442.16"/>
<text text-anchor="middle" x="4061.18" y="-468.2" font-family="Times,serif" font-size="14.00">53</text>
</g>
<!-- N20 -->
<g id="node21" class="node">
<title>N20</title>
<polygon fill="none" stroke="black" points="5097,-41 4963.25,-41 4963.25,0 5097,0 5097,-41"/>
<text text-anchor="middle" x="5030.12" y="-23.8" font-family="Times,serif" font-size="13.90">0x00000001878ef80c</text>
<text text-anchor="end" x="5089" y="-7.3" font-family="Times,serif" font-size="13.90">17 (1.4%)</text>
</g>
<!-- N19&#45;&gt;N20 -->
<g id="edge32" class="edge">
<title>N19&#45;&gt;N20</title>
<path fill="none" stroke="black" d="M5030.12,-178.32C5030.12,-143.13 5030.12,-87.44 5030.12,-52.76"/>
<polygon fill="black" stroke="black" points="5033.63,-52.95 5030.13,-42.95 5026.63,-52.95 5033.63,-52.95"/>
<text text-anchor="middle" x="5036.88" y="-62.2" font-family="Times,serif" font-size="14.00">17</text>
</g>
<!-- N21 -->
<g id="node22" class="node">
<title>N21</title>
<polygon fill="none" stroke="black" points="5235.62,-38.75 5114.62,-38.75 5114.62,-2.25 5235.62,-2.25 5235.62,-38.75"/>
<text text-anchor="middle" x="5175.12" y="-23.25" font-family="Times,serif" font-size="12.10">0x00000001878ef810</text>
<text text-anchor="end" x="5227.62" y="-9" font-family="Times,serif" font-size="12.10">8 (0.7%)</text>
</g>
<!-- N19&#45;&gt;N21 -->
<g id="edge38" class="edge">
<title>N19&#45;&gt;N21</title>
<path fill="none" stroke="black" d="M5055.05,-178.32C5083.32,-141.39 5128.88,-81.9 5155,-47.79"/>
<polygon fill="black" stroke="black" points="5157.59,-50.15 5160.9,-40.08 5152.04,-45.9 5157.59,-50.15"/>
<text text-anchor="middle" x="5147.18" y="-62.2" font-family="Times,serif" font-size="14.00">8</text>
</g>
</g>
</g></svg>
