<?xml version="1.0" encoding="UTF-8" standalone="no"?>
<!DOCTYPE svg PUBLIC "-//W3C//DTD SVG 1.1//EN"
 "http://www.w3.org/Graphics/SVG/1.1/DTD/svg11.dtd">
<!-- Generated by graphviz version 12.2.0 (20241103.1931)
 -->
<!-- Title: /Users/xuechengyun/code/cpp/learning_more_cpp_idioms/build_g++/output/test/expression_template_array_profile_g++; 949 samples Pages: 1 -->
<svg width="100%" height="100%"
  xmlns="http://www.w3.org/2000/svg" xmlns:xlink="http://www.w3.org/1999/xlink">
<script type="text/ecmascript"><![CDATA[
// SVGPan
// http://www.cyberz.org/blog/2009/12/08/svgpan-a-javascript-svg-panzoomdrag-library/
// Local modification: if(true || ...) below to force panning, never moving.

/**
 *  SVGPan library 1.2
 * ====================
 *
 * Given an unique existing element with id "viewport", including the
 * the library into any SVG adds the following capabilities:
 *
 *  - Mouse panning
 *  - Mouse zooming (using the wheel)
 *  - Object dargging
 *
 * Known issues:
 *
 *  - Zooming (while panning) on Safari has still some issues
 *
 * Releases:
 *
 * 1.2, Sat Mar 20 08:42:50 GMT 2010, Zeng Xiaohui
 *	Fixed a bug with browser mouse handler interaction
 *
 * 1.1, Wed Feb  3 17:39:33 GMT 2010, Zeng Xiaohui
 *	Updated the zoom code to support the mouse wheel on Safari/Chrome
 *
 * 1.0, Andrea Leofreddi
 *	First release
 *
 * This code is licensed under the following BSD license:
 *
 * Copyright 2009-2010 Andrea Leofreddi <a.leofreddi@itcharm.com>. All rights reserved.
 *
 * Redistribution and use in source and binary forms, with or without modification, are
 * permitted provided that the following conditions are met:
 *
 *    1. Redistributions of source code must retain the above copyright notice, this list of
 *       conditions and the following disclaimer.
 *
 *    2. Redistributions in binary form must reproduce the above copyright notice, this list
 *       of conditions and the following disclaimer in the documentation and/or other materials
 *       provided with the distribution.
 *
 * THIS SOFTWARE IS PROVIDED BY Andrea Leofreddi ``AS IS'' AND ANY EXPRESS OR IMPLIED
 * WARRANTIES, INCLUDING, BUT NOT LIMITED TO, THE IMPLIED WARRANTIES OF MERCHANTABILITY AND
 * FITNESS FOR A PARTICULAR PURPOSE ARE DISCLAIMED. IN NO EVENT SHALL Andrea Leofreddi OR
 * CONTRIBUTORS BE LIABLE FOR ANY DIRECT, INDIRECT, INCIDENTAL, SPECIAL, EXEMPLARY, OR
 * CONSEQUENTIAL DAMAGES (INCLUDING, BUT NOT LIMITED TO, PROCUREMENT OF SUBSTITUTE GOODS OR
 * SERVICES; LOSS OF USE, DATA, OR PROFITS; OR BUSINESS INTERRUPTION) HOWEVER CAUSED AND ON
 * ANY THEORY OF LIABILITY, WHETHER IN CONTRACT, STRICT LIABILITY, OR TORT (INCLUDING
 * NEGLIGENCE OR OTHERWISE) ARISING IN ANY WAY OUT OF THE USE OF THIS SOFTWARE, EVEN IF
 * ADVISED OF THE POSSIBILITY OF SUCH DAMAGE.
 *
 * The views and conclusions contained in the software and documentation are those of the
 * authors and should not be interpreted as representing official policies, either expressed
 * or implied, of Andrea Leofreddi.
 */

var root = document.documentElement;

var state = 'none', stateTarget, stateOrigin, stateTf;

setupHandlers(root);

/**
 * Register handlers
 */
function setupHandlers(root){
	setAttributes(root, {
		"onmouseup" : "add(evt)",
		"onmousedown" : "handleMouseDown(evt)",
		"onmousemove" : "handleMouseMove(evt)",
		"onmouseup" : "handleMouseUp(evt)",
		//"onmouseout" : "handleMouseUp(evt)", // Decomment this to stop the pan functionality when dragging out of the SVG element
	});

	if(navigator.userAgent.toLowerCase().indexOf('webkit') >= 0)
		window.addEventListener('mousewheel', handleMouseWheel, false); // Chrome/Safari
	else
		window.addEventListener('DOMMouseScroll', handleMouseWheel, false); // Others

	var g = svgDoc.getElementById("svg");
	g.width = "100%";
	g.height = "100%";
}

/**
 * Instance an SVGPoint object with given event coordinates.
 */
function getEventPoint(evt) {
	var p = root.createSVGPoint();

	p.x = evt.clientX;
	p.y = evt.clientY;

	return p;
}

/**
 * Sets the current transform matrix of an element.
 */
function setCTM(element, matrix) {
	var s = "matrix(" + matrix.a + "," + matrix.b + "," + matrix.c + "," + matrix.d + "," + matrix.e + "," + matrix.f + ")";

	element.setAttribute("transform", s);
}

/**
 * Dumps a matrix to a string (useful for debug).
 */
function dumpMatrix(matrix) {
	var s = "[ " + matrix.a + ", " + matrix.c + ", " + matrix.e + "\n  " + matrix.b + ", " + matrix.d + ", " + matrix.f + "\n  0, 0, 1 ]";

	return s;
}

/**
 * Sets attributes of an element.
 */
function setAttributes(element, attributes){
	for (i in attributes)
		element.setAttributeNS(null, i, attributes[i]);
}

/**
 * Handle mouse move event.
 */
function handleMouseWheel(evt) {
	if(evt.preventDefault)
		evt.preventDefault();

	evt.returnValue = false;

	var svgDoc = evt.target.ownerDocument;

	var delta;

	if(evt.wheelDelta)
		delta = evt.wheelDelta / 3600; // Chrome/Safari
	else
		delta = evt.detail / -90; // Mozilla

	var z = 1 + delta; // Zoom factor: 0.9/1.1

	var g = svgDoc.getElementById("viewport");

	var p = getEventPoint(evt);

	p = p.matrixTransform(g.getCTM().inverse());

	// Compute new scale matrix in current mouse position
	var k = root.createSVGMatrix().translate(p.x, p.y).scale(z).translate(-p.x, -p.y);

        setCTM(g, g.getCTM().multiply(k));

	stateTf = stateTf.multiply(k.inverse());
}

/**
 * Handle mouse move event.
 */
function handleMouseMove(evt) {
	if(evt.preventDefault)
		evt.preventDefault();

	evt.returnValue = false;

	var svgDoc = evt.target.ownerDocument;

	var g = svgDoc.getElementById("viewport");

	if(state == 'pan') {
		// Pan mode
		var p = getEventPoint(evt).matrixTransform(stateTf);

		setCTM(g, stateTf.inverse().translate(p.x - stateOrigin.x, p.y - stateOrigin.y));
	} else if(state == 'move') {
		// Move mode
		var p = getEventPoint(evt).matrixTransform(g.getCTM().inverse());

		setCTM(stateTarget, root.createSVGMatrix().translate(p.x - stateOrigin.x, p.y - stateOrigin.y).multiply(g.getCTM().inverse()).multiply(stateTarget.getCTM()));

		stateOrigin = p;
	}
}

/**
 * Handle click event.
 */
function handleMouseDown(evt) {
	if(evt.preventDefault)
		evt.preventDefault();

	evt.returnValue = false;

	var svgDoc = evt.target.ownerDocument;

	var g = svgDoc.getElementById("viewport");

	if(true || evt.target.tagName == "svg") {
		// Pan mode
		state = 'pan';

		stateTf = g.getCTM().inverse();

		stateOrigin = getEventPoint(evt).matrixTransform(stateTf);
	} else {
		// Move mode
		state = 'move';

		stateTarget = evt.target;

		stateTf = g.getCTM().inverse();

		stateOrigin = getEventPoint(evt).matrixTransform(stateTf);
	}
}

/**
 * Handle mouse button release event.
 */
function handleMouseUp(evt) {
	if(evt.preventDefault)
		evt.preventDefault();

	evt.returnValue = false;

	var svgDoc = evt.target.ownerDocument;

	if(state == 'pan' || state == 'move') {
		// Quit pan mode
		state = '';
	}
}

]]></script>
<g id="viewport" transform="translate(0,0)">
<g id="viewport" class="graph" transform="scale(1 1) rotate(0) translate(4 1191)">
<title>/Users/xuechengyun/code/cpp/learning_more_cpp_idioms/build_g++/output/test/expression_template_array_profile_g++; 949 samples</title>
<polygon fill="white" stroke="none" points="-4,4 -4,-1191 2078.68,-1191 2078.68,4 -4,4"/>
<!-- Legend -->
<g id="node1" class="node">
<title>Legend</title>
<text text-anchor="start" x="8" y="-1160.2" font-family="Times,serif" font-size="24.00">/Users/xuechengyun/code/cpp/learning_more_cpp_idioms/build_g++/output/test/expression_template_array_profile_g++</text>
<text text-anchor="start" x="8" y="-1133.2" font-family="Times,serif" font-size="24.00">Total samples: 949</text>
<text text-anchor="start" x="8" y="-1106.2" font-family="Times,serif" font-size="24.00">Focusing on: 949</text>
<text text-anchor="start" x="8" y="-1079.2" font-family="Times,serif" font-size="24.00">Dropped nodes with &lt;= 4 abs(samples)</text>
<text text-anchor="start" x="8" y="-1052.2" font-family="Times,serif" font-size="24.00">Dropped edges with &lt;= 0 samples</text>
</g>
<!-- N1 -->
<g id="node2" class="node">
<title>N1</title>
<polygon fill="none" stroke="black" points="1283.88,-1134.12 1200.38,-1134.12 1200.38,-1096.88 1283.88,-1096.88 1283.88,-1134.12"/>
<text text-anchor="middle" x="1242.12" y="-1122.53" font-family="Times,serif" font-size="8.00">0x0000000187538273</text>
<text text-anchor="end" x="1275.88" y="-1112.78" font-family="Times,serif" font-size="8.00">0 (0.0%)</text>
<text text-anchor="end" x="1275.88" y="-1103.03" font-family="Times,serif" font-size="8.00">of 949 (100.0%)</text>
</g>
<!-- N2 -->
<g id="node3" class="node">
<title>N2</title>
<polygon fill="none" stroke="black" points="1276.38,-991.5 1207.88,-991.5 1207.88,-954.25 1276.38,-954.25 1276.38,-991.5"/>
<text text-anchor="middle" x="1242.12" y="-979.9" font-family="Times,serif" font-size="8.00">_main</text>
<text text-anchor="end" x="1268.38" y="-970.15" font-family="Times,serif" font-size="8.00">0 (0.0%)</text>
<text text-anchor="end" x="1268.38" y="-960.4" font-family="Times,serif" font-size="8.00">of 949 (100.0%)</text>
</g>
<!-- N1&#45;&gt;N2 -->
<g id="edge2" class="edge">
<title>N1&#45;&gt;N2</title>
<path fill="none" stroke="black" stroke-width="2" d="M1242.12,-1096.4C1242.12,-1072.88 1242.12,-1031.5 1242.12,-1003.4"/>
<polygon fill="black" stroke="black" stroke-width="2" points="1245.63,-1004.93 1242.13,-994.93 1238.63,-1004.93 1245.63,-1004.93"/>
<text text-anchor="middle" x="1252.25" y="-1012.7" font-family="Times,serif" font-size="14.00">949</text>
</g>
<!-- N3 -->
<g id="node4" class="node">
<title>N3</title>
<polygon fill="none" stroke="black" points="1276.38,-901.75 1207.88,-901.75 1207.88,-864.5 1276.38,-864.5 1276.38,-901.75"/>
<text text-anchor="middle" x="1242.12" y="-890.15" font-family="Times,serif" font-size="8.00">run</text>
<text text-anchor="end" x="1268.38" y="-880.4" font-family="Times,serif" font-size="8.00">0 (0.0%)</text>
<text text-anchor="end" x="1268.38" y="-870.65" font-family="Times,serif" font-size="8.00">of 949 (100.0%)</text>
</g>
<!-- N2&#45;&gt;N3 -->
<g id="edge1" class="edge">
<title>N2&#45;&gt;N3</title>
<path fill="none" stroke="black" stroke-width="2" d="M1242.12,-954.12C1242.12,-942.42 1242.12,-926.83 1242.12,-913.33"/>
<polygon fill="black" stroke="black" stroke-width="2" points="1245.63,-915.18 1242.13,-905.18 1238.63,-915.18 1245.63,-915.18"/>
<text text-anchor="middle" x="1252.25" y="-922.95" font-family="Times,serif" font-size="14.00">949</text>
</g>
<!-- N5 -->
<g id="node6" class="node">
<title>N5</title>
<polygon fill="none" stroke="black" points="1301.5,-812 1182.75,-812 1182.75,-765 1301.5,-765 1301.5,-812"/>
<text text-anchor="middle" x="1242.12" y="-800.4" font-family="Times,serif" font-size="8.00">void</text>
<text text-anchor="middle" x="1242.12" y="-790.65" font-family="Times,serif" font-size="8.00">calculate_by_operator_overload</text>
<text text-anchor="end" x="1293.5" y="-780.9" font-family="Times,serif" font-size="8.00">0 (0.0%)</text>
<text text-anchor="end" x="1293.5" y="-771.15" font-family="Times,serif" font-size="8.00">of 450 (47.4%)</text>
</g>
<!-- N3&#45;&gt;N5 -->
<g id="edge4" class="edge">
<title>N3&#45;&gt;N5</title>
<path fill="none" stroke="black" stroke-width="2" d="M1242.12,-864.27C1242.12,-852.68 1242.12,-837.23 1242.12,-823.37"/>
<polygon fill="black" stroke="black" stroke-width="2" points="1245.63,-825.26 1242.13,-815.26 1238.63,-825.26 1245.63,-825.26"/>
<text text-anchor="middle" x="1252.25" y="-833.2" font-family="Times,serif" font-size="14.00">450</text>
</g>
<!-- N7 -->
<g id="node8" class="node">
<title>N7</title>
<polygon fill="none" stroke="black" points="1124.25,-812 1058,-812 1058,-765 1124.25,-765 1124.25,-812"/>
<text text-anchor="middle" x="1091.12" y="-800.4" font-family="Times,serif" font-size="8.00">void</text>
<text text-anchor="middle" x="1091.12" y="-790.65" font-family="Times,serif" font-size="8.00">calculate_by_et</text>
<text text-anchor="end" x="1116.25" y="-780.9" font-family="Times,serif" font-size="8.00">0 (0.0%)</text>
<text text-anchor="end" x="1116.25" y="-771.15" font-family="Times,serif" font-size="8.00">of 370 (39.0%)</text>
</g>
<!-- N3&#45;&gt;N7 -->
<g id="edge6" class="edge">
<title>N3&#45;&gt;N7</title>
<path fill="none" stroke="black" stroke-width="2" d="M1212.65,-864.05C1190.38,-850.38 1159.46,-831.41 1134.38,-816.03"/>
<polygon fill="black" stroke="black" stroke-width="2" points="1137.67,-813.94 1127.32,-811.7 1134.01,-819.91 1137.67,-813.94"/>
<text text-anchor="middle" x="1190.27" y="-833.2" font-family="Times,serif" font-size="14.00">370</text>
</g>
<!-- N13 -->
<g id="node14" class="node">
<title>N13</title>
<polygon fill="none" stroke="black" points="1590.12,-747 1496.12,-747 1496.12,-700 1590.12,-700 1590.12,-747"/>
<text text-anchor="middle" x="1543.12" y="-735.4" font-family="Times,serif" font-size="8.00">void</text>
<text text-anchor="middle" x="1543.12" y="-725.65" font-family="Times,serif" font-size="8.00">calculate_by_expression</text>
<text text-anchor="end" x="1582.12" y="-715.9" font-family="Times,serif" font-size="8.00">0 (0.0%)</text>
<text text-anchor="end" x="1582.12" y="-706.15" font-family="Times,serif" font-size="8.00">of 128 (13.5%)</text>
</g>
<!-- N3&#45;&gt;N13 -->
<g id="edge10" class="edge">
<title>N3&#45;&gt;N13</title>
<path fill="none" stroke="black" d="M1276.65,-864.04C1328.73,-836.77 1427.8,-784.89 1489.38,-752.65"/>
<polygon fill="black" stroke="black" points="1490.72,-755.89 1497.96,-748.15 1487.47,-749.69 1490.72,-755.89"/>
<text text-anchor="middle" x="1345.98" y="-833.2" font-family="Times,serif" font-size="14.00">128</text>
</g>
<!-- N4 -->
<g id="node5" class="node">
<title>N4</title>
<polygon fill="none" stroke="black" points="1289.88,-634 1194.38,-634 1194.38,-587 1289.88,-587 1289.88,-634"/>
<text text-anchor="middle" x="1242.12" y="-622.4" font-family="Times,serif" font-size="8.00">array_operator_overload</text>
<text text-anchor="middle" x="1242.12" y="-612.65" font-family="Times,serif" font-size="8.00">calculate</text>
<text text-anchor="end" x="1281.88" y="-602.9" font-family="Times,serif" font-size="8.00">0 (0.0%)</text>
<text text-anchor="end" x="1281.88" y="-593.15" font-family="Times,serif" font-size="8.00">of 450 (47.4%)</text>
</g>
<!-- N10 -->
<g id="node11" class="node">
<title>N10</title>
<polygon fill="none" stroke="black" points="1325.5,-385.5 1158.75,-385.5 1158.75,-305.5 1325.5,-305.5 1325.5,-385.5"/>
<text text-anchor="middle" x="1242.12" y="-366.87" font-family="Times,serif" font-size="15.40">array_operator_overload</text>
<text text-anchor="middle" x="1242.12" y="-348.87" font-family="Times,serif" font-size="15.40">operator*@100010500</text>
<text text-anchor="end" x="1317.5" y="-330.87" font-family="Times,serif" font-size="15.40">21 (2.2%)</text>
<text text-anchor="end" x="1317.5" y="-312.87" font-family="Times,serif" font-size="15.40">of 167 (17.6%)</text>
</g>
<!-- N4&#45;&gt;N10 -->
<g id="edge8" class="edge">
<title>N4&#45;&gt;N10</title>
<path fill="none" stroke="black" stroke-width="1.06" d="M1242.12,-586.62C1242.12,-544.65 1242.12,-454.41 1242.12,-397.3"/>
<polygon fill="black" stroke="black" stroke-width="1.06" points="1245.63,-397.59 1242.13,-387.59 1238.63,-397.59 1245.63,-397.59"/>
<text text-anchor="middle" x="1252.25" y="-457.95" font-family="Times,serif" font-size="14.00">167</text>
</g>
<!-- N11 -->
<g id="node12" class="node">
<title>N11</title>
<polygon fill="none" stroke="black" points="1549.25,-387 1375,-387 1375,-304 1549.25,-304 1549.25,-387"/>
<text text-anchor="middle" x="1462.12" y="-367.8" font-family="Times,serif" font-size="16.00">array_operator_overload</text>
<text text-anchor="middle" x="1462.12" y="-349.05" font-family="Times,serif" font-size="16.00">operator+@1000105b4</text>
<text text-anchor="end" x="1541.25" y="-330.3" font-family="Times,serif" font-size="16.00">24 (2.5%)</text>
<text text-anchor="end" x="1541.25" y="-311.55" font-family="Times,serif" font-size="16.00">of 143 (15.1%)</text>
</g>
<!-- N4&#45;&gt;N11 -->
<g id="edge9" class="edge">
<title>N4&#45;&gt;N11</title>
<path fill="none" stroke="black" d="M1261.26,-586.62C1296.66,-544.3 1373.1,-452.93 1420.8,-395.9"/>
<polygon fill="black" stroke="black" points="1423.21,-398.48 1426.94,-388.56 1417.84,-393.99 1423.21,-398.48"/>
<text text-anchor="middle" x="1391.27" y="-457.95" font-family="Times,serif" font-size="14.00">143</text>
</g>
<!-- N14 -->
<g id="node15" class="node">
<title>N14</title>
<polygon fill="none" stroke="black" points="909.88,-379.5 760.38,-379.5 760.38,-311.5 909.88,-311.5 909.88,-379.5"/>
<text text-anchor="middle" x="835.12" y="-363.25" font-family="Times,serif" font-size="12.90">array_operator_overload</text>
<text text-anchor="middle" x="835.12" y="-348.25" font-family="Times,serif" font-size="12.90">operator*@100010698</text>
<text text-anchor="end" x="901.88" y="-333.25" font-family="Times,serif" font-size="12.90">9 (0.9%)</text>
<text text-anchor="end" x="901.88" y="-318.25" font-family="Times,serif" font-size="12.90">of 78 (8.2%)</text>
</g>
<!-- N4&#45;&gt;N14 -->
<g id="edge21" class="edge">
<title>N4&#45;&gt;N14</title>
<path fill="none" stroke="black" d="M1227.51,-586.52C1217.24,-571.65 1202.46,-552.61 1186.12,-539 1148.01,-507.25 1125.35,-518.72 1087.62,-486.5 1067.72,-469.5 1072.56,-455.86 1052.12,-439.5 1023.16,-416.32 1010.15,-419.78 976.12,-405 958.26,-397.24 939.03,-389.12 920.7,-381.48"/>
<polygon fill="black" stroke="black" points="922.3,-378.35 911.72,-377.74 919.61,-384.81 922.3,-378.35"/>
<text text-anchor="middle" x="1094.38" y="-457.95" font-family="Times,serif" font-size="14.00">40</text>
</g>
<!-- N16 -->
<g id="node17" class="node">
<title>N16</title>
<polygon fill="none" stroke="black" points="1205.88,-486.5 1110.38,-486.5 1110.38,-439.5 1205.88,-439.5 1205.88,-486.5"/>
<text text-anchor="middle" x="1158.12" y="-474.9" font-family="Times,serif" font-size="8.00">array_operator_overload</text>
<text text-anchor="middle" x="1158.12" y="-465.15" font-family="Times,serif" font-size="8.00">operator+@100010668</text>
<text text-anchor="end" x="1197.88" y="-455.4" font-family="Times,serif" font-size="8.00">0 (0.0%)</text>
<text text-anchor="end" x="1197.88" y="-445.65" font-family="Times,serif" font-size="8.00">of 62 (6.5%)</text>
</g>
<!-- N4&#45;&gt;N16 -->
<g id="edge17" class="edge">
<title>N4&#45;&gt;N16</title>
<path fill="none" stroke="black" d="M1229,-586.77C1215.01,-562.53 1192.73,-523.93 1176.88,-496.49"/>
<polygon fill="black" stroke="black" points="1179.95,-494.8 1171.91,-487.89 1173.88,-498.3 1179.95,-494.8"/>
<text text-anchor="middle" x="1196.88" y="-507.7" font-family="Times,serif" font-size="14.00">62</text>
</g>
<!-- N18 -->
<g id="node19" class="node">
<title>N18</title>
<polygon fill="none" stroke="black" points="1042.88,-486.5 947.38,-486.5 947.38,-439.5 1042.88,-439.5 1042.88,-486.5"/>
<text text-anchor="middle" x="995.12" y="-474.9" font-family="Times,serif" font-size="8.00">array_operator_overload</text>
<text text-anchor="middle" x="995.12" y="-465.15" font-family="Times,serif" font-size="8.00">operator*@100010740</text>
<text text-anchor="end" x="1034.88" y="-455.4" font-family="Times,serif" font-size="8.00">0 (0.0%)</text>
<text text-anchor="end" x="1034.88" y="-445.65" font-family="Times,serif" font-size="8.00">of 38 (4.0%)</text>
</g>
<!-- N4&#45;&gt;N18 -->
<g id="edge22" class="edge">
<title>N4&#45;&gt;N18</title>
<path fill="none" stroke="black" d="M1230.18,-586.53C1220.55,-570.45 1205.43,-549.96 1186.12,-539 1133.68,-509.23 1105.63,-547.85 1051.62,-521 1039.37,-514.91 1028.2,-505.1 1019.09,-495.32"/>
<polygon fill="black" stroke="black" points="1021.86,-493.17 1012.63,-487.97 1016.6,-497.79 1021.86,-493.17"/>
<text text-anchor="middle" x="1058.38" y="-507.7" font-family="Times,serif" font-size="14.00">38</text>
</g>
<!-- N5&#45;&gt;N4 -->
<g id="edge3" class="edge">
<title>N5&#45;&gt;N4</title>
<path fill="none" stroke="black" stroke-width="2" d="M1242.12,-764.85C1242.12,-734.57 1242.12,-680.65 1242.12,-645.48"/>
<polygon fill="black" stroke="black" stroke-width="2" points="1245.63,-647.37 1242.13,-637.37 1238.63,-647.37 1245.63,-647.37"/>
<text text-anchor="middle" x="1252.25" y="-718.45" font-family="Times,serif" font-size="14.00">450</text>
</g>
<!-- N6 -->
<g id="node7" class="node">
<title>N6</title>
<polygon fill="none" stroke="black" points="1138.38,-682 799.88,-682 799.88,-539 1138.38,-539 1138.38,-682"/>
<text text-anchor="middle" x="969.12" y="-649.78" font-family="Times,serif" font-size="29.70">array_expression_template</text>
<text text-anchor="middle" x="969.12" y="-616.03" font-family="Times,serif" font-size="29.70">collect_result</text>
<text text-anchor="end" x="1130.38" y="-582.28" font-family="Times,serif" font-size="29.70">178 (18.8%)</text>
<text text-anchor="end" x="1130.38" y="-548.53" font-family="Times,serif" font-size="29.70">of 370 (39.0%)</text>
</g>
<!-- N6&#45;&gt;N6 -->
<g id="edge7" class="edge">
<title>N6&#45;&gt;N6</title>
<path fill="none" stroke="black" stroke-width="1.09" d="M1138.78,-623.5C1149.74,-620.47 1156.38,-616.13 1156.38,-610.5 1156.38,-607.07 1153.91,-604.12 1149.51,-601.65"/>
<polygon fill="black" stroke="black" stroke-width="1.09" points="1150.91,-598.44 1140.32,-598.1 1148.38,-604.97 1150.91,-598.44"/>
<text text-anchor="middle" x="1166.5" y="-605.45" font-family="Times,serif" font-size="14.00">173</text>
</g>
<!-- N8 -->
<g id="node9" class="node">
<title>N8</title>
<polygon fill="none" stroke="black" points="1183.25,-220.75 973,-220.75 973,-124.25 1183.25,-124.25 1183.25,-220.75"/>
<text text-anchor="middle" x="1078.12" y="-179.61" font-family="Times,serif" font-size="39.10">___umodti3</text>
<text text-anchor="end" x="1175.25" y="-135.36" font-family="Times,serif" font-size="39.10">368 (38.8%)</text>
</g>
<!-- N6&#45;&gt;N8 -->
<g id="edge12" class="edge">
<title>N6&#45;&gt;N8</title>
<path fill="none" stroke="black" d="M861.33,-538.58C781.7,-477.1 695.93,-385.45 751.12,-304 754.39,-299.19 869.26,-254.01 961.93,-218.14"/>
<polygon fill="black" stroke="black" points="963.07,-221.45 971.13,-214.58 960.54,-214.92 963.07,-221.45"/>
<text text-anchor="middle" x="761.5" y="-408.2" font-family="Times,serif" font-size="14.00">103</text>
</g>
<!-- N9 -->
<g id="node10" class="node">
<title>N9</title>
<polygon fill="none" stroke="black" points="866.75,-251.5 539.5,-251.5 539.5,-93.5 866.75,-93.5 866.75,-251.5"/>
<text text-anchor="middle" x="703.12" y="-216.15" font-family="Times,serif" font-size="33.00">std</text>
<text text-anchor="middle" x="703.12" y="-178.65" font-family="Times,serif" font-size="33.00">array</text>
<text text-anchor="middle" x="703.12" y="-141.15" font-family="Times,serif" font-size="33.00">operator[]@1000107a0</text>
<text text-anchor="end" x="858.75" y="-103.65" font-family="Times,serif" font-size="33.00">238 (25.1%)</text>
</g>
<!-- N6&#45;&gt;N9 -->
<g id="edge13" class="edge">
<title>N6&#45;&gt;N9</title>
<path fill="none" stroke="black" d="M827.23,-538.53C803.11,-523.17 779.35,-505.7 759.12,-486.5 681.73,-413.06 657.75,-388.2 627.12,-286 624.78,-278.19 624.46,-270.43 625.66,-262.86"/>
<polygon fill="black" stroke="black" points="629,-263.93 628.07,-253.38 622.22,-262.21 629,-263.93"/>
<text text-anchor="middle" x="701.12" y="-408.2" font-family="Times,serif" font-size="14.00">84</text>
</g>
<!-- N15 -->
<g id="node16" class="node">
<title>N15</title>
<polygon fill="none" stroke="black" points="1525.75,-227.5 1300.5,-227.5 1300.5,-117.5 1525.75,-117.5 1525.75,-227.5"/>
<text text-anchor="middle" x="1413.12" y="-202.5" font-family="Times,serif" font-size="22.10">std</text>
<text text-anchor="middle" x="1413.12" y="-177" font-family="Times,serif" font-size="22.10">array</text>
<text text-anchor="middle" x="1413.12" y="-151.5" font-family="Times,serif" font-size="22.10">operator[]@10000d23c</text>
<text text-anchor="end" x="1517.75" y="-126.01" font-family="Times,serif" font-size="22.10">76 (8.0%)</text>
</g>
<!-- N6&#45;&gt;N15 -->
<g id="edge39" class="edge">
<title>N6&#45;&gt;N15</title>
<path fill="none" stroke="black" d="M929.84,-538.87C911.06,-494.66 899.25,-439.68 933.38,-405 976.54,-361.13 1997.96,-430.87 2041.12,-387 2196.89,-228.68 1761.5,-187.73 1537.28,-177.16"/>
<polygon fill="black" stroke="black" points="1537.77,-173.68 1527.62,-176.72 1537.45,-180.68 1537.77,-173.68"/>
<text text-anchor="middle" x="936.75" y="-408.2" font-family="Times,serif" font-size="14.00">5</text>
</g>
<!-- N7&#45;&gt;N6 -->
<g id="edge5" class="edge">
<title>N7&#45;&gt;N6</title>
<path fill="none" stroke="black" stroke-width="2" d="M1075.43,-764.85C1062.47,-746.17 1043.28,-718.47 1024.75,-691.74"/>
<polygon fill="black" stroke="black" stroke-width="2" points="1028.53,-691.06 1019.96,-684.83 1022.78,-695.04 1028.53,-691.06"/>
<text text-anchor="middle" x="1071.77" y="-718.45" font-family="Times,serif" font-size="14.00">370</text>
</g>
<!-- N10&#45;&gt;N8 -->
<g id="edge14" class="edge">
<title>N10&#45;&gt;N8</title>
<path fill="none" stroke="black" d="M1158.37,-306.95C1155.6,-305.93 1152.85,-304.94 1150.12,-304 1119.56,-293.45 1099.63,-311.41 1079.62,-286 1067.86,-271.06 1064.83,-251.22 1065.58,-232.36"/>
<polygon fill="black" stroke="black" points="1069.06,-232.86 1066.35,-222.61 1062.08,-232.31 1069.06,-232.86"/>
<text text-anchor="middle" x="1086.38" y="-272.7" font-family="Times,serif" font-size="14.00">70</text>
</g>
<!-- N10&#45;&gt;N9 -->
<g id="edge20" class="edge">
<title>N10&#45;&gt;N9</title>
<path fill="none" stroke="black" d="M1158.32,-306.14C1155.58,-305.36 1152.84,-304.64 1150.12,-304 1109.25,-294.38 808.8,-307.32 772.62,-286 761.76,-279.6 752.36,-270.77 744.3,-260.84"/>
<polygon fill="black" stroke="black" points="747.27,-258.97 738.46,-253.08 741.68,-263.18 747.27,-258.97"/>
<text text-anchor="middle" x="779.38" y="-272.7" font-family="Times,serif" font-size="14.00">46</text>
</g>
<!-- N10&#45;&gt;N10 -->
<g id="edge31" class="edge">
<title>N10&#45;&gt;N10</title>
<path fill="none" stroke="black" d="M1325.64,-356.63C1336.4,-354.7 1343.5,-350.99 1343.5,-345.5 1343.5,-342.15 1340.86,-339.47 1336.37,-337.44"/>
<polygon fill="black" stroke="black" points="1337.67,-334.18 1327.1,-334.78 1335.74,-340.91 1337.67,-334.18"/>
<text text-anchor="middle" x="1350.25" y="-340.45" font-family="Times,serif" font-size="14.00">18</text>
</g>
<!-- N10&#45;&gt;N15 -->
<g id="edge28" class="edge">
<title>N10&#45;&gt;N15</title>
<path fill="none" stroke="black" d="M1325.93,-319.44C1354.53,-309.29 1381.69,-297.31 1391.12,-286 1402.1,-272.83 1408.18,-255.79 1411.42,-238.97"/>
<polygon fill="black" stroke="black" points="1414.81,-239.91 1412.92,-229.49 1407.9,-238.82 1414.81,-239.91"/>
<text text-anchor="middle" x="1407.84" y="-272.7" font-family="Times,serif" font-size="14.00">24</text>
</g>
<!-- N20 -->
<g id="node21" class="node">
<title>N20</title>
<polygon fill="none" stroke="black" points="1277.75,-200.88 1220.5,-200.88 1220.5,-144.12 1277.75,-144.12 1277.75,-200.88"/>
<text text-anchor="middle" x="1249.12" y="-189.28" font-family="Times,serif" font-size="8.00">std</text>
<text text-anchor="middle" x="1249.12" y="-179.53" font-family="Times,serif" font-size="8.00">array</text>
<text text-anchor="middle" x="1249.12" y="-169.78" font-family="Times,serif" font-size="8.00">get_array</text>
<text text-anchor="end" x="1269.75" y="-160.03" font-family="Times,serif" font-size="8.00">0 (0.0%)</text>
<text text-anchor="end" x="1269.75" y="-150.28" font-family="Times,serif" font-size="8.00">of 14 (1.5%)</text>
</g>
<!-- N10&#45;&gt;N20 -->
<g id="edge38" class="edge">
<title>N10&#45;&gt;N20</title>
<path fill="none" stroke="black" d="M1243.73,-305.27C1244.87,-277.49 1246.39,-240.38 1247.52,-212.62"/>
<polygon fill="black" stroke="black" points="1251.01,-213 1247.92,-202.87 1244.02,-212.71 1251.01,-213"/>
<text text-anchor="middle" x="1248.37" y="-272.7" font-family="Times,serif" font-size="14.00">6</text>
</g>
<!-- N11&#45;&gt;N8 -->
<g id="edge16" class="edge">
<title>N11&#45;&gt;N8</title>
<path fill="none" stroke="black" d="M1374.62,-306.24C1371.78,-305.43 1368.94,-304.68 1366.12,-304 1312.07,-291.02 1160.66,-319.93 1116.62,-286 1099.79,-273.03 1090.27,-252.3 1084.9,-232.15"/>
<polygon fill="black" stroke="black" points="1088.34,-231.49 1082.67,-222.54 1081.53,-233.07 1088.34,-231.49"/>
<text text-anchor="middle" x="1123.38" y="-272.7" font-family="Times,serif" font-size="14.00">67</text>
</g>
<!-- N11&#45;&gt;N9 -->
<g id="edge24" class="edge">
<title>N11&#45;&gt;N9</title>
<path fill="none" stroke="black" d="M1374.65,-306.11C1371.8,-305.34 1368.95,-304.63 1366.12,-304 1265.73,-281.65 1002.61,-313.94 903.62,-286 879.37,-279.15 854.87,-268.84 831.74,-257.18"/>
<polygon fill="black" stroke="black" points="833.4,-254.1 822.91,-252.62 830.19,-260.32 833.4,-254.1"/>
<text text-anchor="middle" x="910.38" y="-272.7" font-family="Times,serif" font-size="14.00">32</text>
</g>
<!-- N11&#45;&gt;N11 -->
<g id="edge27" class="edge">
<title>N11&#45;&gt;N11</title>
<path fill="none" stroke="black" d="M1549.53,-356.49C1560.23,-354.52 1567.25,-350.86 1567.25,-345.5 1567.25,-342.32 1564.78,-339.73 1560.53,-337.75"/>
<polygon fill="black" stroke="black" points="1561.56,-334.4 1550.98,-334.94 1559.59,-341.12 1561.56,-334.4"/>
<text text-anchor="middle" x="1574" y="-340.45" font-family="Times,serif" font-size="14.00">24</text>
</g>
<!-- N11&#45;&gt;N15 -->
<g id="edge32" class="edge">
<title>N11&#45;&gt;N15</title>
<path fill="none" stroke="black" d="M1450.39,-303.54C1444.82,-284.1 1438.03,-260.4 1431.77,-238.58"/>
<polygon fill="black" stroke="black" points="1435.2,-237.81 1429.08,-229.17 1428.47,-239.74 1435.2,-237.81"/>
<text text-anchor="middle" x="1451.63" y="-272.7" font-family="Times,serif" font-size="14.00">17</text>
</g>
<!-- N11&#45;&gt;N20 -->
<g id="edge41" class="edge">
<title>N11&#45;&gt;N20</title>
<path fill="none" stroke="black" d="M1374.74,-306.84C1371.85,-305.85 1368.97,-304.9 1366.12,-304 1329.82,-292.55 1310.3,-311.88 1282.38,-286 1262.22,-267.32 1254.08,-237.08 1250.88,-212.65"/>
<polygon fill="black" stroke="black" points="1254.36,-212.29 1249.83,-202.71 1247.4,-213.02 1254.36,-212.29"/>
<text text-anchor="middle" x="1285.75" y="-272.7" font-family="Times,serif" font-size="14.00">3</text>
</g>
<!-- N12 -->
<g id="node13" class="node">
<title>N12</title>
<polygon fill="none" stroke="black" points="2007.25,-369.75 1599,-369.75 1599,-321.25 2007.25,-321.25 2007.25,-369.75"/>
<text text-anchor="middle" x="1803.12" y="-354.73" font-family="Times,serif" font-size="11.60">__Z23calculate_by_expressionITk9ArrayLikeSt5arrayIdLm2000EEET_RKS2_S4_</text>
<text text-anchor="end" x="1999.25" y="-341.23" font-family="Times,serif" font-size="11.60">5 (0.5%)</text>
<text text-anchor="end" x="1999.25" y="-327.73" font-family="Times,serif" font-size="11.60">of 128 (13.5%)</text>
</g>
<!-- N12&#45;&gt;N8 -->
<g id="edge15" class="edge">
<title>N12&#45;&gt;N8</title>
<path fill="none" stroke="black" d="M1692.71,-320.8C1659.84,-314.48 1623.64,-308.23 1590.12,-304 1527.5,-296.09 1365.18,-309.58 1306.62,-286 1296.09,-281.76 1297.26,-274.62 1287.12,-269.5 1256.14,-253.86 1243.34,-264.42 1211.12,-251.5 1193.99,-244.63 1176.44,-235.8 1159.93,-226.56"/>
<polygon fill="black" stroke="black" points="1162.08,-223.76 1151.66,-221.84 1158.61,-229.84 1162.08,-223.76"/>
<text text-anchor="middle" x="1313.38" y="-272.7" font-family="Times,serif" font-size="14.00">70</text>
</g>
<!-- N12&#45;&gt;N9 -->
<g id="edge19" class="edge">
<title>N12&#45;&gt;N9</title>
<path fill="none" stroke="black" d="M1695.24,-320.8C1661.71,-314.29 1624.53,-307.95 1590.12,-304 1541.46,-298.41 1195.27,-303.78 1149.62,-286 1139.05,-281.88 1140.56,-273.97 1130.12,-269.5 1061.92,-240.25 1036.87,-266.19 964.12,-251.5 935.97,-245.82 906.48,-238.44 877.87,-230.49"/>
<polygon fill="black" stroke="black" points="878.99,-227.17 868.42,-227.83 877.1,-233.91 878.99,-227.17"/>
<text text-anchor="middle" x="1156.38" y="-272.7" font-family="Times,serif" font-size="14.00">49</text>
</g>
<!-- N12&#45;&gt;N12 -->
<g id="edge40" class="edge">
<title>N12&#45;&gt;N12</title>
<path fill="none" stroke="black" d="M2007.57,-353.96C2018.66,-351.89 2025.25,-349.07 2025.25,-345.5 2025.25,-343.32 2022.8,-341.43 2018.38,-339.81"/>
<polygon fill="black" stroke="black" points="2019.59,-336.5 2009.03,-337.42 2017.86,-343.29 2019.59,-336.5"/>
<text text-anchor="middle" x="2028.62" y="-340.45" font-family="Times,serif" font-size="14.00">5</text>
</g>
<!-- N12&#45;&gt;N15 -->
<g id="edge44" class="edge">
<title>N12&#45;&gt;N15</title>
<path fill="none" stroke="black" d="M1749.31,-320.9C1694.64,-296.93 1608.05,-258.97 1536.45,-227.57"/>
<polygon fill="black" stroke="black" points="1537.95,-224.41 1527.39,-223.6 1535.14,-230.82 1537.95,-224.41"/>
<text text-anchor="middle" x="1669.22" y="-272.7" font-family="Times,serif" font-size="14.00">2</text>
</g>
<!-- N12&#45;&gt;N20 -->
<g id="edge43" class="edge">
<title>N12&#45;&gt;N20</title>
<path fill="none" stroke="black" d="M1708.86,-320.8C1640.7,-304.39 1546.19,-283.13 1462.12,-269.5 1424.41,-263.39 1322.86,-272.79 1291.12,-251.5 1277.15,-242.12 1267.44,-226.51 1260.92,-211.7"/>
<polygon fill="black" stroke="black" points="1264.23,-210.56 1257.27,-202.57 1257.73,-213.16 1264.23,-210.56"/>
<text text-anchor="middle" x="1550.29" y="-272.7" font-family="Times,serif" font-size="14.00">2</text>
</g>
<!-- N13&#45;&gt;N12 -->
<g id="edge11" class="edge">
<title>N13&#45;&gt;N12</title>
<path fill="none" stroke="black" d="M1559,-699.55C1603.31,-635.46 1728.51,-454.4 1780.28,-379.54"/>
<polygon fill="black" stroke="black" points="1783.13,-381.57 1785.94,-371.36 1777.37,-377.59 1783.13,-381.57"/>
<text text-anchor="middle" x="1700.93" y="-507.7" font-family="Times,serif" font-size="14.00">128</text>
</g>
<!-- N14&#45;&gt;N8 -->
<g id="edge26" class="edge">
<title>N14&#45;&gt;N8</title>
<path fill="none" stroke="black" d="M882.55,-311.12C916.31,-287.37 962.41,-254.93 1001.36,-227.52"/>
<polygon fill="black" stroke="black" points="1003.19,-230.51 1009.35,-221.9 999.16,-224.79 1003.19,-230.51"/>
<text text-anchor="middle" x="941.61" y="-272.7" font-family="Times,serif" font-size="14.00">29</text>
</g>
<!-- N14&#45;&gt;N9 -->
<g id="edge29" class="edge">
<title>N14&#45;&gt;N9</title>
<path fill="none" stroke="black" d="M759.97,-331.81C710.68,-321.78 652.66,-306.13 637.62,-286 632.2,-278.74 630.09,-270.99 630.37,-263.09"/>
<polygon fill="black" stroke="black" points="633.8,-263.78 632.03,-253.34 626.9,-262.61 633.8,-263.78"/>
<text text-anchor="middle" x="644.38" y="-272.7" font-family="Times,serif" font-size="14.00">20</text>
</g>
<!-- N14&#45;&gt;N14 -->
<g id="edge36" class="edge">
<title>N14&#45;&gt;N14</title>
<path fill="none" stroke="black" d="M910.09,-356.9C920.73,-355.06 927.88,-351.26 927.88,-345.5 927.88,-342.08 925.36,-339.35 921.08,-337.32"/>
<polygon fill="black" stroke="black" points="922.12,-333.97 911.54,-334.53 920.16,-340.69 922.12,-333.97"/>
<text text-anchor="middle" x="931.25" y="-340.45" font-family="Times,serif" font-size="14.00">8</text>
</g>
<!-- N14&#45;&gt;N15 -->
<g id="edge30" class="edge">
<title>N14&#45;&gt;N15</title>
<path fill="none" stroke="black" d="M910.36,-312.91C921.2,-309.36 932.34,-306.22 943.12,-304 984.64,-295.46 1286.42,-305.36 1324.12,-286 1336,-279.9 1353.54,-259.17 1369.92,-237.14"/>
<polygon fill="black" stroke="black" points="1372.64,-239.36 1375.71,-229.22 1366.99,-235.23 1372.64,-239.36"/>
<text text-anchor="middle" x="1348.78" y="-272.7" font-family="Times,serif" font-size="14.00">19</text>
</g>
<!-- N14&#45;&gt;N20 -->
<g id="edge45" class="edge">
<title>N14&#45;&gt;N20</title>
<path fill="none" stroke="black" d="M910.14,-313.34C921.06,-309.69 932.28,-306.42 943.12,-304 991.87,-293.13 1123.56,-310.4 1167.12,-286 1196.69,-269.44 1218.46,-237.28 1232.11,-211.58"/>
<polygon fill="black" stroke="black" points="1235.2,-213.23 1236.61,-202.72 1228.96,-210.06 1235.2,-213.23"/>
<text text-anchor="middle" x="1191.64" y="-272.7" font-family="Times,serif" font-size="14.00">1</text>
</g>
<!-- N17 -->
<g id="node18" class="node">
<title>N17</title>
<polygon fill="none" stroke="black" points="1109.62,-382.5 952.62,-382.5 952.62,-308.5 1109.62,-308.5 1109.62,-382.5"/>
<text text-anchor="middle" x="1031.12" y="-364.91" font-family="Times,serif" font-size="14.30">array_operator_overload</text>
<text text-anchor="middle" x="1031.12" y="-348.41" font-family="Times,serif" font-size="14.30">operator+@1000119f4</text>
<text text-anchor="end" x="1101.62" y="-331.91" font-family="Times,serif" font-size="14.30">15 (1.6%)</text>
<text text-anchor="end" x="1101.62" y="-315.41" font-family="Times,serif" font-size="14.30">of 62 (6.5%)</text>
</g>
<!-- N16&#45;&gt;N17 -->
<g id="edge18" class="edge">
<title>N16&#45;&gt;N17</title>
<path fill="none" stroke="black" d="M1133.03,-439.18C1117.74,-425.27 1097.68,-407.03 1079.41,-390.41"/>
<polygon fill="black" stroke="black" points="1082.03,-388.07 1072.28,-383.93 1077.32,-393.25 1082.03,-388.07"/>
<text text-anchor="middle" x="1120.17" y="-408.2" font-family="Times,serif" font-size="14.00">62</text>
</g>
<!-- N17&#45;&gt;N8 -->
<g id="edge25" class="edge">
<title>N17&#45;&gt;N8</title>
<path fill="none" stroke="black" d="M1035.16,-308.34C1036.95,-295.92 1039.39,-282 1042.62,-269.5 1045.83,-257.13 1050.03,-244.13 1054.42,-231.83"/>
<polygon fill="black" stroke="black" points="1057.63,-233.25 1057.79,-222.66 1051.06,-230.84 1057.63,-233.25"/>
<text text-anchor="middle" x="1049.38" y="-272.7" font-family="Times,serif" font-size="14.00">29</text>
</g>
<!-- N17&#45;&gt;N9 -->
<g id="edge37" class="edge">
<title>N17&#45;&gt;N9</title>
<path fill="none" stroke="black" d="M956.91,-308.11C952.31,-306.55 947.69,-305.16 943.12,-304 914.34,-296.67 696.66,-307.7 676.38,-286 670.13,-279.32 666.96,-271.46 665.95,-263.04"/>
<polygon fill="black" stroke="black" points="669.46,-263.19 665.83,-253.23 662.46,-263.27 669.46,-263.19"/>
<text text-anchor="middle" x="679.75" y="-272.7" font-family="Times,serif" font-size="14.00">7</text>
</g>
<!-- N17&#45;&gt;N15 -->
<g id="edge35" class="edge">
<title>N17&#45;&gt;N15</title>
<path fill="none" stroke="black" d="M1110.07,-314.66C1123.3,-310.52 1136.99,-306.75 1150.12,-304 1196.18,-294.35 1322.59,-313.02 1361.12,-286 1377.4,-274.59 1388.7,-256.77 1396.5,-238.65"/>
<polygon fill="black" stroke="black" points="1399.73,-239.98 1400.14,-229.39 1393.22,-237.42 1399.73,-239.98"/>
<text text-anchor="middle" x="1381.28" y="-272.7" font-family="Times,serif" font-size="14.00">9</text>
</g>
<!-- N17&#45;&gt;N17 -->
<g id="edge34" class="edge">
<title>N17&#45;&gt;N17</title>
<path fill="none" stroke="black" d="M1109.88,-356.77C1120.53,-354.88 1127.62,-351.12 1127.62,-345.5 1127.62,-342.16 1125.12,-339.48 1120.86,-337.46"/>
<polygon fill="black" stroke="black" points="1121.91,-334.12 1111.33,-334.66 1119.94,-340.83 1121.91,-334.12"/>
<text text-anchor="middle" x="1134.38" y="-340.45" font-family="Times,serif" font-size="14.00">13</text>
</g>
<!-- N17&#45;&gt;N20 -->
<g id="edge42" class="edge">
<title>N17&#45;&gt;N20</title>
<path fill="none" stroke="black" d="M1109.88,-317.48C1151.85,-302.96 1195.27,-287.68 1197.12,-286 1218.56,-266.5 1231.83,-236.38 1239.6,-212.21"/>
<polygon fill="black" stroke="black" points="1242.93,-213.28 1242.45,-202.7 1236.23,-211.27 1242.93,-213.28"/>
<text text-anchor="middle" x="1213.92" y="-272.7" font-family="Times,serif" font-size="14.00">2</text>
</g>
<!-- N18&#45;&gt;N14 -->
<g id="edge23" class="edge">
<title>N18&#45;&gt;N14</title>
<path fill="none" stroke="black" d="M976.31,-439.03C966.53,-427.94 953.96,-414.92 941.12,-405 932.33,-398.2 922.65,-391.71 912.82,-385.7"/>
<polygon fill="black" stroke="black" points="914.66,-382.72 904.27,-380.63 911.09,-388.74 914.66,-382.72"/>
<text text-anchor="middle" x="965.65" y="-408.2" font-family="Times,serif" font-size="14.00">38</text>
</g>
<!-- N19 -->
<g id="node20" class="node">
<title>N19</title>
<polygon fill="none" stroke="black" points="1316,-41 1182.25,-41 1182.25,0 1316,0 1316,-41"/>
<text text-anchor="middle" x="1249.12" y="-23.6" font-family="Times,serif" font-size="14.10">0x00000001878ef80c</text>
<text text-anchor="end" x="1308" y="-7.1" font-family="Times,serif" font-size="14.10">14 (1.5%)</text>
</g>
<!-- N20&#45;&gt;N19 -->
<g id="edge33" class="edge">
<title>N20&#45;&gt;N19</title>
<path fill="none" stroke="black" d="M1249.12,-143.64C1249.12,-117.78 1249.12,-79.34 1249.12,-52.51"/>
<polygon fill="black" stroke="black" points="1252.63,-52.6 1249.13,-42.6 1245.63,-52.6 1252.63,-52.6"/>
<text text-anchor="middle" x="1255.88" y="-62.2" font-family="Times,serif" font-size="14.00">14</text>
</g>
</g>
</g></svg>
